<?xml version="1.0" encoding="UTF-8"?>
<svg xmlns="http://www.w3.org/2000/svg" width="720" height="450" viewBox="0 0 720 450" font-family="Georgia, 'Times New Roman', serif">

  <defs>
    <marker id="axisArrow" markerWidth="8" markerHeight="8" refX="6" refY="3" orient="auto">
      <path d="M0,0 L0,6 L8,3 z" fill="#333"/>
    </marker>
    <marker id="arrowRed" markerWidth="8" markerHeight="8" refX="6" refY="3" orient="auto">
      <path d="M0,0 L0,6 L8,3 z" fill="#c0392b"/>
    </marker>
    <marker id="arrowBlue" markerWidth="8" markerHeight="8" refX="6" refY="3" orient="auto">
      <path d="M0,0 L0,6 L8,3 z" fill="#2980b9"/>
    </marker>
  </defs>

  <!-- Background -->
  <rect width="720" height="420" fill="#fafafa" rx="8"/>

  <!-- Title -->
  <text x="360" y="28" text-anchor="middle" font-size="15" font-weight="bold" fill="#1a1a2e">
    PSR_eff / l_P versus ΔSSV / SSV_crit
  </text>
  <text x="360" y="47" text-anchor="middle" font-size="11" fill="#555" font-style="italic">
    CPP prediction: 1/(1 + k·ΔSSV) — linear approximation — deviation threshold
  </text>

  <!-- Plot area: x from 80 to 660, y from 60 to 360 -->
  <!-- x axis = log scale ΔSSV/SSV_crit from 10^-20 to 10^21 -->
  <!-- y axis = PSR_eff/l_P from 0 to 1 -->

  <g transform="translate(80, 60)">
    <!-- Plot background -->
    <rect width="580" height="300" fill="white" stroke="#ccc" stroke-width="1"/>

    <!-- Grid lines (log x, linear y) -->
    <!-- Y gridlines at 0.2, 0.4, 0.6, 0.8, 1.0 -->
    <g stroke="#e8e8e8" stroke-width="1">
      <line x1="0" y1="60" x2="580" y2="60"/>   <!-- y=0.8 -->
      <line x1="0" y1="120" x2="580" y2="120"/>  <!-- y=0.6 -->
      <line x1="0" y1="180" x2="580" y2="180"/>  <!-- y=0.4 -->
      <line x1="0" y1="240" x2="580" y2="240"/>  <!-- y=0.2 -->
    </g>
    <!-- X gridlines at each decade -->
    <g stroke="#e8e8e8" stroke-width="1">
      <!-- decades at x positions: mapping log10(x) from -20 to 21 → 0 to 580 -->
      <!-- spacing = 580/41 ≈ 14.15 per decade -->
      <!-- Mark every 5 decades for clarity -->
      <line x1="69" y1="0" x2="69" y2="300"/>   <!-- 10^-15 -->
      <line x1="140" y1="0" x2="140" y2="300"/>  <!-- 10^-10 -->
      <line x1="211" y1="0" x2="211" y2="300"/>  <!-- 10^-5 -->
      <line x1="282" y1="0" x2="282" y2="300"/>  <!-- 10^0 -->
      <line x1="353" y1="0" x2="353" y2="300"/>  <!-- 10^5 -->
      <line x1="424" y1="0" x2="424" y2="300"/>  <!-- 10^10 -->
      <line x1="495" y1="0" x2="495" y2="300"/>  <!-- 10^15 -->
      <line x1="566" y1="0" x2="566" y2="300"/>  <!-- 10^20 -->
    </g>

    <!-- === CURVES === -->
    <!-- 
      x axis: ΔSSV/SSV_crit = 10^t, t from -20 to 21
      x_pixel = (t + 20) * 580/41
      PSR_eff/l_P = 1/(1+x) where x = ΔSSV/SSV_crit
      y_pixel = 300 - (PSR_eff/l_P) * 300
      
      Key points:
      t=-20: x≈0, PSR≈1, y=0
      t=0:   x=1,  PSR=0.5, y=150
      t=5:   x=1e5, PSR≈1e-5, y≈300
      t=20:  x=1e20, PSR≈1e-20, y≈300
      
      Linear approx: PSR ≈ 1-x for small x
      Deviates for x>~0.1 (t > -1)
    -->

    <!-- Shaded region: CPP deviates from standard SR (x > 1, t > 0) -->
    <rect x="282" y="0" width="298" height="300" fill="rgba(255,200,150,0.18)"/>
    <text x="380" y="20" font-size="10" fill="#e67e22" font-style="italic">CPP deviates from</text>
    <text x="380" y="33" font-size="10" fill="#e67e22" font-style="italic">standard SR here</text>

    <!-- Exact CPP curve: 1/(1+x), log x scale -->
    <!-- Approximate as polyline with key computed points -->
    <!-- t: -20,-15,-10,-5,-1,0,0.5,1,2,3,5,10,15,20 -->
    <!-- x_pix = (t+20)*14.15 -->
    <!-- PSR = 1/(1+10^t) -->
    <!-- y_pix = 300 - PSR*300 -->
    <!--
      t=-20: xp=0,    PSR≈1,       yp=0
      t=-15: xp=70.7, PSR≈1,       yp≈0
      t=-10: xp=141,  PSR≈1,       yp≈0
      t=-5:  xp=212,  PSR≈0.99999, yp≈0
      t=-2:  xp=254,  PSR≈0.99,    yp≈3
      t=-1:  xp=268,  PSR≈0.909,   yp≈27
      t=0:   xp=282,  PSR=0.5,     yp=150
      t=0.5: xp=289,  PSR≈0.24,    yp≈228
      t=1:   xp=296,  PSR≈0.091,   yp≈273
      t=2:   xp=310,  PSR≈0.0099,  yp≈297
      t=5:   xp=353,  PSR≈1e-5,    yp≈300
      t=20:  xp=566,  PSR≈0,       yp=300
    -->
    <polyline points="0,0 141,0 212,0.3 254,3 268,27 282,150 289,228 296,273 310,297 353,299.7 566,300"
              fill="none" stroke="#2980b9" stroke-width="2.5"/>

    <!-- Linear approximation: PSR ≈ 1-x for x<<1 -->
    <!-- Starts same, deviates at t≈-1 -->
    <!-- Linear: xp from 0 to ~268 same; then continues as 1-10^t which goes negative -->
    <!-- Show only where positive: 1-10^t > 0 => t<0 => xp < 282 -->
    <!-- At t=0: PSR=0, yp=300 -->
    <polyline points="0,0 141,0 212,0.3 254,3 268,27 282,300"
              fill="none" stroke="#27ae60" stroke-width="2" stroke-dasharray="8,4"/>

    <!-- Deviation threshold vertical line at t=20 -->
    <line x1="566" y1="0" x2="566" y2="300" stroke="#c0392b" stroke-width="2" stroke-dasharray="5,3"/>

    <!-- Axes -->
    <line x1="0" y1="300" x2="580" y2="300" stroke="#333" stroke-width="1.8" marker-end="url(#axisArrow)"/>
    <line x1="0" y1="300" x2="0" y2="0" stroke="#333" stroke-width="1.8" marker-end="url(#axisArrow)"/>

    <!-- Y axis ticks and labels -->
    <g font-size="11" fill="#333" text-anchor="end">
      <line x1="-5" y1="0" x2="0" y2="0" stroke="#333"/>
      <text x="-8" y="4">1.0</text>
      <line x1="-5" y1="60" x2="0" y2="60" stroke="#333"/>
      <text x="-8" y="64">0.8</text>
      <line x1="-5" y1="120" x2="0" y2="120" stroke="#333"/>
      <text x="-8" y="124">0.6</text>
      <line x1="-5" y1="180" x2="0" y2="180" stroke="#333"/>
      <text x="-8" y="184">0.4</text>
      <line x1="-5" y1="240" x2="0" y2="240" stroke="#333"/>
      <text x="-8" y="244">0.2</text>
      <line x1="-5" y1="300" x2="0" y2="300" stroke="#333"/>
      <text x="-8" y="304">0.0</text>
    </g>

    <!-- X axis ticks and labels (every 5 decades) -->
    <g font-size="10" fill="#333" text-anchor="middle">
      <line x1="0"   y1="300" x2="0"   y2="305" stroke="#333"/>
      <text x="0"   y="318">10⁻²⁰</text>
      <line x1="69"  y1="300" x2="69"  y2="305" stroke="#333"/>
      <text x="69"  y="318">10⁻¹⁵</text>
      <line x1="140" y1="300" x2="140" y2="305" stroke="#333"/>
      <text x="140" y="318">10⁻¹⁰</text>
      <line x1="211" y1="300" x2="211" y2="305" stroke="#333"/>
      <text x="211" y="318">10⁻⁵</text>
      <line x1="282" y1="300" x2="282" y2="305" stroke="#333"/>
      <text x="282" y="318">10⁰</text>
      <line x1="353" y1="300" x2="353" y2="305" stroke="#333"/>
      <text x="353" y="318">10⁵</text>
      <line x1="424" y1="300" x2="424" y2="305" stroke="#333"/>
      <text x="424" y="318">10¹⁰</text>
      <line x1="495" y1="300" x2="495" y2="305" stroke="#333"/>
      <text x="495" y="318">10¹⁵</text>
      <line x1="566" y1="300" x2="566" y2="305" stroke="#333"/>
      <text x="566" y="318">10²⁰</text>
    </g>

    <!-- Axis labels -->
    <text x="290" y="340" text-anchor="middle" font-size="12" fill="#333">
      ΔSSV / SSV_crit  (log scale)
    </text>
    <text x="-45" y="150" text-anchor="middle" font-size="12" fill="#333" transform="rotate(-90,-45,150)">
      PSR_eff / l_P
    </text>

    <!-- Deviation threshold label -->
    <text x="558" y="55" font-size="10" fill="#c0392b" font-weight="bold" text-anchor="end">10²⁰·SSV_crit</text>
    <text x="558" y="68" font-size="10" fill="#c0392b" text-anchor="end">deviation</text>
    <text x="558" y="81" font-size="10" fill="#c0392b" text-anchor="end">&lt; 10⁻⁶</text>

    <!-- Midpoint annotation -->
    <circle cx="282" cy="150" r="4" fill="#2980b9"/>
    <line x1="282" y1="150" x2="320" y2="110" stroke="#2980b9" stroke-width="1" stroke-dasharray="3,2"/>
    <text x="323" y="107" font-size="10" fill="#2980b9">PSR_eff = l_P/2</text>
    <text x="323" y="119" font-size="10" fill="#2980b9">at ΔSSV = SSV_crit</text>

    <!-- Laboratory regime label -->
    <text x="130" y="18" text-anchor="middle" font-size="10" fill="#555" font-style="italic">Laboratory regime</text>
    <text x="130" y="30" text-anchor="middle" font-size="10" fill="#555" font-style="italic">(CPP ≡ standard SR)</text>
    <line x1="0" y1="35" x2="268" y2="35" stroke="#555" stroke-width="0.8" stroke-dasharray="3,2"/>
    <line x1="268" y1="35" x2="268" y2="0" stroke="#555" stroke-width="0.8" stroke-dasharray="3,2"/>
  </g>

  <!-- Legend -->
  <g transform="translate(100, 410)">
    <line x1="0" y1="8" x2="32" y2="8" stroke="#2980b9" stroke-width="2.5"/>
    <text x="38" y="12" font-size="11" fill="#333">CPP exact: 1/(1 + k·ΔSSV)</text>

    <line x1="220" y1="8" x2="252" y2="8" stroke="#27ae60" stroke-width="2" stroke-dasharray="8,4"/>
    <text x="258" y="12" font-size="11" fill="#333">Linear approx: 1 − k·ΔSSV</text>

    <line x1="450" y1="8" x2="482" y2="8" stroke="#c0392b" stroke-width="2" stroke-dasharray="5,3"/>
    <text x="488" y="12" font-size="11" fill="#333">Deviation threshold (≳10²⁰g)</text>
  </g>
</svg>
