<?xml version="1.0" encoding="utf-8" standalone="no"?>
<!DOCTYPE svg PUBLIC "-//W3C//DTD SVG 1.1//EN"
  "http://www.w3.org/Graphics/SVG/1.1/DTD/svg11.dtd">
<svg xmlns:xlink="http://www.w3.org/1999/xlink" width="488.7pt" height="332.352pt" viewBox="0 0 488.7 332.352" xmlns="http://www.w3.org/2000/svg" version="1.1">
 <metadata>
  <rdf:RDF xmlns:dc="http://purl.org/dc/elements/1.1/" xmlns:cc="http://creativecommons.org/ns#" xmlns:rdf="http://www.w3.org/1999/02/22-rdf-syntax-ns#">
   <cc:Work>
    <dc:type rdf:resource="http://purl.org/dc/dcmitype/StillImage"/>
    <dc:date>2026-03-16T17:28:43.392136</dc:date>
    <dc:format>image/svg+xml</dc:format>
    <dc:creator>
     <cc:Agent>
      <dc:title>Matplotlib v3.10.8, https://matplotlib.org/</dc:title>
     </cc:Agent>
    </dc:creator>
   </cc:Work>
  </rdf:RDF>
 </metadata>
 <defs>
  <style type="text/css">*{stroke-linejoin: round; stroke-linecap: butt}</style>
 </defs>
 <g id="figure_1">
  <g id="patch_1">
   <path d="M 0 332.352 
L 488.7 332.352 
L 488.7 0 
L 0 0 
z
" style="fill: #ffffff"/>
  </g>
  <g id="axes_1">
   <g id="patch_2">
    <path d="M 21.429 288.228542 
L 230.121 288.228542 
Q 237.2355 288.228542 237.2355 277.972026 
L 237.2355 48.226065 
Q 237.2355 37.969548 230.121 37.969548 
L 21.429 37.969548 
Q 14.3145 37.969548 14.3145 48.226065 
L 14.3145 277.972026 
Q 14.3145 288.228542 21.429 288.228542 
z
" clip-path="url(#p0d3c551b38)" style="fill: #e8f4fc; stroke: #2c5f8a; stroke-width: 2; stroke-linejoin: miter"/>
   </g>
   <g id="patch_3">
    <path d="M 287.037 288.228542 
L 467.271 288.228542 
Q 474.3855 288.228542 474.3855 277.972026 
L 474.3855 48.226065 
Q 474.3855 37.969548 467.271 37.969548 
L 287.037 37.969548 
Q 279.9225 37.969548 279.9225 48.226065 
L 279.9225 277.972026 
Q 279.9225 288.228542 287.037 288.228542 
z
" clip-path="url(#p0d3c551b38)" style="fill: #f3eeff; stroke: #5a3e8a; stroke-width: 2; stroke-linejoin: miter"/>
   </g>
   <g id="text_1">
    <!-- Lattice State Packet (LSP) -->
    <g style="fill: #2c5f8a" transform="translate(40.838516 68.493539) scale(0.115 -0.115)">
     <defs>
      <path id="DejaVuSerif-Bold-4c" d="M 300 0 
L 300 378 
L 897 378 
L 897 4288 
L 300 4288 
L 300 4666 
L 2700 4666 
L 2700 4288 
L 2100 4288 
L 2100 428 
L 3938 428 
L 3938 1166 
L 4359 1166 
L 4359 0 
L 300 0 
z
" transform="scale(0.015625)"/>
      <path id="DejaVuSerif-Bold-61" d="M 3525 2041 
L 3525 378 
L 4000 378 
L 4000 0 
L 2419 0 
L 2419 422 
Q 2200 159 1931 34 
Q 1663 -91 1319 -91 
Q 809 -91 536 182 
Q 263 456 263 966 
Q 263 1525 655 1803 
Q 1047 2081 1838 2081 
L 2419 2081 
L 2419 2278 
Q 2419 2681 2228 2873 
Q 2038 3066 1638 3066 
Q 1306 3066 1126 2930 
Q 947 2794 872 2484 
L 519 2484 
L 519 3200 
Q 816 3306 1134 3359 
Q 1453 3413 1806 3413 
Q 2697 3413 3111 3081 
Q 3525 2750 3525 2041 
z
M 2419 1044 
L 2419 1709 
L 2003 1709 
Q 1694 1709 1528 1540 
Q 1363 1372 1363 1056 
Q 1363 741 1483 584 
Q 1603 428 1850 428 
Q 2106 428 2262 597 
Q 2419 766 2419 1044 
z
" transform="scale(0.015625)"/>
      <path id="DejaVuSerif-Bold-74" d="M 634 2944 
L 153 2944 
L 153 3322 
L 634 3322 
L 634 4353 
L 1741 4353 
L 1741 3322 
L 2663 3322 
L 2663 2944 
L 1741 2944 
L 1741 909 
Q 1741 475 1809 369 
Q 1878 263 2059 263 
Q 2259 263 2356 397 
Q 2453 531 2459 813 
L 2925 813 
Q 2897 313 2651 111 
Q 2406 -91 1806 -91 
Q 1122 -91 878 123 
Q 634 338 634 909 
L 634 2944 
z
" transform="scale(0.015625)"/>
      <path id="DejaVuSerif-Bold-69" d="M 588 4263 
Q 588 4516 763 4689 
Q 938 4863 1191 4863 
Q 1438 4863 1611 4689 
Q 1784 4516 1784 4263 
Q 1784 4016 1611 3842 
Q 1438 3669 1191 3669 
Q 938 3669 763 3841 
Q 588 4013 588 4263 
z
M 1797 378 
L 2272 378 
L 2272 0 
L 219 0 
L 219 378 
L 691 378 
L 691 2944 
L 219 2944 
L 219 3322 
L 1797 3322 
L 1797 378 
z
" transform="scale(0.015625)"/>
      <path id="DejaVuSerif-Bold-63" d="M 3609 1038 
Q 3491 469 3123 189 
Q 2756 -91 2125 -91 
Q 1238 -91 750 368 
Q 263 828 263 1663 
Q 263 2488 744 2950 
Q 1225 3413 2081 3413 
Q 2428 3413 2781 3347 
Q 3134 3281 3500 3150 
L 3500 2228 
L 3150 2228 
Q 3100 2650 2903 2854 
Q 2706 3059 2350 3059 
Q 1888 3059 1692 2746 
Q 1497 2434 1497 1663 
Q 1497 909 1687 586 
Q 1878 263 2309 263 
Q 2644 263 2845 463 
Q 3047 663 3091 1038 
L 3609 1038 
z
" transform="scale(0.015625)"/>
      <path id="DejaVuSerif-Bold-65" d="M 2566 1875 
Q 2566 2531 2444 2795 
Q 2322 3059 2028 3059 
Q 1744 3059 1620 2800 
Q 1497 2541 1497 1931 
L 1497 1875 
L 2566 1875 
z
M 3781 1503 
L 1497 1503 
L 1497 1478 
Q 1497 834 1690 548 
Q 1884 263 2316 263 
Q 2675 263 2897 453 
Q 3119 644 3181 1006 
L 3700 1006 
Q 3566 441 3166 175 
Q 2766 -91 2047 -91 
Q 1184 -91 723 364 
Q 263 819 263 1663 
Q 263 2488 734 2950 
Q 1206 3413 2047 3413 
Q 2872 3413 3312 2927 
Q 3753 2441 3781 1503 
z
" transform="scale(0.015625)"/>
      <path id="DejaVuSerif-Bold-20" transform="scale(0.015625)"/>
      <path id="DejaVuSerif-Bold-53" d="M 494 225 
L 494 1331 
L 891 1331 
Q 981 806 1318 547 
Q 1656 288 2253 288 
Q 2738 288 2991 472 
Q 3244 656 3244 1013 
Q 3244 1294 3072 1450 
Q 2900 1606 2363 1741 
L 1663 1913 
Q 978 2088 700 2398 
Q 422 2709 422 3284 
Q 422 3978 883 4364 
Q 1344 4750 2175 4750 
Q 2584 4750 3026 4681 
Q 3469 4613 3944 4475 
L 3944 3444 
L 3547 3444 
Q 3456 3925 3150 4148 
Q 2844 4372 2278 4372 
Q 1816 4372 1580 4211 
Q 1344 4050 1344 3731 
Q 1344 3441 1506 3289 
Q 1669 3138 2303 2975 
L 3003 2803 
Q 3653 2641 3945 2297 
Q 4238 1953 4238 1350 
Q 4238 644 3750 276 
Q 3263 -91 2316 -91 
Q 1859 -91 1409 -12 
Q 959 66 494 225 
z
" transform="scale(0.015625)"/>
      <path id="DejaVuSerif-Bold-50" d="M 300 0 
L 300 378 
L 897 378 
L 897 4288 
L 300 4288 
L 300 4666 
L 2956 4666 
Q 3734 4666 4193 4295 
Q 4653 3925 4653 3303 
Q 4653 2678 4192 2304 
Q 3731 1931 2956 1931 
L 2100 1931 
L 2100 378 
L 2853 378 
L 2853 0 
L 300 0 
z
M 2100 2309 
L 2450 2309 
Q 2856 2309 3098 2579 
Q 3341 2850 3341 3303 
Q 3341 3753 3100 4020 
Q 2859 4288 2450 4288 
L 2100 4288 
L 2100 2309 
z
" transform="scale(0.015625)"/>
      <path id="DejaVuSerif-Bold-6b" d="M 2216 0 
L 219 0 
L 219 378 
L 691 378 
L 691 4488 
L 219 4488 
L 219 4863 
L 1797 4863 
L 1797 1741 
L 3138 2944 
L 2741 2944 
L 2741 3322 
L 4256 3322 
L 4256 2944 
L 3641 2944 
L 2784 2175 
L 4184 378 
L 4544 378 
L 4544 0 
L 2638 0 
L 2638 378 
L 3028 378 
L 2106 1563 
L 1797 1288 
L 1797 378 
L 2216 378 
L 2216 0 
z
" transform="scale(0.015625)"/>
      <path id="DejaVuSerif-Bold-28" d="M 2694 -997 
Q 1641 -606 1122 122 
Q 603 850 603 1931 
Q 603 3013 1115 3731 
Q 1628 4450 2694 4863 
L 2694 4488 
Q 2200 4188 1983 3598 
Q 1766 3009 1766 1931 
Q 1766 856 1983 267 
Q 2200 -322 2694 -622 
L 2694 -997 
z
" transform="scale(0.015625)"/>
      <path id="DejaVuSerif-Bold-29" d="M 325 -997 
L 325 -622 
Q 819 -322 1036 267 
Q 1253 856 1253 1931 
Q 1253 3009 1036 3598 
Q 819 4188 325 4488 
L 325 4863 
Q 1391 4450 1905 3731 
Q 2419 3013 2419 1931 
Q 2419 850 1898 122 
Q 1378 -606 325 -997 
z
" transform="scale(0.015625)"/>
     </defs>
     <use xlink:href="#DejaVuSerif-Bold-4c"/>
     <use xlink:href="#DejaVuSerif-Bold-61" transform="translate(70.3125 0)"/>
     <use xlink:href="#DejaVuSerif-Bold-74" transform="translate(135.107422 0)"/>
     <use xlink:href="#DejaVuSerif-Bold-74" transform="translate(181.298828 0)"/>
     <use xlink:href="#DejaVuSerif-Bold-69" transform="translate(227.490234 0)"/>
     <use xlink:href="#DejaVuSerif-Bold-63" transform="translate(265.478516 0)"/>
     <use xlink:href="#DejaVuSerif-Bold-65" transform="translate(326.367188 0)"/>
     <use xlink:href="#DejaVuSerif-Bold-20" transform="translate(389.990234 0)"/>
     <use xlink:href="#DejaVuSerif-Bold-53" transform="translate(424.804688 0)"/>
     <use xlink:href="#DejaVuSerif-Bold-74" transform="translate(497.021484 0)"/>
     <use xlink:href="#DejaVuSerif-Bold-61" transform="translate(543.212891 0)"/>
     <use xlink:href="#DejaVuSerif-Bold-74" transform="translate(608.007812 0)"/>
     <use xlink:href="#DejaVuSerif-Bold-65" transform="translate(654.199219 0)"/>
     <use xlink:href="#DejaVuSerif-Bold-20" transform="translate(717.822266 0)"/>
     <use xlink:href="#DejaVuSerif-Bold-50" transform="translate(752.636719 0)"/>
     <use xlink:href="#DejaVuSerif-Bold-61" transform="translate(825.207031 0)"/>
     <use xlink:href="#DejaVuSerif-Bold-63" transform="translate(890.001953 0)"/>
     <use xlink:href="#DejaVuSerif-Bold-6b" transform="translate(950.890625 0)"/>
     <use xlink:href="#DejaVuSerif-Bold-65" transform="translate(1020.177734 0)"/>
     <use xlink:href="#DejaVuSerif-Bold-74" transform="translate(1083.800781 0)"/>
     <use xlink:href="#DejaVuSerif-Bold-20" transform="translate(1129.992188 0)"/>
     <use xlink:href="#DejaVuSerif-Bold-28" transform="translate(1164.806641 0)"/>
     <use xlink:href="#DejaVuSerif-Bold-4c" transform="translate(1212.121094 0)"/>
     <use xlink:href="#DejaVuSerif-Bold-53" transform="translate(1282.433594 0)"/>
     <use xlink:href="#DejaVuSerif-Bold-50" transform="translate(1354.650391 0)"/>
     <use xlink:href="#DejaVuSerif-Bold-29" transform="translate(1429.845703 0)"/>
    </g>
   </g>
   <g id="text_2">
    <!-- $\mathbf{x}_{\rm GP}$ -->
    <g style="fill: #555555" transform="translate(41.3496 106.238734) scale(0.12 -0.12)">
     <defs>
      <path id="DejaVuSans-Bold-78" d="M 1422 1791 
L 159 3500 
L 1344 3500 
L 2059 2463 
L 2784 3500 
L 3969 3500 
L 2706 1797 
L 4031 0 
L 2847 0 
L 2059 1106 
L 1281 0 
L 97 0 
L 1422 1791 
z
" transform="scale(0.015625)"/>
      <path id="DejaVuSans-47" d="M 3809 666 
L 3809 1919 
L 2778 1919 
L 2778 2438 
L 4434 2438 
L 4434 434 
Q 4069 175 3628 42 
Q 3188 -91 2688 -91 
Q 1594 -91 976 548 
Q 359 1188 359 2328 
Q 359 3472 976 4111 
Q 1594 4750 2688 4750 
Q 3144 4750 3555 4637 
Q 3966 4525 4313 4306 
L 4313 3634 
Q 3963 3931 3569 4081 
Q 3175 4231 2741 4231 
Q 1884 4231 1454 3753 
Q 1025 3275 1025 2328 
Q 1025 1384 1454 906 
Q 1884 428 2741 428 
Q 3075 428 3337 486 
Q 3600 544 3809 666 
z
" transform="scale(0.015625)"/>
      <path id="DejaVuSans-50" d="M 1259 4147 
L 1259 2394 
L 2053 2394 
Q 2494 2394 2734 2622 
Q 2975 2850 2975 3272 
Q 2975 3691 2734 3919 
Q 2494 4147 2053 4147 
L 1259 4147 
z
M 628 4666 
L 2053 4666 
Q 2838 4666 3239 4311 
Q 3641 3956 3641 3272 
Q 3641 2581 3239 2228 
Q 2838 1875 2053 1875 
L 1259 1875 
L 1259 0 
L 628 0 
L 628 4666 
z
" transform="scale(0.015625)"/>
     </defs>
     <use xlink:href="#DejaVuSans-Bold-78" transform="translate(0 0.3125)"/>
     <use xlink:href="#DejaVuSans-47" transform="translate(65.458984 -16.09375) scale(0.7)"/>
     <use xlink:href="#DejaVuSans-50" transform="translate(119.702148 -16.09375) scale(0.7)"/>
    </g>
   </g>
   <g id="text_3">
    <!-- Grid Point address -->
    <g style="fill: #333333" transform="translate(97.317 105.686859) scale(0.1 -0.1)">
     <defs>
      <path id="DejaVuSerif-47" d="M 4097 3272 
Q 3988 3856 3641 4136 
Q 3294 4416 2675 4416 
Q 1869 4416 1472 3897 
Q 1075 3378 1075 2328 
Q 1075 1300 1484 772 
Q 1894 244 2688 244 
Q 3041 244 3362 331 
Q 3684 419 3975 594 
L 3975 1797 
L 3097 1797 
L 3097 2131 
L 4609 2131 
L 4609 391 
Q 4194 150 3714 29 
Q 3234 -91 2688 -91 
Q 1631 -91 995 570 
Q 359 1231 359 2328 
Q 359 3434 996 4092 
Q 1634 4750 2713 4750 
Q 3113 4750 3539 4658 
Q 3966 4566 4447 4378 
L 4447 3272 
L 4097 3272 
z
" transform="scale(0.015625)"/>
      <path id="DejaVuSerif-72" d="M 3059 3328 
L 3059 2497 
L 2728 2497 
Q 2713 2744 2591 2866 
Q 2469 2988 2234 2988 
Q 1809 2988 1582 2694 
Q 1356 2400 1356 1850 
L 1356 331 
L 2022 331 
L 2022 0 
L 263 0 
L 263 331 
L 781 331 
L 781 2994 
L 231 2994 
L 231 3322 
L 1356 3322 
L 1356 2731 
Q 1525 3078 1790 3245 
Q 2056 3413 2438 3413 
Q 2578 3413 2733 3391 
Q 2888 3369 3059 3328 
z
" transform="scale(0.015625)"/>
      <path id="DejaVuSerif-69" d="M 622 4353 
Q 622 4497 726 4603 
Q 831 4709 978 4709 
Q 1122 4709 1226 4603 
Q 1331 4497 1331 4353 
Q 1331 4206 1228 4103 
Q 1125 4000 978 4000 
Q 831 4000 726 4103 
Q 622 4206 622 4353 
z
M 1356 331 
L 1900 331 
L 1900 0 
L 231 0 
L 231 331 
L 781 331 
L 781 2988 
L 231 2988 
L 231 3322 
L 1356 3322 
L 1356 331 
z
" transform="scale(0.015625)"/>
      <path id="DejaVuSerif-64" d="M 3359 331 
L 3909 331 
L 3909 0 
L 2784 0 
L 2784 519 
Q 2616 206 2355 57 
Q 2094 -91 1709 -91 
Q 1097 -91 708 395 
Q 319 881 319 1663 
Q 319 2444 706 2928 
Q 1094 3413 1709 3413 
Q 2094 3413 2355 3264 
Q 2616 3116 2784 2803 
L 2784 4531 
L 2241 4531 
L 2241 4863 
L 3359 4863 
L 3359 331 
z
M 2784 1497 
L 2784 1825 
Q 2784 2422 2554 2737 
Q 2325 3053 1888 3053 
Q 1444 3053 1217 2703 
Q 991 2353 991 1663 
Q 991 975 1217 622 
Q 1444 269 1888 269 
Q 2325 269 2554 583 
Q 2784 897 2784 1497 
z
" transform="scale(0.015625)"/>
      <path id="DejaVuSerif-20" transform="scale(0.015625)"/>
      <path id="DejaVuSerif-50" d="M 1581 2375 
L 2406 2375 
Q 2872 2375 3115 2626 
Q 3359 2878 3359 3353 
Q 3359 3831 3115 4081 
Q 2872 4331 2406 4331 
L 1581 4331 
L 1581 2375 
z
M 353 0 
L 353 331 
L 947 331 
L 947 4331 
L 353 4331 
L 353 4666 
L 2559 4666 
Q 3259 4666 3668 4311 
Q 4078 3956 4078 3353 
Q 4078 2753 3668 2397 
Q 3259 2041 2559 2041 
L 1581 2041 
L 1581 331 
L 2303 331 
L 2303 0 
L 353 0 
z
" transform="scale(0.015625)"/>
      <path id="DejaVuSerif-6f" d="M 1925 219 
Q 2388 219 2623 584 
Q 2859 950 2859 1663 
Q 2859 2375 2623 2739 
Q 2388 3103 1925 3103 
Q 1463 3103 1227 2739 
Q 991 2375 991 1663 
Q 991 950 1228 584 
Q 1466 219 1925 219 
z
M 1925 -91 
Q 1200 -91 759 389 
Q 319 869 319 1663 
Q 319 2456 758 2934 
Q 1197 3413 1925 3413 
Q 2653 3413 3092 2934 
Q 3531 2456 3531 1663 
Q 3531 869 3092 389 
Q 2653 -91 1925 -91 
z
" transform="scale(0.015625)"/>
      <path id="DejaVuSerif-6e" d="M 263 0 
L 263 331 
L 781 331 
L 781 2988 
L 231 2988 
L 231 3322 
L 1356 3322 
L 1356 2731 
Q 1516 3069 1770 3241 
Q 2025 3413 2363 3413 
Q 2913 3413 3172 3097 
Q 3431 2781 3431 2113 
L 3431 331 
L 3944 331 
L 3944 0 
L 2356 0 
L 2356 331 
L 2853 331 
L 2853 1931 
Q 2853 2541 2703 2767 
Q 2553 2994 2175 2994 
Q 1775 2994 1565 2701 
Q 1356 2409 1356 1850 
L 1356 331 
L 1856 331 
L 1856 0 
L 263 0 
z
" transform="scale(0.015625)"/>
      <path id="DejaVuSerif-74" d="M 691 2988 
L 184 2988 
L 184 3322 
L 691 3322 
L 691 4353 
L 1269 4353 
L 1269 3322 
L 2350 3322 
L 2350 2988 
L 1269 2988 
L 1269 878 
Q 1269 456 1350 337 
Q 1431 219 1650 219 
Q 1875 219 1978 351 
Q 2081 484 2088 781 
L 2522 781 
Q 2497 328 2275 118 
Q 2053 -91 1600 -91 
Q 1103 -91 897 129 
Q 691 350 691 878 
L 691 2988 
z
" transform="scale(0.015625)"/>
      <path id="DejaVuSerif-61" d="M 2547 1044 
L 2547 1747 
L 1806 1747 
Q 1378 1747 1168 1562 
Q 959 1378 959 997 
Q 959 650 1171 447 
Q 1384 244 1747 244 
Q 2106 244 2326 466 
Q 2547 688 2547 1044 
z
M 3122 2075 
L 3122 331 
L 3634 331 
L 3634 0 
L 2547 0 
L 2547 359 
Q 2356 128 2106 18 
Q 1856 -91 1522 -91 
Q 969 -91 644 203 
Q 319 497 319 997 
Q 319 1513 691 1797 
Q 1063 2081 1741 2081 
L 2547 2081 
L 2547 2309 
Q 2547 2688 2317 2895 
Q 2088 3103 1672 3103 
Q 1328 3103 1125 2947 
Q 922 2791 872 2484 
L 575 2484 
L 575 3156 
Q 875 3284 1158 3348 
Q 1441 3413 1709 3413 
Q 2400 3413 2761 3070 
Q 3122 2728 3122 2075 
z
" transform="scale(0.015625)"/>
      <path id="DejaVuSerif-65" d="M 3469 1600 
L 991 1600 
L 991 1575 
Q 991 903 1244 561 
Q 1497 219 1991 219 
Q 2369 219 2611 417 
Q 2853 616 2950 1006 
L 3413 1006 
Q 3275 459 2904 184 
Q 2534 -91 1931 -91 
Q 1203 -91 761 389 
Q 319 869 319 1663 
Q 319 2450 753 2931 
Q 1188 3413 1894 3413 
Q 2647 3413 3050 2948 
Q 3453 2484 3469 1600 
z
M 2791 1931 
Q 2772 2513 2545 2808 
Q 2319 3103 1894 3103 
Q 1497 3103 1269 2806 
Q 1041 2509 991 1931 
L 2791 1931 
z
" transform="scale(0.015625)"/>
      <path id="DejaVuSerif-73" d="M 359 184 
L 359 959 
L 691 959 
Q 703 588 923 403 
Q 1144 219 1575 219 
Q 1963 219 2166 364 
Q 2369 509 2369 788 
Q 2369 1006 2220 1140 
Q 2072 1275 1594 1428 
L 1178 1569 
Q 750 1706 558 1912 
Q 366 2119 366 2438 
Q 366 2894 700 3153 
Q 1034 3413 1625 3413 
Q 1888 3413 2178 3344 
Q 2469 3275 2778 3144 
L 2778 2419 
L 2447 2419 
Q 2434 2741 2221 2922 
Q 2009 3103 1644 3103 
Q 1281 3103 1095 2975 
Q 909 2847 909 2591 
Q 909 2381 1050 2254 
Q 1191 2128 1613 1997 
L 2069 1856 
Q 2541 1709 2748 1489 
Q 2956 1269 2956 922 
Q 2956 450 2595 179 
Q 2234 -91 1600 -91 
Q 1278 -91 972 -22 
Q 666 47 359 184 
z
" transform="scale(0.015625)"/>
     </defs>
     <use xlink:href="#DejaVuSerif-47"/>
     <use xlink:href="#DejaVuSerif-72" transform="translate(79.882812 0)"/>
     <use xlink:href="#DejaVuSerif-69" transform="translate(127.685547 0)"/>
     <use xlink:href="#DejaVuSerif-64" transform="translate(159.667969 0)"/>
     <use xlink:href="#DejaVuSerif-20" transform="translate(223.681641 0)"/>
     <use xlink:href="#DejaVuSerif-50" transform="translate(255.46875 0)"/>
     <use xlink:href="#DejaVuSerif-6f" transform="translate(318.753906 0)"/>
     <use xlink:href="#DejaVuSerif-69" transform="translate(378.958984 0)"/>
     <use xlink:href="#DejaVuSerif-6e" transform="translate(410.941406 0)"/>
     <use xlink:href="#DejaVuSerif-74" transform="translate(475.345703 0)"/>
     <use xlink:href="#DejaVuSerif-20" transform="translate(515.53125 0)"/>
     <use xlink:href="#DejaVuSerif-61" transform="translate(547.318359 0)"/>
     <use xlink:href="#DejaVuSerif-64" transform="translate(606.9375 0)"/>
     <use xlink:href="#DejaVuSerif-64" transform="translate(670.951172 0)"/>
     <use xlink:href="#DejaVuSerif-72" transform="translate(734.964844 0)"/>
     <use xlink:href="#DejaVuSerif-65" transform="translate(782.767578 0)"/>
     <use xlink:href="#DejaVuSerif-73" transform="translate(841.947266 0)"/>
     <use xlink:href="#DejaVuSerif-73" transform="translate(893.265625 0)"/>
    </g>
   </g>
   <g id="text_4">
    <!-- $t_{\rm abs}$ -->
    <g style="fill: #555555" transform="translate(41.3496 157.521315) scale(0.12 -0.12)">
     <defs>
      <path id="DejaVuSans-Oblique-74" d="M 2706 3500 
L 2619 3053 
L 1472 3053 
L 1100 1153 
Q 1081 1047 1072 975 
Q 1063 903 1063 863 
Q 1063 663 1183 572 
Q 1303 481 1569 481 
L 2150 481 
L 2053 0 
L 1503 0 
Q 991 0 739 200 
Q 488 400 488 806 
Q 488 878 497 964 
Q 506 1050 525 1153 
L 897 3053 
L 409 3053 
L 500 3500 
L 978 3500 
L 1172 4494 
L 1747 4494 
L 1556 3500 
L 2706 3500 
z
" transform="scale(0.015625)"/>
      <path id="DejaVuSans-61" d="M 2194 1759 
Q 1497 1759 1228 1600 
Q 959 1441 959 1056 
Q 959 750 1161 570 
Q 1363 391 1709 391 
Q 2188 391 2477 730 
Q 2766 1069 2766 1631 
L 2766 1759 
L 2194 1759 
z
M 3341 1997 
L 3341 0 
L 2766 0 
L 2766 531 
Q 2569 213 2275 61 
Q 1981 -91 1556 -91 
Q 1019 -91 701 211 
Q 384 513 384 1019 
Q 384 1609 779 1909 
Q 1175 2209 1959 2209 
L 2766 2209 
L 2766 2266 
Q 2766 2663 2505 2880 
Q 2244 3097 1772 3097 
Q 1472 3097 1187 3025 
Q 903 2953 641 2809 
L 641 3341 
Q 956 3463 1253 3523 
Q 1550 3584 1831 3584 
Q 2591 3584 2966 3190 
Q 3341 2797 3341 1997 
z
" transform="scale(0.015625)"/>
      <path id="DejaVuSans-62" d="M 3116 1747 
Q 3116 2381 2855 2742 
Q 2594 3103 2138 3103 
Q 1681 3103 1420 2742 
Q 1159 2381 1159 1747 
Q 1159 1113 1420 752 
Q 1681 391 2138 391 
Q 2594 391 2855 752 
Q 3116 1113 3116 1747 
z
M 1159 2969 
Q 1341 3281 1617 3432 
Q 1894 3584 2278 3584 
Q 2916 3584 3314 3078 
Q 3713 2572 3713 1747 
Q 3713 922 3314 415 
Q 2916 -91 2278 -91 
Q 1894 -91 1617 61 
Q 1341 213 1159 525 
L 1159 0 
L 581 0 
L 581 4863 
L 1159 4863 
L 1159 2969 
z
" transform="scale(0.015625)"/>
      <path id="DejaVuSans-73" d="M 2834 3397 
L 2834 2853 
Q 2591 2978 2328 3040 
Q 2066 3103 1784 3103 
Q 1356 3103 1142 2972 
Q 928 2841 928 2578 
Q 928 2378 1081 2264 
Q 1234 2150 1697 2047 
L 1894 2003 
Q 2506 1872 2764 1633 
Q 3022 1394 3022 966 
Q 3022 478 2636 193 
Q 2250 -91 1575 -91 
Q 1294 -91 989 -36 
Q 684 19 347 128 
L 347 722 
Q 666 556 975 473 
Q 1284 391 1588 391 
Q 1994 391 2212 530 
Q 2431 669 2431 922 
Q 2431 1156 2273 1281 
Q 2116 1406 1581 1522 
L 1381 1569 
Q 847 1681 609 1914 
Q 372 2147 372 2553 
Q 372 3047 722 3315 
Q 1072 3584 1716 3584 
Q 2034 3584 2315 3537 
Q 2597 3491 2834 3397 
z
" transform="scale(0.015625)"/>
     </defs>
     <use xlink:href="#DejaVuSans-Oblique-74" transform="translate(0 0.78125)"/>
     <use xlink:href="#DejaVuSans-61" transform="translate(39.208984 -15.625) scale(0.7)"/>
     <use xlink:href="#DejaVuSans-62" transform="translate(82.104492 -15.625) scale(0.7)"/>
     <use xlink:href="#DejaVuSans-73" transform="translate(126.538086 -15.625) scale(0.7)"/>
    </g>
   </g>
   <g id="text_5">
    <!-- Absolute tick counter -->
    <g style="fill: #333333" transform="translate(97.317 156.96944) scale(0.1 -0.1)">
     <defs>
      <path id="DejaVuSerif-41" d="M 1281 1691 
L 2994 1691 
L 2138 3909 
L 1281 1691 
z
M -38 0 
L -38 331 
L 372 331 
L 2034 4666 
L 2559 4666 
L 4225 331 
L 4684 331 
L 4684 0 
L 2988 0 
L 2988 331 
L 3506 331 
L 3116 1356 
L 1153 1356 
L 763 331 
L 1275 331 
L 1275 0 
L -38 0 
z
" transform="scale(0.015625)"/>
      <path id="DejaVuSerif-62" d="M 738 331 
L 738 4531 
L 184 4531 
L 184 4863 
L 1313 4863 
L 1313 2803 
Q 1481 3116 1742 3264 
Q 2003 3413 2388 3413 
Q 3000 3413 3387 2928 
Q 3775 2444 3775 1663 
Q 3775 881 3387 395 
Q 3000 -91 2388 -91 
Q 2003 -91 1742 57 
Q 1481 206 1313 519 
L 1313 0 
L 184 0 
L 184 331 
L 738 331 
z
M 1313 1497 
Q 1313 897 1542 583 
Q 1772 269 2209 269 
Q 2650 269 2876 622 
Q 3103 975 3103 1663 
Q 3103 2353 2876 2703 
Q 2650 3053 2209 3053 
Q 1772 3053 1542 2737 
Q 1313 2422 1313 1825 
L 1313 1497 
z
" transform="scale(0.015625)"/>
      <path id="DejaVuSerif-6c" d="M 1313 331 
L 1856 331 
L 1856 0 
L 184 0 
L 184 331 
L 738 331 
L 738 4531 
L 184 4531 
L 184 4863 
L 1313 4863 
L 1313 331 
z
" transform="scale(0.015625)"/>
      <path id="DejaVuSerif-75" d="M 2266 3322 
L 3341 3322 
L 3341 331 
L 3884 331 
L 3884 0 
L 2766 0 
L 2766 588 
Q 2606 256 2353 82 
Q 2100 -91 1766 -91 
Q 1213 -91 952 223 
Q 691 538 691 1209 
L 691 2988 
L 172 2988 
L 172 3322 
L 1269 3322 
L 1269 1388 
Q 1269 781 1417 556 
Q 1566 331 1947 331 
Q 2347 331 2556 625 
Q 2766 919 2766 1478 
L 2766 2988 
L 2266 2988 
L 2266 3322 
z
" transform="scale(0.015625)"/>
      <path id="DejaVuSerif-63" d="M 3291 997 
Q 3169 466 2822 187 
Q 2475 -91 1925 -91 
Q 1200 -91 759 389 
Q 319 869 319 1663 
Q 319 2459 759 2936 
Q 1200 3413 1925 3413 
Q 2241 3413 2553 3339 
Q 2866 3266 3181 3116 
L 3181 2266 
L 2847 2266 
Q 2781 2703 2561 2903 
Q 2341 3103 1931 3103 
Q 1466 3103 1228 2742 
Q 991 2381 991 1663 
Q 991 944 1227 581 
Q 1463 219 1931 219 
Q 2303 219 2525 412 
Q 2747 606 2828 997 
L 3291 997 
z
" transform="scale(0.015625)"/>
      <path id="DejaVuSerif-6b" d="M 1831 0 
L 219 0 
L 219 331 
L 738 331 
L 738 4531 
L 184 4531 
L 184 4863 
L 1313 4863 
L 1313 1697 
L 2713 2988 
L 2234 2988 
L 2234 3322 
L 3738 3322 
L 3738 2988 
L 3169 2988 
L 2181 2075 
L 3444 331 
L 3922 331 
L 3922 0 
L 2284 0 
L 2284 331 
L 2759 331 
L 1766 1697 
L 1313 1275 
L 1313 331 
L 1831 331 
L 1831 0 
z
" transform="scale(0.015625)"/>
     </defs>
     <use xlink:href="#DejaVuSerif-41"/>
     <use xlink:href="#DejaVuSerif-62" transform="translate(72.216797 0)"/>
     <use xlink:href="#DejaVuSerif-73" transform="translate(136.230469 0)"/>
     <use xlink:href="#DejaVuSerif-6f" transform="translate(187.548828 0)"/>
     <use xlink:href="#DejaVuSerif-6c" transform="translate(247.753906 0)"/>
     <use xlink:href="#DejaVuSerif-75" transform="translate(279.736328 0)"/>
     <use xlink:href="#DejaVuSerif-74" transform="translate(344.140625 0)"/>
     <use xlink:href="#DejaVuSerif-65" transform="translate(384.326172 0)"/>
     <use xlink:href="#DejaVuSerif-20" transform="translate(443.505859 0)"/>
     <use xlink:href="#DejaVuSerif-74" transform="translate(475.292969 0)"/>
     <use xlink:href="#DejaVuSerif-69" transform="translate(515.478516 0)"/>
     <use xlink:href="#DejaVuSerif-63" transform="translate(547.460938 0)"/>
     <use xlink:href="#DejaVuSerif-6b" transform="translate(603.466797 0)"/>
     <use xlink:href="#DejaVuSerif-20" transform="translate(664.0625 0)"/>
     <use xlink:href="#DejaVuSerif-63" transform="translate(695.849609 0)"/>
     <use xlink:href="#DejaVuSerif-6f" transform="translate(751.855469 0)"/>
     <use xlink:href="#DejaVuSerif-75" transform="translate(812.060547 0)"/>
     <use xlink:href="#DejaVuSerif-6e" transform="translate(876.464844 0)"/>
     <use xlink:href="#DejaVuSerif-74" transform="translate(940.869141 0)"/>
     <use xlink:href="#DejaVuSerif-65" transform="translate(981.054688 0)"/>
     <use xlink:href="#DejaVuSerif-72" transform="translate(1040.234375 0)"/>
    </g>
   </g>
   <g id="text_6">
    <!-- $|\mathrm{SSV}|_{\rm abs}$ -->
    <g style="fill: #c0392b" transform="translate(41.3496 208.672645) scale(0.12 -0.12)">
     <defs>
      <path id="DejaVuSans-7c" d="M 1344 4891 
L 1344 -1509 
L 813 -1509 
L 813 4891 
L 1344 4891 
z
" transform="scale(0.015625)"/>
      <path id="DejaVuSans-53" d="M 3425 4513 
L 3425 3897 
Q 3066 4069 2747 4153 
Q 2428 4238 2131 4238 
Q 1616 4238 1336 4038 
Q 1056 3838 1056 3469 
Q 1056 3159 1242 3001 
Q 1428 2844 1947 2747 
L 2328 2669 
Q 3034 2534 3370 2195 
Q 3706 1856 3706 1288 
Q 3706 609 3251 259 
Q 2797 -91 1919 -91 
Q 1588 -91 1214 -16 
Q 841 59 441 206 
L 441 856 
Q 825 641 1194 531 
Q 1563 422 1919 422 
Q 2459 422 2753 634 
Q 3047 847 3047 1241 
Q 3047 1584 2836 1778 
Q 2625 1972 2144 2069 
L 1759 2144 
Q 1053 2284 737 2584 
Q 422 2884 422 3419 
Q 422 4038 858 4394 
Q 1294 4750 2059 4750 
Q 2388 4750 2728 4690 
Q 3069 4631 3425 4513 
z
" transform="scale(0.015625)"/>
      <path id="DejaVuSans-56" d="M 1831 0 
L 50 4666 
L 709 4666 
L 2188 738 
L 3669 4666 
L 4325 4666 
L 2547 0 
L 1831 0 
z
" transform="scale(0.015625)"/>
     </defs>
     <use xlink:href="#DejaVuSans-7c" transform="translate(0 0.578125)"/>
     <use xlink:href="#DejaVuSans-53" transform="translate(33.691406 0.578125)"/>
     <use xlink:href="#DejaVuSans-53" transform="translate(97.167969 0.578125)"/>
     <use xlink:href="#DejaVuSans-56" transform="translate(160.644531 0.578125)"/>
     <use xlink:href="#DejaVuSans-7c" transform="translate(229.052734 0.578125)"/>
     <use xlink:href="#DejaVuSans-61" transform="translate(263.701172 -15.828125) scale(0.7)"/>
     <use xlink:href="#DejaVuSans-62" transform="translate(306.59668 -15.828125) scale(0.7)"/>
     <use xlink:href="#DejaVuSans-73" transform="translate(351.030273 -15.828125) scale(0.7)"/>
    </g>
   </g>
   <g id="text_7">
    <!-- Scalar: compressive SSV -->
    <g style="fill: #333333" transform="translate(97.317 208.25202) scale(0.1 -0.1)">
     <defs>
      <path id="DejaVuSerif-53" d="M 594 225 
L 594 1288 
L 953 1284 
Q 969 753 1261 498 
Q 1553 244 2150 244 
Q 2706 244 2998 464 
Q 3291 684 3291 1106 
Q 3291 1444 3114 1625 
Q 2938 1806 2369 1978 
L 1753 2163 
Q 1084 2366 811 2669 
Q 538 2972 538 3500 
Q 538 4094 959 4422 
Q 1381 4750 2144 4750 
Q 2469 4750 2856 4679 
Q 3244 4609 3681 4475 
L 3681 3481 
L 3328 3481 
Q 3275 3975 2998 4195 
Q 2722 4416 2156 4416 
Q 1663 4416 1405 4214 
Q 1147 4013 1147 3628 
Q 1147 3294 1340 3103 
Q 1534 2913 2163 2725 
L 2741 2553 
Q 3375 2363 3645 2067 
Q 3916 1772 3916 1275 
Q 3916 597 3481 253 
Q 3047 -91 2188 -91 
Q 1803 -91 1404 -12 
Q 1006 66 594 225 
z
" transform="scale(0.015625)"/>
      <path id="DejaVuSerif-3a" d="M 666 325 
Q 666 500 786 622 
Q 906 744 1081 744 
Q 1256 744 1376 622 
Q 1497 500 1497 325 
Q 1497 150 1378 29 
Q 1259 -91 1081 -91 
Q 903 -91 784 29 
Q 666 150 666 325 
z
M 666 2363 
Q 666 2538 786 2658 
Q 906 2778 1081 2778 
Q 1259 2778 1378 2659 
Q 1497 2541 1497 2363 
Q 1497 2184 1378 2065 
Q 1259 1947 1081 1947 
Q 906 1947 786 2067 
Q 666 2188 666 2363 
z
" transform="scale(0.015625)"/>
      <path id="DejaVuSerif-6d" d="M 3316 2675 
Q 3481 3041 3739 3227 
Q 3997 3413 4341 3413 
Q 4863 3413 5119 3089 
Q 5375 2766 5375 2113 
L 5375 331 
L 5894 331 
L 5894 0 
L 4300 0 
L 4300 331 
L 4800 331 
L 4800 2047 
Q 4800 2556 4650 2772 
Q 4500 2988 4153 2988 
Q 3769 2988 3567 2697 
Q 3366 2406 3366 1850 
L 3366 331 
L 3866 331 
L 3866 0 
L 2291 0 
L 2291 331 
L 2791 331 
L 2791 2069 
Q 2791 2566 2641 2777 
Q 2491 2988 2144 2988 
Q 1759 2988 1557 2697 
Q 1356 2406 1356 1850 
L 1356 331 
L 1856 331 
L 1856 0 
L 263 0 
L 263 331 
L 781 331 
L 781 2994 
L 231 2994 
L 231 3322 
L 1356 3322 
L 1356 2731 
Q 1516 3063 1762 3238 
Q 2009 3413 2322 3413 
Q 2709 3413 2968 3220 
Q 3228 3028 3316 2675 
z
" transform="scale(0.015625)"/>
      <path id="DejaVuSerif-70" d="M 1313 1825 
L 1313 1497 
Q 1313 897 1542 583 
Q 1772 269 2209 269 
Q 2650 269 2876 622 
Q 3103 975 3103 1663 
Q 3103 2353 2876 2703 
Q 2650 3053 2209 3053 
Q 1772 3053 1542 2737 
Q 1313 2422 1313 1825 
z
M 738 2988 
L 184 2988 
L 184 3322 
L 1313 3322 
L 1313 2803 
Q 1481 3116 1742 3264 
Q 2003 3413 2388 3413 
Q 3000 3413 3387 2928 
Q 3775 2444 3775 1663 
Q 3775 881 3387 395 
Q 3000 -91 2388 -91 
Q 2003 -91 1742 57 
Q 1481 206 1313 519 
L 1313 -997 
L 1856 -997 
L 1856 -1331 
L 184 -1331 
L 184 -997 
L 738 -997 
L 738 2988 
z
" transform="scale(0.015625)"/>
      <path id="DejaVuSerif-76" d="M 1581 0 
L 359 2988 
L -19 2988 
L -19 3322 
L 1509 3322 
L 1509 2988 
L 978 2988 
L 1913 703 
L 2847 2988 
L 2350 2988 
L 2350 3322 
L 3597 3322 
L 3597 2988 
L 3225 2988 
L 2003 0 
L 1581 0 
z
" transform="scale(0.015625)"/>
      <path id="DejaVuSerif-56" d="M 1119 4331 
L 2497 750 
L 3872 4331 
L 3347 4331 
L 3347 4666 
L 4716 4666 
L 4716 4331 
L 4263 4331 
L 2597 0 
L 2059 0 
L 403 4331 
L -63 4331 
L -63 4666 
L 1638 4666 
L 1638 4331 
L 1119 4331 
z
" transform="scale(0.015625)"/>
     </defs>
     <use xlink:href="#DejaVuSerif-53"/>
     <use xlink:href="#DejaVuSerif-63" transform="translate(68.505859 0)"/>
     <use xlink:href="#DejaVuSerif-61" transform="translate(124.511719 0)"/>
     <use xlink:href="#DejaVuSerif-6c" transform="translate(184.130859 0)"/>
     <use xlink:href="#DejaVuSerif-61" transform="translate(216.113281 0)"/>
     <use xlink:href="#DejaVuSerif-72" transform="translate(275.732422 0)"/>
     <use xlink:href="#DejaVuSerif-3a" transform="translate(323.535156 0)"/>
     <use xlink:href="#DejaVuSerif-20" transform="translate(357.226562 0)"/>
     <use xlink:href="#DejaVuSerif-63" transform="translate(389.013672 0)"/>
     <use xlink:href="#DejaVuSerif-6f" transform="translate(445.019531 0)"/>
     <use xlink:href="#DejaVuSerif-6d" transform="translate(505.224609 0)"/>
     <use xlink:href="#DejaVuSerif-70" transform="translate(600.048828 0)"/>
     <use xlink:href="#DejaVuSerif-72" transform="translate(664.0625 0)"/>
     <use xlink:href="#DejaVuSerif-65" transform="translate(711.865234 0)"/>
     <use xlink:href="#DejaVuSerif-73" transform="translate(771.044922 0)"/>
     <use xlink:href="#DejaVuSerif-73" transform="translate(822.363281 0)"/>
     <use xlink:href="#DejaVuSerif-69" transform="translate(873.681641 0)"/>
     <use xlink:href="#DejaVuSerif-76" transform="translate(905.664062 0)"/>
     <use xlink:href="#DejaVuSerif-65" transform="translate(962.158203 0)"/>
     <use xlink:href="#DejaVuSerif-20" transform="translate(1021.337891 0)"/>
     <use xlink:href="#DejaVuSerif-53" transform="translate(1053.125 0)"/>
     <use xlink:href="#DejaVuSerif-53" transform="translate(1119.880859 0)"/>
     <use xlink:href="#DejaVuSerif-56" transform="translate(1188.386719 0)"/>
    </g>
   </g>
   <g id="text_8">
    <!-- $\mathbf{SSV}_{\rm net}$ -->
    <g style="fill: #27ae60" transform="translate(41.3496 260.086476) scale(0.12 -0.12)">
     <defs>
      <path id="DejaVuSans-Bold-53" d="M 3834 4519 
L 3834 3531 
Q 3450 3703 3084 3790 
Q 2719 3878 2394 3878 
Q 1963 3878 1756 3759 
Q 1550 3641 1550 3391 
Q 1550 3203 1689 3098 
Q 1828 2994 2194 2919 
L 2706 2816 
Q 3484 2659 3812 2340 
Q 4141 2022 4141 1434 
Q 4141 663 3683 286 
Q 3225 -91 2284 -91 
Q 1841 -91 1394 -6 
Q 947 78 500 244 
L 500 1259 
Q 947 1022 1364 901 
Q 1781 781 2169 781 
Q 2563 781 2772 912 
Q 2981 1044 2981 1288 
Q 2981 1506 2839 1625 
Q 2697 1744 2272 1838 
L 1806 1941 
Q 1106 2091 782 2419 
Q 459 2747 459 3303 
Q 459 4000 909 4375 
Q 1359 4750 2203 4750 
Q 2588 4750 2994 4692 
Q 3400 4634 3834 4519 
z
" transform="scale(0.015625)"/>
      <path id="DejaVuSans-Bold-56" d="M 31 4666 
L 1241 4666 
L 2478 1222 
L 3713 4666 
L 4922 4666 
L 3194 0 
L 1759 0 
L 31 4666 
z
" transform="scale(0.015625)"/>
      <path id="DejaVuSans-6e" d="M 3513 2113 
L 3513 0 
L 2938 0 
L 2938 2094 
Q 2938 2591 2744 2837 
Q 2550 3084 2163 3084 
Q 1697 3084 1428 2787 
Q 1159 2491 1159 1978 
L 1159 0 
L 581 0 
L 581 3500 
L 1159 3500 
L 1159 2956 
Q 1366 3272 1645 3428 
Q 1925 3584 2291 3584 
Q 2894 3584 3203 3211 
Q 3513 2838 3513 2113 
z
" transform="scale(0.015625)"/>
      <path id="DejaVuSans-65" d="M 3597 1894 
L 3597 1613 
L 953 1613 
Q 991 1019 1311 708 
Q 1631 397 2203 397 
Q 2534 397 2845 478 
Q 3156 559 3463 722 
L 3463 178 
Q 3153 47 2828 -22 
Q 2503 -91 2169 -91 
Q 1331 -91 842 396 
Q 353 884 353 1716 
Q 353 2575 817 3079 
Q 1281 3584 2069 3584 
Q 2775 3584 3186 3129 
Q 3597 2675 3597 1894 
z
M 3022 2063 
Q 3016 2534 2758 2815 
Q 2500 3097 2075 3097 
Q 1594 3097 1305 2825 
Q 1016 2553 972 2059 
L 3022 2063 
z
" transform="scale(0.015625)"/>
      <path id="DejaVuSans-74" d="M 1172 4494 
L 1172 3500 
L 2356 3500 
L 2356 3053 
L 1172 3053 
L 1172 1153 
Q 1172 725 1289 603 
Q 1406 481 1766 481 
L 2356 481 
L 2356 0 
L 1766 0 
Q 1100 0 847 248 
Q 594 497 594 1153 
L 594 3053 
L 172 3053 
L 172 3500 
L 594 3500 
L 594 4494 
L 1172 4494 
z
" transform="scale(0.015625)"/>
     </defs>
     <use xlink:href="#DejaVuSans-Bold-53" transform="translate(0 0.78125)"/>
     <use xlink:href="#DejaVuSans-Bold-53" transform="translate(72.021484 0.78125)"/>
     <use xlink:href="#DejaVuSans-Bold-56" transform="translate(144.042969 0.78125)"/>
     <use xlink:href="#DejaVuSans-6e" transform="translate(222.392578 -15.625) scale(0.7)"/>
     <use xlink:href="#DejaVuSans-65" transform="translate(266.757812 -15.625) scale(0.7)"/>
     <use xlink:href="#DejaVuSans-74" transform="translate(309.824219 -15.625) scale(0.7)"/>
    </g>
   </g>
   <g id="text_9">
    <!-- Vector: net SSV direction -->
    <g style="fill: #333333" transform="translate(97.317 259.534601) scale(0.1 -0.1)">
     <use xlink:href="#DejaVuSerif-56"/>
     <use xlink:href="#DejaVuSerif-65" transform="translate(63.091797 0)"/>
     <use xlink:href="#DejaVuSerif-63" transform="translate(122.271484 0)"/>
     <use xlink:href="#DejaVuSerif-74" transform="translate(178.277344 0)"/>
     <use xlink:href="#DejaVuSerif-6f" transform="translate(218.462891 0)"/>
     <use xlink:href="#DejaVuSerif-72" transform="translate(278.667969 0)"/>
     <use xlink:href="#DejaVuSerif-3a" transform="translate(326.470703 0)"/>
     <use xlink:href="#DejaVuSerif-20" transform="translate(360.162109 0)"/>
     <use xlink:href="#DejaVuSerif-6e" transform="translate(391.949219 0)"/>
     <use xlink:href="#DejaVuSerif-65" transform="translate(456.353516 0)"/>
     <use xlink:href="#DejaVuSerif-74" transform="translate(515.533203 0)"/>
     <use xlink:href="#DejaVuSerif-20" transform="translate(555.71875 0)"/>
     <use xlink:href="#DejaVuSerif-53" transform="translate(587.505859 0)"/>
     <use xlink:href="#DejaVuSerif-53" transform="translate(654.261719 0)"/>
     <use xlink:href="#DejaVuSerif-56" transform="translate(722.767578 0)"/>
     <use xlink:href="#DejaVuSerif-20" transform="translate(794.984375 0)"/>
     <use xlink:href="#DejaVuSerif-64" transform="translate(826.771484 0)"/>
     <use xlink:href="#DejaVuSerif-69" transform="translate(890.785156 0)"/>
     <use xlink:href="#DejaVuSerif-72" transform="translate(922.767578 0)"/>
     <use xlink:href="#DejaVuSerif-65" transform="translate(970.570312 0)"/>
     <use xlink:href="#DejaVuSerif-63" transform="translate(1029.75 0)"/>
     <use xlink:href="#DejaVuSerif-74" transform="translate(1085.755859 0)"/>
     <use xlink:href="#DejaVuSerif-69" transform="translate(1125.941406 0)"/>
     <use xlink:href="#DejaVuSerif-6f" transform="translate(1157.923828 0)"/>
     <use xlink:href="#DejaVuSerif-6e" transform="translate(1218.128906 0)"/>
    </g>
   </g>
   <g id="text_10">
    <!-- Metric tensor $g_{\mu\nu}$ -->
    <g style="fill: #5a3e8a" transform="translate(322.529 67.907758) scale(0.115 -0.115)">
     <defs>
      <path id="DejaVuSerif-Bold-4d" d="M 269 0 
L 269 378 
L 863 378 
L 863 4288 
L 269 4288 
L 269 4666 
L 2194 4666 
L 3525 1672 
L 4863 4666 
L 6784 4666 
L 6784 4288 
L 6188 4288 
L 6188 378 
L 6784 378 
L 6784 0 
L 4384 0 
L 4384 378 
L 4978 378 
L 4978 3938 
L 3531 684 
L 2741 684 
L 1300 3938 
L 1300 378 
L 1894 378 
L 1894 0 
L 269 0 
z
" transform="scale(0.015625)"/>
      <path id="DejaVuSerif-Bold-72" d="M 3438 3359 
L 3438 2369 
L 3084 2369 
Q 3066 2634 2941 2764 
Q 2816 2894 2578 2894 
Q 2216 2894 2006 2575 
Q 1797 2256 1797 1691 
L 1797 378 
L 2400 378 
L 2400 0 
L 219 0 
L 219 378 
L 691 378 
L 691 2944 
L 184 2944 
L 184 3322 
L 1797 3322 
L 1797 2731 
Q 1959 3078 2226 3245 
Q 2494 3413 2881 3413 
Q 2978 3413 3117 3398 
Q 3256 3384 3438 3359 
z
" transform="scale(0.015625)"/>
      <path id="DejaVuSerif-Bold-6e" d="M 219 0 
L 219 378 
L 691 378 
L 691 2944 
L 219 2944 
L 219 3322 
L 1797 3322 
L 1797 2853 
Q 1997 3150 2253 3281 
Q 2509 3413 2900 3413 
Q 3459 3413 3745 3083 
Q 4031 2753 4031 2113 
L 4031 378 
L 4506 378 
L 4506 0 
L 2522 0 
L 2522 378 
L 2925 378 
L 2925 2144 
Q 2925 2566 2817 2730 
Q 2709 2894 2444 2894 
Q 2109 2894 1953 2648 
Q 1797 2403 1797 1869 
L 1797 378 
L 2203 378 
L 2203 0 
L 219 0 
z
" transform="scale(0.015625)"/>
      <path id="DejaVuSerif-Bold-73" d="M 300 97 
L 300 1025 
L 653 1025 
Q 697 653 931 458 
Q 1166 263 1569 263 
Q 1906 263 2086 380 
Q 2266 497 2266 716 
Q 2266 916 2152 1025 
Q 2038 1134 1709 1216 
L 1253 1331 
Q 738 1459 506 1698 
Q 275 1938 275 2344 
Q 275 2884 650 3148 
Q 1025 3413 1806 3413 
Q 2100 3413 2433 3364 
Q 2766 3316 3169 3213 
L 3169 2375 
L 2816 2375 
Q 2788 2716 2573 2887 
Q 2359 3059 1959 3059 
Q 1622 3059 1448 2951 
Q 1275 2844 1275 2638 
Q 1275 2469 1375 2372 
Q 1475 2275 1734 2209 
L 2188 2094 
Q 2841 1928 3091 1684 
Q 3341 1441 3341 1006 
Q 3341 444 2939 176 
Q 2538 -91 1691 -91 
Q 1381 -91 1034 -44 
Q 688 3 300 97 
z
" transform="scale(0.015625)"/>
      <path id="DejaVuSerif-Bold-6f" d="M 2138 263 
Q 2488 263 2630 563 
Q 2772 863 2772 1663 
Q 2772 2463 2631 2761 
Q 2491 3059 2138 3059 
Q 1784 3059 1640 2757 
Q 1497 2456 1497 1663 
Q 1497 869 1640 566 
Q 1784 263 2138 263 
z
M 2138 -91 
Q 1259 -91 761 376 
Q 263 844 263 1663 
Q 263 2484 761 2948 
Q 1259 3413 2138 3413 
Q 3019 3413 3516 2948 
Q 4013 2484 4013 1663 
Q 4013 844 3514 376 
Q 3016 -91 2138 -91 
z
" transform="scale(0.015625)"/>
      <path id="DejaVuSans-Oblique-67" d="M 3816 3500 
L 3219 434 
Q 3047 -456 2561 -893 
Q 2075 -1331 1253 -1331 
Q 950 -1331 690 -1286 
Q 431 -1241 206 -1147 
L 313 -588 
Q 525 -725 762 -790 
Q 1000 -856 1269 -856 
Q 1816 -856 2167 -557 
Q 2519 -259 2631 300 
L 2681 563 
Q 2441 288 2122 144 
Q 1803 0 1434 0 
Q 903 0 598 351 
Q 294 703 294 1319 
Q 294 1803 478 2267 
Q 663 2731 997 3091 
Q 1219 3328 1514 3456 
Q 1809 3584 2131 3584 
Q 2484 3584 2746 3420 
Q 3009 3256 3138 2956 
L 3238 3500 
L 3816 3500 
z
M 2950 2216 
Q 2950 2641 2750 2872 
Q 2550 3103 2181 3103 
Q 1953 3103 1747 3012 
Q 1541 2922 1394 2759 
Q 1156 2491 1023 2127 
Q 891 1763 891 1375 
Q 891 944 1092 712 
Q 1294 481 1672 481 
Q 2219 481 2584 976 
Q 2950 1472 2950 2216 
z
" transform="scale(0.015625)"/>
      <path id="DejaVuSans-Oblique-3bc" d="M -84 -1331 
L 856 3500 
L 1434 3500 
L 1009 1322 
Q 997 1256 987 1175 
Q 978 1094 978 1013 
Q 978 722 1161 565 
Q 1344 409 1684 409 
Q 2147 409 2431 671 
Q 2716 934 2816 1459 
L 3213 3500 
L 3788 3500 
L 3266 809 
Q 3253 750 3248 706 
Q 3244 663 3244 628 
Q 3244 531 3283 486 
Q 3322 441 3406 441 
Q 3438 441 3492 456 
Q 3547 472 3647 513 
L 3559 50 
Q 3422 -19 3297 -55 
Q 3172 -91 3053 -91 
Q 2847 -91 2730 40 
Q 2613 172 2613 403 
Q 2438 153 2195 31 
Q 1953 -91 1625 -91 
Q 1334 -91 1117 43 
Q 900 178 831 397 
L 494 -1331 
L -84 -1331 
z
" transform="scale(0.015625)"/>
      <path id="DejaVuSans-Oblique-3bd" d="M 959 0 
L 572 3500 
L 1191 3500 
L 1522 563 
Q 1972 950 2391 1488 
Q 2706 1891 2788 2241 
Q 2825 2406 2809 2719 
Q 2794 3091 2544 3500 
L 3125 3500 
L 3125 3500 
Q 3288 3222 3353 2834 
Q 3416 2478 3369 2234 
Q 3250 1622 2719 1075 
Q 2025 363 1572 0 
L 959 0 
z
" transform="scale(0.015625)"/>
     </defs>
     <use xlink:href="#DejaVuSerif-Bold-4d" transform="translate(0 0.015625)"/>
     <use xlink:href="#DejaVuSerif-Bold-65" transform="translate(110.693359 0.015625)"/>
     <use xlink:href="#DejaVuSerif-Bold-74" transform="translate(174.316406 0.015625)"/>
     <use xlink:href="#DejaVuSerif-Bold-72" transform="translate(220.507812 0.015625)"/>
     <use xlink:href="#DejaVuSerif-Bold-69" transform="translate(273.193359 0.015625)"/>
     <use xlink:href="#DejaVuSerif-Bold-63" transform="translate(311.181641 0.015625)"/>
     <use xlink:href="#DejaVuSerif-Bold-20" transform="translate(372.070312 0.015625)"/>
     <use xlink:href="#DejaVuSerif-Bold-74" transform="translate(406.884766 0.015625)"/>
     <use xlink:href="#DejaVuSerif-Bold-65" transform="translate(453.076172 0.015625)"/>
     <use xlink:href="#DejaVuSerif-Bold-6e" transform="translate(516.699219 0.015625)"/>
     <use xlink:href="#DejaVuSerif-Bold-73" transform="translate(589.404297 0.015625)"/>
     <use xlink:href="#DejaVuSerif-Bold-6f" transform="translate(645.703125 0.015625)"/>
     <use xlink:href="#DejaVuSerif-Bold-72" transform="translate(712.402344 0.015625)"/>
     <use xlink:href="#DejaVuSerif-Bold-20" transform="translate(765.087891 0.015625)"/>
     <use xlink:href="#DejaVuSans-Oblique-67" transform="translate(799.902344 0.015625)"/>
     <use xlink:href="#DejaVuSans-Oblique-3bc" transform="translate(863.378906 -16.390625) scale(0.7)"/>
     <use xlink:href="#DejaVuSans-Oblique-3bd" transform="translate(907.915039 -16.390625) scale(0.7)"/>
    </g>
   </g>
   <g id="text_11">
    <!-- $g_{tt} = 1 - \frac{2GM}{rc^2}$ -->
    <g style="fill: #c0392b" transform="translate(298.8945 140.958406) scale(0.11 -0.11)">
     <defs>
      <path id="DejaVuSans-3d" d="M 678 2906 
L 4684 2906 
L 4684 2381 
L 678 2381 
L 678 2906 
z
M 678 1631 
L 4684 1631 
L 4684 1100 
L 678 1100 
L 678 1631 
z
" transform="scale(0.015625)"/>
      <path id="DejaVuSans-31" d="M 794 531 
L 1825 531 
L 1825 4091 
L 703 3866 
L 703 4441 
L 1819 4666 
L 2450 4666 
L 2450 531 
L 3481 531 
L 3481 0 
L 794 0 
L 794 531 
z
" transform="scale(0.015625)"/>
      <path id="DejaVuSans-2212" d="M 678 2272 
L 4684 2272 
L 4684 1741 
L 678 1741 
L 678 2272 
z
" transform="scale(0.015625)"/>
      <path id="DejaVuSans-32" d="M 1228 531 
L 3431 531 
L 3431 0 
L 469 0 
L 469 531 
Q 828 903 1448 1529 
Q 2069 2156 2228 2338 
Q 2531 2678 2651 2914 
Q 2772 3150 2772 3378 
Q 2772 3750 2511 3984 
Q 2250 4219 1831 4219 
Q 1534 4219 1204 4116 
Q 875 4013 500 3803 
L 500 4441 
Q 881 4594 1212 4672 
Q 1544 4750 1819 4750 
Q 2544 4750 2975 4387 
Q 3406 4025 3406 3419 
Q 3406 3131 3298 2873 
Q 3191 2616 2906 2266 
Q 2828 2175 2409 1742 
Q 1991 1309 1228 531 
z
" transform="scale(0.015625)"/>
      <path id="DejaVuSans-Oblique-47" d="M 3494 697 
L 3738 1919 
L 2700 1919 
L 2797 2438 
L 4453 2438 
L 4050 384 
Q 3634 156 3143 32 
Q 2653 -91 2156 -91 
Q 1278 -91 783 396 
Q 288 884 288 1753 
Q 288 2475 589 3126 
Q 891 3778 1422 4213 
Q 1756 4484 2153 4617 
Q 2550 4750 3034 4750 
Q 3472 4750 3873 4639 
Q 4275 4528 4641 4306 
L 4513 3634 
Q 4231 3928 3853 4083 
Q 3475 4238 3047 4238 
Q 2550 4238 2172 4048 
Q 1794 3859 1497 3463 
Q 1244 3125 1098 2667 
Q 953 2209 953 1734 
Q 953 1081 1287 751 
Q 1622 422 2284 422 
Q 2616 422 2925 492 
Q 3234 563 3494 697 
z
" transform="scale(0.015625)"/>
      <path id="DejaVuSans-Oblique-4d" d="M 1081 4666 
L 2028 4666 
L 2572 1522 
L 4378 4666 
L 5350 4666 
L 4441 0 
L 3828 0 
L 4622 4091 
L 2791 897 
L 2175 897 
L 1581 4103 
L 788 0 
L 172 0 
L 1081 4666 
z
" transform="scale(0.015625)"/>
      <path id="DejaVuSans-Oblique-72" d="M 2853 2969 
Q 2766 3016 2653 3041 
Q 2541 3066 2413 3066 
Q 1953 3066 1609 2717 
Q 1266 2369 1153 1784 
L 800 0 
L 225 0 
L 909 3500 
L 1484 3500 
L 1375 2956 
Q 1603 3259 1920 3421 
Q 2238 3584 2597 3584 
Q 2691 3584 2781 3573 
Q 2872 3563 2963 3538 
L 2853 2969 
z
" transform="scale(0.015625)"/>
      <path id="DejaVuSans-Oblique-63" d="M 3431 3366 
L 3316 2797 
Q 3109 2947 2876 3022 
Q 2644 3097 2394 3097 
Q 2119 3097 1870 3000 
Q 1622 2903 1453 2725 
Q 1184 2453 1037 2087 
Q 891 1722 891 1331 
Q 891 859 1127 628 
Q 1363 397 1844 397 
Q 2081 397 2348 469 
Q 2616 541 2906 684 
L 2797 116 
Q 2547 13 2283 -39 
Q 2019 -91 1741 -91 
Q 1044 -91 669 257 
Q 294 606 294 1253 
Q 294 1797 489 2255 
Q 684 2713 1069 3078 
Q 1331 3328 1684 3456 
Q 2038 3584 2456 3584 
Q 2700 3584 2940 3529 
Q 3181 3475 3431 3366 
z
" transform="scale(0.015625)"/>
     </defs>
     <use xlink:href="#DejaVuSans-Oblique-67" transform="translate(0 0.254687)"/>
     <use xlink:href="#DejaVuSans-Oblique-74" transform="translate(63.476562 -16.151563) scale(0.7)"/>
     <use xlink:href="#DejaVuSans-Oblique-74" transform="translate(90.922852 -16.151563) scale(0.7)"/>
     <use xlink:href="#DejaVuSans-3d" transform="translate(140.585938 0.254687)"/>
     <use xlink:href="#DejaVuSans-31" transform="translate(243.857422 0.254687)"/>
     <use xlink:href="#DejaVuSans-2212" transform="translate(326.962891 0.254687)"/>
     <use xlink:href="#DejaVuSans-32" transform="translate(430.234375 45.046875) scale(0.7)"/>
     <use xlink:href="#DejaVuSans-Oblique-47" transform="translate(474.770508 45.046875) scale(0.7)"/>
     <use xlink:href="#DejaVuSans-Oblique-4d" transform="translate(529.013672 45.046875) scale(0.7)"/>
     <use xlink:href="#DejaVuSans-Oblique-72" transform="translate(458.234375 -50.3625) scale(0.7)"/>
     <use xlink:href="#DejaVuSans-Oblique-63" transform="translate(487.013672 -50.3625) scale(0.7)"/>
     <use xlink:href="#DejaVuSans-32" transform="translate(528.754927 -23.565625) scale(0.49)"/>
     <path d="M 430.234375 19.051563 
L 430.234375 25.301563 
L 589.40918 25.301563 
L 589.40918 19.051563 
L 430.234375 19.051563 
z
"/>
    </g>
   </g>
   <g id="text_12">
    <!-- Time dilation -->
    <g style="fill: #555555" transform="translate(298.8945 168.455522) scale(0.095 -0.095)">
     <defs>
      <path id="DejaVuSerif-Italic-54" d="M 769 0 
L 831 331 
L 1428 331 
L 2200 4294 
L 828 4294 
L 688 3566 
L 303 3566 
L 516 4666 
L 4659 4666 
L 4447 3566 
L 4063 3566 
L 4203 4294 
L 2831 4294 
L 2059 331 
L 2656 331 
L 2594 0 
L 769 0 
z
" transform="scale(0.015625)"/>
      <path id="DejaVuSerif-Italic-69" d="M 1009 4353 
Q 1038 4497 1163 4603 
Q 1288 4709 1434 4709 
Q 1578 4709 1663 4603 
Q 1728 4522 1728 4422 
Q 1728 4388 1719 4353 
Q 1691 4206 1567 4103 
Q 1444 4000 1297 4000 
Q 1150 4000 1066 4103 
Q 1003 4181 1003 4281 
Q 1003 4316 1009 4353 
z
M 963 331 
L 1506 331 
L 1444 0 
L 325 0 
L 903 2988 
L 353 2988 
L 419 3322 
L 1544 3322 
L 963 331 
z
" transform="scale(0.015625)"/>
      <path id="DejaVuSerif-Italic-6d" d="M 3503 2675 
Q 3741 3041 4034 3227 
Q 4328 3413 4672 3413 
Q 5194 3413 5388 3088 
Q 5503 2894 5503 2578 
Q 5503 2372 5453 2113 
L 5106 331 
L 5625 331 
L 5563 0 
L 4469 0 
L 4866 2047 
Q 4913 2291 4913 2466 
Q 4913 2659 4856 2772 
Q 4750 2988 4403 2988 
Q 4019 2988 3761 2697 
Q 3503 2406 3394 1850 
L 3034 0 
L 2459 0 
L 2863 2069 
Q 2906 2303 2906 2472 
Q 2906 2666 2850 2775 
Q 2741 2988 2394 2988 
Q 2009 2988 1751 2697 
Q 1494 2406 1384 1850 
L 1025 0 
L 450 0 
L 1031 2994 
L 481 2994 
L 544 3322 
L 1669 3322 
L 1556 2731 
Q 1778 3063 2059 3238 
Q 2341 3413 2653 3413 
Q 3041 3413 3262 3220 
Q 3484 3028 3503 2675 
z
" transform="scale(0.015625)"/>
      <path id="DejaVuSerif-Italic-65" d="M 938 1275 
Q 925 1156 925 1050 
Q 925 756 1031 563 
Q 1216 219 1709 219 
Q 2072 219 2250 328 
Q 2569 525 2644 778 
L 3066 778 
Q 2941 381 2475 103 
Q 2150 -91 1506 -91 
Q 863 -91 516 388 
Q 272 722 272 1206 
Q 272 1419 319 1659 
Q 472 2450 1000 2931 
Q 1528 3413 2278 3413 
Q 3500 3413 3500 2547 
Q 3500 1913 2859 1603 
Q 2206 1288 938 1275 
z
M 2541 1975 
Q 2891 2181 2891 2569 
Q 2891 3103 2181 3103 
Q 1763 3103 1472 2784 
Q 1181 2466 1003 1606 
Q 2006 1653 2541 1975 
z
" transform="scale(0.015625)"/>
      <path id="DejaVuSerif-Italic-20" transform="scale(0.015625)"/>
      <path id="DejaVuSerif-Italic-64" d="M 3841 4863 
L 2897 0 
L 2322 0 
L 2422 519 
Q 2191 206 1902 57 
Q 1613 -91 1228 -91 
Q 616 -91 322 394 
Q 125 716 125 1166 
Q 125 1397 178 1663 
Q 331 2444 812 2928 
Q 1294 3413 1909 3413 
Q 2294 3413 2525 3264 
Q 2756 3116 2866 2803 
L 3200 4531 
L 2656 4531 
L 2722 4863 
L 3841 4863 
z
M 2613 1497 
L 2675 1825 
Q 2722 2069 2722 2266 
Q 2722 2550 2622 2738 
Q 2456 3053 2019 3053 
Q 1575 3053 1279 2703 
Q 984 2353 850 1663 
Q 788 1347 788 1103 
Q 788 813 875 622 
Q 1031 269 1475 269 
Q 1913 269 2203 583 
Q 2494 897 2613 1497 
z
" transform="scale(0.015625)"/>
      <path id="DejaVuSerif-Italic-6c" d="M 903 331 
L 1447 331 
L 1384 0 
L 266 0 
L 1147 4531 
L 594 4531 
L 656 4863 
L 1784 4863 
L 903 331 
z
" transform="scale(0.015625)"/>
      <path id="DejaVuSerif-Italic-61" d="M 2325 519 
Q 1909 -91 1238 -91 
Q 688 -91 409 281 
Q 216 544 216 919 
Q 216 1078 250 1256 
Q 463 2359 1231 2928 
Q 1884 3413 2675 3413 
Q 3206 3413 3388 3322 
L 2806 331 
L 3300 331 
L 3238 0 
L 2225 0 
L 2325 519 
z
M 822 938 
Q 822 269 1469 269 
Q 1863 269 2130 583 
Q 2397 897 2516 1497 
L 2806 3003 
L 2806 3003 
Q 2806 3094 2556 3094 
Q 1956 3094 1491 2625 
Q 1028 2153 863 1297 
Q 822 1097 822 938 
z
" transform="scale(0.015625)"/>
      <path id="DejaVuSerif-Italic-74" d="M 856 2988 
L 350 2988 
L 416 3322 
L 922 3322 
L 1122 4353 
L 1700 4353 
L 1500 3322 
L 2581 3322 
L 2516 2988 
L 1434 2988 
L 1025 878 
Q 978 631 978 488 
Q 978 388 1000 338 
Q 1059 219 1278 219 
Q 1503 219 1633 351 
Q 1763 484 1825 781 
L 2259 781 
Q 2147 328 1884 118 
Q 1622 -91 1169 -91 
Q 672 -91 506 131 
Q 406 266 406 516 
Q 406 675 447 878 
L 856 2988 
z
" transform="scale(0.015625)"/>
      <path id="DejaVuSerif-Italic-6f" d="M 1644 219 
Q 2106 219 2414 584 
Q 2722 950 2859 1663 
Q 2922 1988 2922 2241 
Q 2922 2541 2834 2738 
Q 2669 3103 2206 3103 
Q 1744 3103 1436 2739 
Q 1128 2375 991 1663 
Q 928 1338 928 1088 
Q 928 784 1019 584 
Q 1184 219 1644 219 
z
M 1584 -91 
Q 859 -91 513 388 
Q 272 722 272 1203 
Q 272 1419 319 1663 
Q 472 2456 1005 2934 
Q 1538 3413 2266 3413 
Q 2994 3413 3341 2934 
Q 3578 2603 3578 2122 
Q 3578 1906 3531 1663 
Q 3378 869 2845 389 
Q 2313 -91 1584 -91 
z
" transform="scale(0.015625)"/>
      <path id="DejaVuSerif-Italic-6e" d="M 450 0 
L 1031 2988 
L 481 2988 
L 544 3322 
L 1669 3322 
L 1556 2731 
Q 1781 3069 2068 3241 
Q 2356 3413 2694 3413 
Q 3244 3413 3444 3097 
Q 3563 2906 3563 2588 
Q 3563 2378 3509 2113 
L 3163 331 
L 3675 331 
L 3613 0 
L 2522 0 
L 2897 1931 
Q 2959 2253 2959 2469 
Q 2959 2659 2909 2769 
Q 2803 2994 2425 2994 
Q 2025 2994 1759 2701 
Q 1494 2409 1384 1850 
L 1025 0 
L 450 0 
z
" transform="scale(0.015625)"/>
     </defs>
     <use xlink:href="#DejaVuSerif-Italic-54"/>
     <use xlink:href="#DejaVuSerif-Italic-69" transform="translate(66.699219 0)"/>
     <use xlink:href="#DejaVuSerif-Italic-6d" transform="translate(98.681641 0)"/>
     <use xlink:href="#DejaVuSerif-Italic-65" transform="translate(193.505859 0)"/>
     <use xlink:href="#DejaVuSerif-Italic-20" transform="translate(252.685547 0)"/>
     <use xlink:href="#DejaVuSerif-Italic-64" transform="translate(284.472656 0)"/>
     <use xlink:href="#DejaVuSerif-Italic-69" transform="translate(348.486328 0)"/>
     <use xlink:href="#DejaVuSerif-Italic-6c" transform="translate(380.46875 0)"/>
     <use xlink:href="#DejaVuSerif-Italic-61" transform="translate(412.451172 0)"/>
     <use xlink:href="#DejaVuSerif-Italic-74" transform="translate(472.070312 0)"/>
     <use xlink:href="#DejaVuSerif-Italic-69" transform="translate(512.255859 0)"/>
     <use xlink:href="#DejaVuSerif-Italic-6f" transform="translate(544.238281 0)"/>
     <use xlink:href="#DejaVuSerif-Italic-6e" transform="translate(604.443359 0)"/>
    </g>
   </g>
   <g id="text_13">
    <!-- $g_{rr} = 1 + \frac{2GM}{rc^2}$ -->
    <g style="fill: #27ae60" transform="translate(298.8945 216.172858) scale(0.11 -0.11)">
     <defs>
      <path id="DejaVuSans-2b" d="M 2944 4013 
L 2944 2272 
L 4684 2272 
L 4684 1741 
L 2944 1741 
L 2944 0 
L 2419 0 
L 2419 1741 
L 678 1741 
L 678 2272 
L 2419 2272 
L 2419 4013 
L 2944 4013 
z
" transform="scale(0.015625)"/>
     </defs>
     <use xlink:href="#DejaVuSans-Oblique-67" transform="translate(0 0.254687)"/>
     <use xlink:href="#DejaVuSans-Oblique-72" transform="translate(63.476562 -16.151563) scale(0.7)"/>
     <use xlink:href="#DejaVuSans-Oblique-72" transform="translate(92.255859 -16.151563) scale(0.7)"/>
     <use xlink:href="#DejaVuSans-3d" transform="translate(143.251953 0.254687)"/>
     <use xlink:href="#DejaVuSans-31" transform="translate(246.523438 0.254687)"/>
     <use xlink:href="#DejaVuSans-2b" transform="translate(329.628906 0.254687)"/>
     <use xlink:href="#DejaVuSans-32" transform="translate(432.900391 45.046875) scale(0.7)"/>
     <use xlink:href="#DejaVuSans-Oblique-47" transform="translate(477.436523 45.046875) scale(0.7)"/>
     <use xlink:href="#DejaVuSans-Oblique-4d" transform="translate(531.679688 45.046875) scale(0.7)"/>
     <use xlink:href="#DejaVuSans-Oblique-72" transform="translate(460.900391 -50.3625) scale(0.7)"/>
     <use xlink:href="#DejaVuSans-Oblique-63" transform="translate(489.679688 -50.3625) scale(0.7)"/>
     <use xlink:href="#DejaVuSans-32" transform="translate(531.420943 -23.565625) scale(0.49)"/>
     <path d="M 432.900391 19.051563 
L 432.900391 25.301563 
L 592.075195 25.301563 
L 592.075195 19.051563 
L 432.900391 19.051563 
z
"/>
    </g>
   </g>
   <g id="text_14">
    <!-- Spatial curvature -->
    <g style="fill: #555555" transform="translate(298.8945 243.669974) scale(0.095 -0.095)">
     <defs>
      <path id="DejaVuSerif-Italic-53" d="M 184 225 
L 391 1288 
L 750 1284 
Q 663 753 905 498 
Q 1147 244 1744 244 
Q 2300 244 2636 464 
Q 2972 684 3053 1106 
Q 3119 1444 2976 1625 
Q 2834 1806 2300 1978 
L 1722 2163 
Q 1091 2366 877 2669 
Q 663 2972 766 3500 
Q 881 4094 1367 4422 
Q 1853 4750 2616 4750 
Q 2941 4750 3314 4679 
Q 3688 4609 4097 4475 
L 3906 3481 
L 3553 3481 
Q 3594 3975 3361 4195 
Q 3128 4416 2563 4416 
Q 2069 4416 1772 4214 
Q 1475 4013 1400 3628 
Q 1334 3294 1490 3103 
Q 1647 2913 2241 2725 
L 2784 2553 
Q 3381 2363 3593 2067 
Q 3806 1772 3709 1275 
Q 3578 597 3076 253 
Q 2575 -91 1716 -91 
Q 1331 -91 948 -12 
Q 566 66 184 225 
z
" transform="scale(0.015625)"/>
      <path id="DejaVuSerif-Italic-70" d="M 1466 1825 
L 1400 1497 
Q 1353 1250 1353 1053 
Q 1353 769 1453 581 
Q 1622 269 2059 269 
Q 2500 269 2795 622 
Q 3091 975 3225 1663 
Q 3284 1978 3284 2225 
Q 3284 2513 3200 2703 
Q 3041 3053 2600 3053 
Q 2163 3053 1872 2737 
Q 1581 2422 1466 1825 
z
M 1116 2988 
L 563 2988 
L 628 3322 
L 1756 3322 
L 1656 2803 
Q 1884 3116 2175 3264 
Q 2466 3413 2850 3413 
Q 3463 3413 3753 2928 
Q 3947 2609 3947 2163 
Q 3947 1928 3897 1663 
Q 3744 881 3262 395 
Q 2781 -91 2169 -91 
Q 1784 -91 1551 57 
Q 1319 206 1213 519 
L 850 -1331 
L 275 -1331 
L 1116 2988 
z
" transform="scale(0.015625)"/>
      <path id="DejaVuSerif-Italic-63" d="M 3163 997 
Q 2938 466 2536 187 
Q 2134 -91 1584 -91 
Q 859 -91 513 388 
Q 272 722 272 1203 
Q 272 1419 319 1663 
Q 475 2459 1008 2936 
Q 1541 3413 2266 3413 
Q 2581 3413 2879 3339 
Q 3178 3266 3463 3116 
L 3300 2266 
L 2966 2266 
Q 2966 2309 2966 2347 
Q 2966 2722 2803 2903 
Q 2622 3103 2213 3103 
Q 1747 3103 1439 2742 
Q 1131 2381 991 1663 
Q 928 1334 928 1078 
Q 928 778 1016 581 
Q 1181 219 1650 219 
Q 2022 219 2281 412 
Q 2541 606 2700 997 
L 3163 997 
z
" transform="scale(0.015625)"/>
      <path id="DejaVuSerif-Italic-75" d="M 3097 3322 
L 3672 3322 
L 3091 331 
L 3634 331 
L 3572 0 
L 2453 0 
L 2566 588 
Q 2341 256 2055 82 
Q 1769 -91 1434 -91 
Q 881 -91 681 225 
Q 559 413 559 734 
Q 559 944 613 1209 
L 956 2988 
L 438 2988 
L 503 3322 
L 1600 3322 
L 1225 1388 
Q 1163 1066 1163 853 
Q 1163 663 1213 556 
Q 1316 331 1697 331 
Q 2097 331 2364 625 
Q 2631 919 2738 1478 
L 3097 3322 
z
" transform="scale(0.015625)"/>
      <path id="DejaVuSerif-Italic-72" d="M 3375 3328 
L 3213 2497 
L 2881 2497 
Q 2891 2559 2891 2613 
Q 2891 2775 2816 2866 
Q 2719 2988 2484 2988 
Q 2059 2988 1775 2694 
Q 1491 2400 1384 1850 
L 1025 0 
L 450 0 
L 1031 2994 
L 481 2994 
L 544 3322 
L 1669 3322 
L 1556 2731 
Q 1791 3078 2089 3245 
Q 2388 3413 2769 3413 
Q 2909 3413 3059 3391 
Q 3209 3369 3375 3328 
z
" transform="scale(0.015625)"/>
      <path id="DejaVuSerif-Italic-76" d="M 1681 0 
L 1259 0 
L 619 2988 
L 241 2988 
L 303 3322 
L 1163 3322 
L 1725 703 
Q 2084 1016 2325 1413 
Q 2825 2238 3003 2988 
L 2622 2988 
L 2688 3322 
L 3547 3322 
Q 3206 2034 2775 1313 
Q 2400 688 1681 0 
z
" transform="scale(0.015625)"/>
     </defs>
     <use xlink:href="#DejaVuSerif-Italic-53"/>
     <use xlink:href="#DejaVuSerif-Italic-70" transform="translate(68.505859 0)"/>
     <use xlink:href="#DejaVuSerif-Italic-61" transform="translate(132.519531 0)"/>
     <use xlink:href="#DejaVuSerif-Italic-74" transform="translate(192.138672 0)"/>
     <use xlink:href="#DejaVuSerif-Italic-69" transform="translate(232.324219 0)"/>
     <use xlink:href="#DejaVuSerif-Italic-61" transform="translate(264.306641 0)"/>
     <use xlink:href="#DejaVuSerif-Italic-6c" transform="translate(323.925781 0)"/>
     <use xlink:href="#DejaVuSerif-Italic-20" transform="translate(355.908203 0)"/>
     <use xlink:href="#DejaVuSerif-Italic-63" transform="translate(387.695312 0)"/>
     <use xlink:href="#DejaVuSerif-Italic-75" transform="translate(443.701172 0)"/>
     <use xlink:href="#DejaVuSerif-Italic-72" transform="translate(508.105469 0)"/>
     <use xlink:href="#DejaVuSerif-Italic-76" transform="translate(555.908203 0)"/>
     <use xlink:href="#DejaVuSerif-Italic-61" transform="translate(612.402344 0)"/>
     <use xlink:href="#DejaVuSerif-Italic-74" transform="translate(672.021484 0)"/>
     <use xlink:href="#DejaVuSerif-Italic-75" transform="translate(712.207031 0)"/>
     <use xlink:href="#DejaVuSerif-Italic-72" transform="translate(776.611328 0)"/>
     <use xlink:href="#DejaVuSerif-Italic-65" transform="translate(824.414062 0)"/>
    </g>
   </g>
   <g id="patch_4">
    <path d="M 226.594237 203.907605 
Q 254.973008 167.35787 296.332326 152.236035 
" style="fill: none; stroke: #c0392b; stroke-width: 2; stroke-linecap: round"/>
    <path d="M 291.44442 151.68072 
L 296.332326 152.236035 
L 292.95533 155.813171 
" style="fill: none; stroke: #c0392b; stroke-width: 2; stroke-linecap: round"/>
   </g>
   <g id="text_15">
    <g id="patch_5">
     <path d="M 244.737 171.369116 
L 281.907 171.369116 
L 281.907 160.299116 
L 244.737 160.299116 
z
" style="fill: #ffffff"/>
    </g>
    <!-- $|\mathrm{SSV}|_{\rm abs}$ -->
    <g style="fill: #c0392b" transform="translate(245.727 168.219116) scale(0.09 -0.09)">
     <use xlink:href="#DejaVuSans-7c" transform="translate(0 0.578125)"/>
     <use xlink:href="#DejaVuSans-53" transform="translate(33.691406 0.578125)"/>
     <use xlink:href="#DejaVuSans-53" transform="translate(97.167969 0.578125)"/>
     <use xlink:href="#DejaVuSans-56" transform="translate(160.644531 0.578125)"/>
     <use xlink:href="#DejaVuSans-7c" transform="translate(229.052734 0.578125)"/>
     <use xlink:href="#DejaVuSans-61" transform="translate(263.701172 -15.828125) scale(0.7)"/>
     <use xlink:href="#DejaVuSans-62" transform="translate(306.59668 -15.828125) scale(0.7)"/>
     <use xlink:href="#DejaVuSans-73" transform="translate(351.030273 -15.828125) scale(0.7)"/>
    </g>
   </g>
   <g id="patch_6">
    <path d="M 227.368668 256.566065 
Q 267.250526 252.110788 297.000346 228.639396 
" style="fill: none; stroke: #27ae60; stroke-width: 2; stroke-linecap: round"/>
    <path d="M 292.183328 229.637562 
L 297.000346 228.639396 
L 294.908668 233.09191 
" style="fill: none; stroke: #27ae60; stroke-width: 2; stroke-linecap: round"/>
   </g>
   <g id="text_16">
    <g id="patch_7">
     <path d="M 246.987 258.701543 
L 279.657 258.701543 
L 279.657 248.011231 
L 246.987 248.011231 
z
" style="fill: #ffffff"/>
    </g>
    <!-- $\mathbf{SSV}_{\rm net}$ -->
    <g style="fill: #27ae60" transform="translate(247.977 255.839825) scale(0.09 -0.09)">
     <use xlink:href="#DejaVuSans-Bold-53" transform="translate(0 0.78125)"/>
     <use xlink:href="#DejaVuSans-Bold-53" transform="translate(72.021484 0.78125)"/>
     <use xlink:href="#DejaVuSans-Bold-56" transform="translate(144.042969 0.78125)"/>
     <use xlink:href="#DejaVuSans-6e" transform="translate(222.392578 -15.625) scale(0.7)"/>
     <use xlink:href="#DejaVuSans-65" transform="translate(266.757812 -15.625) scale(0.7)"/>
     <use xlink:href="#DejaVuSans-74" transform="translate(309.824219 -15.625) scale(0.7)"/>
    </g>
   </g>
   <g id="text_17">
    <!-- Address components ($\mathbf{x}_{\rm GP}$, $t_{\rm abs}$): no curvature contribution in flat space -->
    <g style="fill: #888888" transform="translate(82.935 305.062665) scale(0.09 -0.09)">
     <defs>
      <path id="DejaVuSerif-Italic-41" d="M 1159 1691 
L 2872 1691 
L 2447 3909 
L 1159 1691 
z
M -488 0 
L -425 331 
L -16 331 
L 2491 4666 
L 3016 4666 
L 3841 331 
L 4297 331 
L 4234 0 
L 2538 0 
L 2600 331 
L 3119 331 
L 2928 1356 
L 966 1356 
L 375 331 
L 888 331 
L 825 0 
L -488 0 
z
" transform="scale(0.015625)"/>
      <path id="DejaVuSerif-Italic-73" d="M 222 959 
L 553 959 
Q 541 869 541 788 
Q 541 219 1313 219 
Q 2088 219 2200 788 
Q 2209 844 2209 944 
Q 2209 1041 2103 1158 
Q 1997 1275 1550 1428 
L 1159 1569 
Q 759 1706 629 1882 
Q 500 2059 500 2263 
Q 500 2344 516 2438 
Q 606 2894 990 3153 
Q 1375 3413 1931 3413 
Q 2484 3413 3066 3144 
L 2925 2419 
L 2594 2419 
Q 2606 2491 2606 2553 
Q 2606 2781 2448 2942 
Q 2291 3103 1925 3103 
Q 1191 3103 1091 2591 
Q 1078 2538 1078 2444 
Q 1078 2347 1179 2237 
Q 1281 2128 1678 1997 
L 2106 1856 
Q 2550 1709 2716 1488 
Q 2831 1331 2831 1178 
Q 2831 522 2306 181 
Q 1894 -91 1262 -91 
Q 631 -91 72 184 
L 222 959 
z
" transform="scale(0.015625)"/>
      <path id="DejaVuSerif-Italic-28" d="M 1472 -997 
Q 778 -656 534 83 
Q 291 822 506 1931 
Q 722 3044 1253 3783 
Q 1784 4522 2609 4863 
L 2550 4556 
Q 2006 4225 1679 3623 
Q 1353 3022 1141 1931 
Q 928 844 1020 242 
Q 1113 -359 1531 -691 
L 1472 -997 
z
" transform="scale(0.015625)"/>
      <path id="DejaVuSerif-Italic-2c" d="M 125 -622 
Q 463 -406 656 -114 
Q 850 178 931 594 
L 953 709 
L 1569 709 
Q 1441 175 1139 -208 
Q 838 -591 328 -872 
L 125 -622 
z
" transform="scale(0.015625)"/>
      <path id="DejaVuSerif-Italic-29" d="M -113 -997 
L -53 -691 
Q 491 -359 819 242 
Q 1147 844 1359 1931 
Q 1572 3022 1478 3623 
Q 1384 4225 966 4556 
L 1025 4863 
Q 1722 4522 1965 3783 
Q 2209 3044 1994 1931 
Q 1778 822 1247 83 
Q 716 -656 -113 -997 
z
" transform="scale(0.015625)"/>
      <path id="DejaVuSerif-Italic-3a" d="M 529 29 
Q 434 150 468 325 
Q 503 500 647 622 
Q 791 744 966 744 
Q 1141 744 1237 622 
Q 1334 500 1300 325 
Q 1266 150 1123 29 
Q 981 -91 803 -91 
Q 625 -91 529 29 
z
M 926 2067 
Q 828 2188 862 2363 
Q 897 2538 1040 2658 
Q 1184 2778 1359 2778 
Q 1538 2778 1633 2659 
Q 1728 2541 1693 2362 
Q 1659 2184 1518 2065 
Q 1378 1947 1200 1947 
Q 1025 1947 926 2067 
z
" transform="scale(0.015625)"/>
      <path id="DejaVuSerif-Italic-62" d="M 1153 4531 
L 600 4531 
L 666 4863 
L 1794 4863 
L 1394 2803 
Q 1622 3116 1912 3264 
Q 2203 3413 2588 3413 
Q 3200 3413 3494 2928 
Q 3688 2609 3688 2163 
Q 3688 1928 3634 1663 
Q 3481 881 3000 395 
Q 2519 -91 1906 -91 
Q 1522 -91 1289 57 
Q 1056 206 950 519 
L 850 0 
L 275 0 
L 1153 4531 
z
M 1141 1497 
Q 1091 1250 1091 1053 
Q 1091 769 1191 581 
Q 1359 269 1797 269 
Q 2238 269 2533 622 
Q 2828 975 2963 1663 
Q 3025 1978 3025 2225 
Q 3025 2513 2938 2703 
Q 2781 3053 2338 3053 
Q 1900 3053 1609 2737 
Q 1319 2422 1203 1825 
L 1141 1497 
z
" transform="scale(0.015625)"/>
      <path id="DejaVuSerif-Italic-66" d="M 3191 4078 
L 2888 4078 
Q 2900 4144 2900 4203 
Q 2900 4347 2825 4434 
Q 2719 4556 2472 4556 
Q 2150 4556 1984 4379 
Q 1819 4203 1731 3750 
L 1647 3322 
L 2575 3322 
L 2509 2988 
L 1581 2988 
L 963 -206 
Q 853 -763 509 -1047 
Q 166 -1331 -394 -1331 
L -356 -1025 
Q -28 -1025 131 -850 
Q 297 -663 388 -206 
L 1006 2988 
L 456 2988 
L 522 3322 
L 1072 3322 
L 1153 3738 
Q 1263 4297 1606 4578 
Q 1950 4863 2509 4863 
Q 2719 4863 2920 4825 
Q 3122 4788 3316 4709 
L 3191 4078 
z
" transform="scale(0.015625)"/>
     </defs>
     <use xlink:href="#DejaVuSerif-Italic-41" transform="translate(0 0.015625)"/>
     <use xlink:href="#DejaVuSerif-Italic-64" transform="translate(72.216797 0.015625)"/>
     <use xlink:href="#DejaVuSerif-Italic-64" transform="translate(136.230469 0.015625)"/>
     <use xlink:href="#DejaVuSerif-Italic-72" transform="translate(200.244141 0.015625)"/>
     <use xlink:href="#DejaVuSerif-Italic-65" transform="translate(248.046875 0.015625)"/>
     <use xlink:href="#DejaVuSerif-Italic-73" transform="translate(307.226562 0.015625)"/>
     <use xlink:href="#DejaVuSerif-Italic-73" transform="translate(358.544922 0.015625)"/>
     <use xlink:href="#DejaVuSerif-Italic-20" transform="translate(409.863281 0.015625)"/>
     <use xlink:href="#DejaVuSerif-Italic-63" transform="translate(441.650391 0.015625)"/>
     <use xlink:href="#DejaVuSerif-Italic-6f" transform="translate(497.65625 0.015625)"/>
     <use xlink:href="#DejaVuSerif-Italic-6d" transform="translate(557.861328 0.015625)"/>
     <use xlink:href="#DejaVuSerif-Italic-70" transform="translate(652.685547 0.015625)"/>
     <use xlink:href="#DejaVuSerif-Italic-6f" transform="translate(716.699219 0.015625)"/>
     <use xlink:href="#DejaVuSerif-Italic-6e" transform="translate(776.904297 0.015625)"/>
     <use xlink:href="#DejaVuSerif-Italic-65" transform="translate(841.308594 0.015625)"/>
     <use xlink:href="#DejaVuSerif-Italic-6e" transform="translate(900.488281 0.015625)"/>
     <use xlink:href="#DejaVuSerif-Italic-74" transform="translate(964.892578 0.015625)"/>
     <use xlink:href="#DejaVuSerif-Italic-73" transform="translate(1005.078125 0.015625)"/>
     <use xlink:href="#DejaVuSerif-Italic-20" transform="translate(1056.396484 0.015625)"/>
     <use xlink:href="#DejaVuSerif-Italic-28" transform="translate(1088.183594 0.015625)"/>
     <use xlink:href="#DejaVuSans-Bold-78" transform="translate(1127.197266 0.015625)"/>
     <use xlink:href="#DejaVuSans-47" transform="translate(1192.65625 -16.390625) scale(0.7)"/>
     <use xlink:href="#DejaVuSans-50" transform="translate(1246.899414 -16.390625) scale(0.7)"/>
     <use xlink:href="#DejaVuSerif-Italic-2c" transform="translate(1291.845703 0.015625)"/>
     <use xlink:href="#DejaVuSerif-Italic-20" transform="translate(1323.632812 0.015625)"/>
     <use xlink:href="#DejaVuSans-Oblique-74" transform="translate(1355.419922 0.015625)"/>
     <use xlink:href="#DejaVuSans-61" transform="translate(1394.628906 -16.390625) scale(0.7)"/>
     <use xlink:href="#DejaVuSans-62" transform="translate(1437.524414 -16.390625) scale(0.7)"/>
     <use xlink:href="#DejaVuSans-73" transform="translate(1481.958008 -16.390625) scale(0.7)"/>
     <use xlink:href="#DejaVuSerif-Italic-29" transform="translate(1521.162109 0.015625)"/>
     <use xlink:href="#DejaVuSerif-Italic-3a" transform="translate(1560.175781 0.015625)"/>
     <use xlink:href="#DejaVuSerif-Italic-20" transform="translate(1593.867188 0.015625)"/>
     <use xlink:href="#DejaVuSerif-Italic-6e" transform="translate(1625.654297 0.015625)"/>
     <use xlink:href="#DejaVuSerif-Italic-6f" transform="translate(1690.058594 0.015625)"/>
     <use xlink:href="#DejaVuSerif-Italic-20" transform="translate(1750.263672 0.015625)"/>
     <use xlink:href="#DejaVuSerif-Italic-63" transform="translate(1782.050781 0.015625)"/>
     <use xlink:href="#DejaVuSerif-Italic-75" transform="translate(1838.056641 0.015625)"/>
     <use xlink:href="#DejaVuSerif-Italic-72" transform="translate(1902.460938 0.015625)"/>
     <use xlink:href="#DejaVuSerif-Italic-76" transform="translate(1950.263672 0.015625)"/>
     <use xlink:href="#DejaVuSerif-Italic-61" transform="translate(2006.757812 0.015625)"/>
     <use xlink:href="#DejaVuSerif-Italic-74" transform="translate(2066.376953 0.015625)"/>
     <use xlink:href="#DejaVuSerif-Italic-75" transform="translate(2106.5625 0.015625)"/>
     <use xlink:href="#DejaVuSerif-Italic-72" transform="translate(2170.966797 0.015625)"/>
     <use xlink:href="#DejaVuSerif-Italic-65" transform="translate(2218.769531 0.015625)"/>
     <use xlink:href="#DejaVuSerif-Italic-20" transform="translate(2277.949219 0.015625)"/>
     <use xlink:href="#DejaVuSerif-Italic-63" transform="translate(2309.736328 0.015625)"/>
     <use xlink:href="#DejaVuSerif-Italic-6f" transform="translate(2365.742188 0.015625)"/>
     <use xlink:href="#DejaVuSerif-Italic-6e" transform="translate(2425.947266 0.015625)"/>
     <use xlink:href="#DejaVuSerif-Italic-74" transform="translate(2490.351562 0.015625)"/>
     <use xlink:href="#DejaVuSerif-Italic-72" transform="translate(2530.537109 0.015625)"/>
     <use xlink:href="#DejaVuSerif-Italic-69" transform="translate(2578.339844 0.015625)"/>
     <use xlink:href="#DejaVuSerif-Italic-62" transform="translate(2610.322266 0.015625)"/>
     <use xlink:href="#DejaVuSerif-Italic-75" transform="translate(2674.335938 0.015625)"/>
     <use xlink:href="#DejaVuSerif-Italic-74" transform="translate(2738.740234 0.015625)"/>
     <use xlink:href="#DejaVuSerif-Italic-69" transform="translate(2778.925781 0.015625)"/>
     <use xlink:href="#DejaVuSerif-Italic-6f" transform="translate(2810.908203 0.015625)"/>
     <use xlink:href="#DejaVuSerif-Italic-6e" transform="translate(2871.113281 0.015625)"/>
     <use xlink:href="#DejaVuSerif-Italic-20" transform="translate(2935.517578 0.015625)"/>
     <use xlink:href="#DejaVuSerif-Italic-69" transform="translate(2967.304688 0.015625)"/>
     <use xlink:href="#DejaVuSerif-Italic-6e" transform="translate(2999.287109 0.015625)"/>
     <use xlink:href="#DejaVuSerif-Italic-20" transform="translate(3063.691406 0.015625)"/>
     <use xlink:href="#DejaVuSerif-Italic-66" transform="translate(3095.478516 0.015625)"/>
     <use xlink:href="#DejaVuSerif-Italic-6c" transform="translate(3132.490234 0.015625)"/>
     <use xlink:href="#DejaVuSerif-Italic-61" transform="translate(3164.472656 0.015625)"/>
     <use xlink:href="#DejaVuSerif-Italic-74" transform="translate(3224.091797 0.015625)"/>
     <use xlink:href="#DejaVuSerif-Italic-20" transform="translate(3264.277344 0.015625)"/>
     <use xlink:href="#DejaVuSerif-Italic-73" transform="translate(3296.064453 0.015625)"/>
     <use xlink:href="#DejaVuSerif-Italic-70" transform="translate(3347.382812 0.015625)"/>
     <use xlink:href="#DejaVuSerif-Italic-61" transform="translate(3411.396484 0.015625)"/>
     <use xlink:href="#DejaVuSerif-Italic-63" transform="translate(3471.015625 0.015625)"/>
     <use xlink:href="#DejaVuSerif-Italic-65" transform="translate(3527.021484 0.015625)"/>
    </g>
   </g>
   <g id="text_18">
    <!-- Figure 1.  The Lattice State Packet and its two curvature-generating components. -->
    <g style="fill: #222222" transform="translate(25.935234 26.747599) scale(0.105 -0.105)">
     <defs>
      <path id="DejaVuSerif-46" d="M 353 0 
L 353 331 
L 947 331 
L 947 4331 
L 353 4331 
L 353 4666 
L 4172 4666 
L 4172 3628 
L 3788 3628 
L 3788 4281 
L 1581 4281 
L 1581 2719 
L 3175 2719 
L 3175 3303 
L 3559 3303 
L 3559 1753 
L 3175 1753 
L 3175 2338 
L 1581 2338 
L 1581 331 
L 2328 331 
L 2328 0 
L 353 0 
z
" transform="scale(0.015625)"/>
      <path id="DejaVuSerif-67" d="M 3359 2988 
L 3359 72 
Q 3359 -644 2965 -1033 
Q 2572 -1422 1844 -1422 
Q 1516 -1422 1216 -1362 
Q 916 -1303 641 -1184 
L 641 -488 
L 941 -488 
Q 997 -813 1206 -963 
Q 1416 -1113 1806 -1113 
Q 2313 -1113 2548 -827 
Q 2784 -541 2784 72 
L 2784 519 
Q 2616 206 2355 57 
Q 2094 -91 1709 -91 
Q 1097 -91 708 395 
Q 319 881 319 1663 
Q 319 2444 706 2928 
Q 1094 3413 1709 3413 
Q 2094 3413 2355 3264 
Q 2616 3116 2784 2803 
L 2784 3322 
L 3909 3322 
L 3909 2988 
L 3359 2988 
z
M 2784 1825 
Q 2784 2422 2554 2737 
Q 2325 3053 1888 3053 
Q 1444 3053 1217 2703 
Q 991 2353 991 1663 
Q 991 975 1217 622 
Q 1444 269 1888 269 
Q 2325 269 2554 583 
Q 2784 897 2784 1497 
L 2784 1825 
z
" transform="scale(0.015625)"/>
      <path id="DejaVuSerif-31" d="M 909 0 
L 909 331 
L 1722 331 
L 1722 4213 
L 781 3603 
L 781 4013 
L 1919 4750 
L 2350 4750 
L 2350 331 
L 3163 331 
L 3163 0 
L 909 0 
z
" transform="scale(0.015625)"/>
      <path id="DejaVuSerif-2e" d="M 603 325 
Q 603 500 722 622 
Q 841 744 1019 744 
Q 1191 744 1312 622 
Q 1434 500 1434 325 
Q 1434 153 1312 31 
Q 1191 -91 1019 -91 
Q 841 -91 722 29 
Q 603 150 603 325 
z
" transform="scale(0.015625)"/>
      <path id="DejaVuSerif-54" d="M 1222 0 
L 1222 331 
L 1819 331 
L 1819 4294 
L 447 4294 
L 447 3566 
L 63 3566 
L 63 4666 
L 4206 4666 
L 4206 3566 
L 3822 3566 
L 3822 4294 
L 2450 4294 
L 2450 331 
L 3047 331 
L 3047 0 
L 1222 0 
z
" transform="scale(0.015625)"/>
      <path id="DejaVuSerif-68" d="M 263 0 
L 263 331 
L 781 331 
L 781 4531 
L 231 4531 
L 231 4863 
L 1356 4863 
L 1356 2731 
Q 1516 3069 1770 3241 
Q 2025 3413 2363 3413 
Q 2913 3413 3172 3097 
Q 3431 2781 3431 2113 
L 3431 331 
L 3944 331 
L 3944 0 
L 2356 0 
L 2356 331 
L 2853 331 
L 2853 1931 
Q 2853 2541 2704 2764 
Q 2556 2988 2175 2988 
Q 1775 2988 1565 2697 
Q 1356 2406 1356 1850 
L 1356 331 
L 1856 331 
L 1856 0 
L 263 0 
z
" transform="scale(0.015625)"/>
      <path id="DejaVuSerif-4c" d="M 353 0 
L 353 331 
L 947 331 
L 947 4331 
L 353 4331 
L 353 4666 
L 2175 4666 
L 2175 4331 
L 1581 4331 
L 1581 384 
L 3713 384 
L 3713 1166 
L 4097 1166 
L 4097 0 
L 353 0 
z
" transform="scale(0.015625)"/>
      <path id="DejaVuSerif-77" d="M 3072 3322 
L 3922 728 
L 4672 2988 
L 4191 2988 
L 4191 3322 
L 5394 3322 
L 5394 2988 
L 5025 2988 
L 4038 0 
L 3559 0 
L 2741 2484 
L 1919 0 
L 1459 0 
L 475 2988 
L 103 2988 
L 103 3322 
L 1606 3322 
L 1606 2988 
L 1069 2988 
L 1813 728 
L 2669 3322 
L 3072 3322 
z
" transform="scale(0.015625)"/>
      <path id="DejaVuSerif-2d" d="M 281 1959 
L 1881 1959 
L 1881 1472 
L 281 1472 
L 281 1959 
z
" transform="scale(0.015625)"/>
     </defs>
     <use xlink:href="#DejaVuSerif-46"/>
     <use xlink:href="#DejaVuSerif-69" transform="translate(69.384766 0)"/>
     <use xlink:href="#DejaVuSerif-67" transform="translate(101.367188 0)"/>
     <use xlink:href="#DejaVuSerif-75" transform="translate(165.380859 0)"/>
     <use xlink:href="#DejaVuSerif-72" transform="translate(229.785156 0)"/>
     <use xlink:href="#DejaVuSerif-65" transform="translate(277.587891 0)"/>
     <use xlink:href="#DejaVuSerif-20" transform="translate(336.767578 0)"/>
     <use xlink:href="#DejaVuSerif-31" transform="translate(368.554688 0)"/>
     <use xlink:href="#DejaVuSerif-2e" transform="translate(432.177734 0)"/>
     <use xlink:href="#DejaVuSerif-20" transform="translate(463.964844 0)"/>
     <use xlink:href="#DejaVuSerif-20" transform="translate(495.751953 0)"/>
     <use xlink:href="#DejaVuSerif-54" transform="translate(527.539062 0)"/>
     <use xlink:href="#DejaVuSerif-68" transform="translate(594.238281 0)"/>
     <use xlink:href="#DejaVuSerif-65" transform="translate(658.642578 0)"/>
     <use xlink:href="#DejaVuSerif-20" transform="translate(717.822266 0)"/>
     <use xlink:href="#DejaVuSerif-4c" transform="translate(749.609375 0)"/>
     <use xlink:href="#DejaVuSerif-61" transform="translate(816.015625 0)"/>
     <use xlink:href="#DejaVuSerif-74" transform="translate(875.634766 0)"/>
     <use xlink:href="#DejaVuSerif-74" transform="translate(915.820312 0)"/>
     <use xlink:href="#DejaVuSerif-69" transform="translate(956.005859 0)"/>
     <use xlink:href="#DejaVuSerif-63" transform="translate(987.988281 0)"/>
     <use xlink:href="#DejaVuSerif-65" transform="translate(1043.994141 0)"/>
     <use xlink:href="#DejaVuSerif-20" transform="translate(1103.173828 0)"/>
     <use xlink:href="#DejaVuSerif-53" transform="translate(1134.960938 0)"/>
     <use xlink:href="#DejaVuSerif-74" transform="translate(1203.466797 0)"/>
     <use xlink:href="#DejaVuSerif-61" transform="translate(1243.652344 0)"/>
     <use xlink:href="#DejaVuSerif-74" transform="translate(1303.271484 0)"/>
     <use xlink:href="#DejaVuSerif-65" transform="translate(1343.457031 0)"/>
     <use xlink:href="#DejaVuSerif-20" transform="translate(1402.636719 0)"/>
     <use xlink:href="#DejaVuSerif-50" transform="translate(1434.423828 0)"/>
     <use xlink:href="#DejaVuSerif-61" transform="translate(1497.208984 0)"/>
     <use xlink:href="#DejaVuSerif-63" transform="translate(1556.828125 0)"/>
     <use xlink:href="#DejaVuSerif-6b" transform="translate(1612.833984 0)"/>
     <use xlink:href="#DejaVuSerif-65" transform="translate(1673.429688 0)"/>
     <use xlink:href="#DejaVuSerif-74" transform="translate(1732.609375 0)"/>
     <use xlink:href="#DejaVuSerif-20" transform="translate(1772.794922 0)"/>
     <use xlink:href="#DejaVuSerif-61" transform="translate(1804.582031 0)"/>
     <use xlink:href="#DejaVuSerif-6e" transform="translate(1864.201172 0)"/>
     <use xlink:href="#DejaVuSerif-64" transform="translate(1928.605469 0)"/>
     <use xlink:href="#DejaVuSerif-20" transform="translate(1992.619141 0)"/>
     <use xlink:href="#DejaVuSerif-69" transform="translate(2024.40625 0)"/>
     <use xlink:href="#DejaVuSerif-74" transform="translate(2056.388672 0)"/>
     <use xlink:href="#DejaVuSerif-73" transform="translate(2096.574219 0)"/>
     <use xlink:href="#DejaVuSerif-20" transform="translate(2147.892578 0)"/>
     <use xlink:href="#DejaVuSerif-74" transform="translate(2179.679688 0)"/>
     <use xlink:href="#DejaVuSerif-77" transform="translate(2219.865234 0)"/>
     <use xlink:href="#DejaVuSerif-6f" transform="translate(2305.460938 0)"/>
     <use xlink:href="#DejaVuSerif-20" transform="translate(2365.666016 0)"/>
     <use xlink:href="#DejaVuSerif-63" transform="translate(2397.453125 0)"/>
     <use xlink:href="#DejaVuSerif-75" transform="translate(2453.458984 0)"/>
     <use xlink:href="#DejaVuSerif-72" transform="translate(2517.863281 0)"/>
     <use xlink:href="#DejaVuSerif-76" transform="translate(2565.666016 0)"/>
     <use xlink:href="#DejaVuSerif-61" transform="translate(2622.160156 0)"/>
     <use xlink:href="#DejaVuSerif-74" transform="translate(2681.779297 0)"/>
     <use xlink:href="#DejaVuSerif-75" transform="translate(2721.964844 0)"/>
     <use xlink:href="#DejaVuSerif-72" transform="translate(2786.369141 0)"/>
     <use xlink:href="#DejaVuSerif-65" transform="translate(2834.171875 0)"/>
     <use xlink:href="#DejaVuSerif-2d" transform="translate(2893.351562 0)"/>
     <use xlink:href="#DejaVuSerif-67" transform="translate(2927.140625 0)"/>
     <use xlink:href="#DejaVuSerif-65" transform="translate(2991.154297 0)"/>
     <use xlink:href="#DejaVuSerif-6e" transform="translate(3050.333984 0)"/>
     <use xlink:href="#DejaVuSerif-65" transform="translate(3114.738281 0)"/>
     <use xlink:href="#DejaVuSerif-72" transform="translate(3173.917969 0)"/>
     <use xlink:href="#DejaVuSerif-61" transform="translate(3221.720703 0)"/>
     <use xlink:href="#DejaVuSerif-74" transform="translate(3281.339844 0)"/>
     <use xlink:href="#DejaVuSerif-69" transform="translate(3321.525391 0)"/>
     <use xlink:href="#DejaVuSerif-6e" transform="translate(3353.507812 0)"/>
     <use xlink:href="#DejaVuSerif-67" transform="translate(3417.912109 0)"/>
     <use xlink:href="#DejaVuSerif-20" transform="translate(3481.925781 0)"/>
     <use xlink:href="#DejaVuSerif-63" transform="translate(3513.712891 0)"/>
     <use xlink:href="#DejaVuSerif-6f" transform="translate(3569.71875 0)"/>
     <use xlink:href="#DejaVuSerif-6d" transform="translate(3629.923828 0)"/>
     <use xlink:href="#DejaVuSerif-70" transform="translate(3724.748047 0)"/>
     <use xlink:href="#DejaVuSerif-6f" transform="translate(3788.761719 0)"/>
     <use xlink:href="#DejaVuSerif-6e" transform="translate(3848.966797 0)"/>
     <use xlink:href="#DejaVuSerif-65" transform="translate(3913.371094 0)"/>
     <use xlink:href="#DejaVuSerif-6e" transform="translate(3972.550781 0)"/>
     <use xlink:href="#DejaVuSerif-74" transform="translate(4036.955078 0)"/>
     <use xlink:href="#DejaVuSerif-73" transform="translate(4077.140625 0)"/>
     <use xlink:href="#DejaVuSerif-2e" transform="translate(4128.458984 0)"/>
    </g>
   </g>
  </g>
 </g>
 <defs>
  <clipPath id="p0d3c551b38">
   <rect x="7.2" y="7.2" width="474.3" height="317.952"/>
  </clipPath>
 </defs>
</svg>
