<?xml version="1.0" encoding="utf-8" standalone="no"?>
<!DOCTYPE svg PUBLIC "-//W3C//DTD SVG 1.1//EN"
  "http://www.w3.org/Graphics/SVG/1.1/DTD/svg11.dtd">
<svg xmlns:xlink="http://www.w3.org/1999/xlink" width="527.145938pt" height="330.734031pt" viewBox="0 0 527.145938 330.734031" xmlns="http://www.w3.org/2000/svg" version="1.1">
 <metadata>
  <rdf:RDF xmlns:dc="http://purl.org/dc/elements/1.1/" xmlns:cc="http://creativecommons.org/ns#" xmlns:rdf="http://www.w3.org/1999/02/22-rdf-syntax-ns#">
   <cc:Work>
    <dc:type rdf:resource="http://purl.org/dc/dcmitype/StillImage"/>
    <dc:date>2026-03-16T16:27:26.112886</dc:date>
    <dc:format>image/svg+xml</dc:format>
    <dc:creator>
     <cc:Agent>
      <dc:title>Matplotlib v3.10.8, https://matplotlib.org/</dc:title>
     </cc:Agent>
    </dc:creator>
   </cc:Work>
  </rdf:RDF>
 </metadata>
 <defs>
  <style type="text/css">*{stroke-linejoin: round; stroke-linecap: butt}</style>
 </defs>
 <g id="figure_1">
  <g id="patch_1">
   <path d="M 0 330.734031 
L 527.145938 330.734031 
L 527.145938 0 
L 0 0 
z
" style="fill: #ffffff"/>
  </g>
  <g id="axes_1">
   <g id="patch_2">
    <path d="M 47.307187 290.274344 
L 512.947188 290.274344 
L 512.947188 36.034344 
L 47.307187 36.034344 
z
" style="fill: #ffffff"/>
   </g>
   <g id="FillBetweenPolyCollection_1"/>
   <g id="matplotlib.axis_1">
    <g id="xtick_1">
     <g id="line2d_1">
      <path d="M 47.307187 290.274344 
L 47.307187 36.034344 
" clip-path="url(#p845f3a509c)" style="fill: none; stroke: #b0b0b0; stroke-opacity: 0.25; stroke-width: 0.8; stroke-linecap: square"/>
     </g>
     <g id="line2d_2">
      <defs>
       <path id="m165bad4d84" d="M 0 0 
L 0 3.5 
" style="stroke: #000000; stroke-width: 0.8"/>
      </defs>
      <g>
       <use xlink:href="#m165bad4d84" x="47.307187" y="290.274344" style="stroke: #000000; stroke-width: 0.8"/>
      </g>
     </g>
     <g id="text_1">
      <!-- $r_s$ -->
      <g transform="translate(42.852187 305.632625) scale(0.11 -0.11)">
       <defs>
        <path id="DejaVuSans-Oblique-72" d="M 2853 2969 
Q 2766 3016 2653 3041 
Q 2541 3066 2413 3066 
Q 1953 3066 1609 2717 
Q 1266 2369 1153 1784 
L 800 0 
L 225 0 
L 909 3500 
L 1484 3500 
L 1375 2956 
Q 1603 3259 1920 3421 
Q 2238 3584 2597 3584 
Q 2691 3584 2781 3573 
Q 2872 3563 2963 3538 
L 2853 2969 
z
" transform="scale(0.015625)"/>
        <path id="DejaVuSans-Oblique-73" d="M 3200 3397 
L 3091 2853 
Q 2863 2978 2609 3040 
Q 2356 3103 2088 3103 
Q 1634 3103 1373 2948 
Q 1113 2794 1113 2528 
Q 1113 2219 1719 2053 
Q 1766 2041 1788 2034 
L 1972 1978 
Q 2547 1819 2739 1644 
Q 2931 1469 2931 1166 
Q 2931 609 2489 259 
Q 2047 -91 1331 -91 
Q 1053 -91 747 -37 
Q 441 16 72 128 
L 184 722 
Q 500 559 806 475 
Q 1113 391 1394 391 
Q 1816 391 2080 572 
Q 2344 753 2344 1031 
Q 2344 1331 1650 1516 
L 1591 1531 
L 1394 1581 
Q 956 1697 753 1886 
Q 550 2075 550 2369 
Q 550 2928 970 3256 
Q 1391 3584 2113 3584 
Q 2397 3584 2667 3537 
Q 2938 3491 3200 3397 
z
" transform="scale(0.015625)"/>
       </defs>
       <use xlink:href="#DejaVuSans-Oblique-72"/>
       <use xlink:href="#DejaVuSans-Oblique-73" transform="translate(41.113281 -16.40625) scale(0.7)"/>
      </g>
     </g>
    </g>
    <g id="xtick_2">
     <g id="line2d_3">
      <path d="M 99.044965 290.274344 
L 99.044965 36.034344 
" clip-path="url(#p845f3a509c)" style="fill: none; stroke: #b0b0b0; stroke-opacity: 0.25; stroke-width: 0.8; stroke-linecap: square"/>
     </g>
     <g id="line2d_4">
      <g>
       <use xlink:href="#m165bad4d84" x="99.044965" y="290.274344" style="stroke: #000000; stroke-width: 0.8"/>
      </g>
     </g>
     <g id="text_2">
      <!-- 2 -->
      <g transform="translate(95.54559 305.632625) scale(0.11 -0.11)">
       <defs>
        <path id="DejaVuSerif-32" d="M 819 3553 
L 469 3553 
L 469 4384 
Q 803 4563 1142 4656 
Q 1481 4750 1806 4750 
Q 2534 4750 2956 4397 
Q 3378 4044 3378 3438 
Q 3378 2753 2422 1800 
Q 2347 1728 2309 1691 
L 1131 513 
L 3078 513 
L 3078 1088 
L 3444 1088 
L 3444 0 
L 434 0 
L 434 341 
L 1850 1753 
Q 2319 2222 2519 2614 
Q 2719 3006 2719 3438 
Q 2719 3909 2473 4175 
Q 2228 4441 1797 4441 
Q 1350 4441 1106 4219 
Q 863 3997 819 3553 
z
" transform="scale(0.015625)"/>
       </defs>
       <use xlink:href="#DejaVuSerif-32"/>
      </g>
     </g>
    </g>
    <g id="xtick_3">
     <g id="line2d_5">
      <path d="M 150.782743 290.274344 
L 150.782743 36.034344 
" clip-path="url(#p845f3a509c)" style="fill: none; stroke: #b0b0b0; stroke-opacity: 0.25; stroke-width: 0.8; stroke-linecap: square"/>
     </g>
     <g id="line2d_6">
      <g>
       <use xlink:href="#m165bad4d84" x="150.782743" y="290.274344" style="stroke: #000000; stroke-width: 0.8"/>
      </g>
     </g>
     <g id="text_3">
      <!-- 3 -->
      <g transform="translate(147.283368 305.632625) scale(0.11 -0.11)">
       <defs>
        <path id="DejaVuSerif-33" d="M 622 4469 
Q 988 4606 1323 4678 
Q 1659 4750 1953 4750 
Q 2638 4750 3022 4454 
Q 3406 4159 3406 3634 
Q 3406 3213 3140 2930 
Q 2875 2647 2388 2547 
Q 2963 2466 3280 2130 
Q 3597 1794 3597 1259 
Q 3597 606 3158 257 
Q 2719 -91 1894 -91 
Q 1528 -91 1179 -12 
Q 831 66 488 225 
L 488 1131 
L 838 1131 
Q 869 681 1141 450 
Q 1413 219 1906 219 
Q 2384 219 2661 495 
Q 2938 772 2938 1253 
Q 2938 1803 2653 2086 
Q 2369 2369 1819 2369 
L 1522 2369 
L 1522 2688 
L 1678 2688 
Q 2225 2688 2498 2914 
Q 2772 3141 2772 3597 
Q 2772 4006 2547 4223 
Q 2322 4441 1900 4441 
Q 1478 4441 1245 4241 
Q 1013 4041 972 3647 
L 622 3647 
L 622 4469 
z
" transform="scale(0.015625)"/>
       </defs>
       <use xlink:href="#DejaVuSerif-33"/>
      </g>
     </g>
    </g>
    <g id="xtick_4">
     <g id="line2d_7">
      <path d="M 202.520521 290.274344 
L 202.520521 36.034344 
" clip-path="url(#p845f3a509c)" style="fill: none; stroke: #b0b0b0; stroke-opacity: 0.25; stroke-width: 0.8; stroke-linecap: square"/>
     </g>
     <g id="line2d_8">
      <g>
       <use xlink:href="#m165bad4d84" x="202.520521" y="290.274344" style="stroke: #000000; stroke-width: 0.8"/>
      </g>
     </g>
     <g id="text_4">
      <!-- 4 -->
      <g transform="translate(199.021146 305.632625) scale(0.11 -0.11)">
       <defs>
        <path id="DejaVuSerif-34" d="M 2234 1581 
L 2234 4063 
L 641 1581 
L 2234 1581 
z
M 3609 0 
L 1484 0 
L 1484 331 
L 2234 331 
L 2234 1247 
L 197 1247 
L 197 1588 
L 2241 4750 
L 2859 4750 
L 2859 1581 
L 3750 1581 
L 3750 1247 
L 2859 1247 
L 2859 331 
L 3609 331 
L 3609 0 
z
" transform="scale(0.015625)"/>
       </defs>
       <use xlink:href="#DejaVuSerif-34"/>
      </g>
     </g>
    </g>
    <g id="xtick_5">
     <g id="line2d_9">
      <path d="M 254.258299 290.274344 
L 254.258299 36.034344 
" clip-path="url(#p845f3a509c)" style="fill: none; stroke: #b0b0b0; stroke-opacity: 0.25; stroke-width: 0.8; stroke-linecap: square"/>
     </g>
     <g id="line2d_10">
      <g>
       <use xlink:href="#m165bad4d84" x="254.258299" y="290.274344" style="stroke: #000000; stroke-width: 0.8"/>
      </g>
     </g>
     <g id="text_5">
      <!-- 5 -->
      <g transform="translate(250.758924 305.632625) scale(0.11 -0.11)">
       <defs>
        <path id="DejaVuSerif-35" d="M 3219 4666 
L 3219 4153 
L 1081 4153 
L 1081 2816 
Q 1244 2928 1461 2984 
Q 1678 3041 1947 3041 
Q 2703 3041 3140 2622 
Q 3578 2203 3578 1478 
Q 3578 738 3136 323 
Q 2694 -91 1894 -91 
Q 1572 -91 1234 -12 
Q 897 66 544 225 
L 544 1131 
L 897 1131 
Q 925 688 1179 453 
Q 1434 219 1894 219 
Q 2388 219 2653 544 
Q 2919 869 2919 1478 
Q 2919 2084 2655 2407 
Q 2391 2731 1894 2731 
Q 1613 2731 1398 2631 
Q 1184 2531 1019 2322 
L 750 2322 
L 750 4666 
L 3219 4666 
z
" transform="scale(0.015625)"/>
       </defs>
       <use xlink:href="#DejaVuSerif-35"/>
      </g>
     </g>
    </g>
    <g id="xtick_6">
     <g id="line2d_11">
      <path d="M 305.996076 290.274344 
L 305.996076 36.034344 
" clip-path="url(#p845f3a509c)" style="fill: none; stroke: #b0b0b0; stroke-opacity: 0.25; stroke-width: 0.8; stroke-linecap: square"/>
     </g>
     <g id="line2d_12">
      <g>
       <use xlink:href="#m165bad4d84" x="305.996076" y="290.274344" style="stroke: #000000; stroke-width: 0.8"/>
      </g>
     </g>
     <g id="text_6">
      <!-- 6 -->
      <g transform="translate(302.496701 305.632625) scale(0.11 -0.11)">
       <defs>
        <path id="DejaVuSerif-36" d="M 2094 219 
Q 2534 219 2771 542 
Q 3009 866 3009 1472 
Q 3009 2078 2771 2401 
Q 2534 2725 2094 2725 
Q 1647 2725 1412 2412 
Q 1178 2100 1178 1509 
Q 1178 888 1415 553 
Q 1653 219 2094 219 
z
M 1075 2569 
Q 1288 2803 1556 2918 
Q 1825 3034 2163 3034 
Q 2859 3034 3264 2615 
Q 3669 2197 3669 1472 
Q 3669 763 3233 336 
Q 2797 -91 2069 -91 
Q 1278 -91 853 498 
Q 428 1088 428 2181 
Q 428 3406 931 4078 
Q 1434 4750 2350 4750 
Q 2597 4750 2869 4703 
Q 3141 4656 3425 4563 
L 3425 3794 
L 3072 3794 
Q 3034 4109 2831 4275 
Q 2628 4441 2284 4441 
Q 1678 4441 1381 3981 
Q 1084 3522 1075 2569 
z
" transform="scale(0.015625)"/>
       </defs>
       <use xlink:href="#DejaVuSerif-36"/>
      </g>
     </g>
    </g>
    <g id="xtick_7">
     <g id="line2d_13">
      <path d="M 357.733854 290.274344 
L 357.733854 36.034344 
" clip-path="url(#p845f3a509c)" style="fill: none; stroke: #b0b0b0; stroke-opacity: 0.25; stroke-width: 0.8; stroke-linecap: square"/>
     </g>
     <g id="line2d_14">
      <g>
       <use xlink:href="#m165bad4d84" x="357.733854" y="290.274344" style="stroke: #000000; stroke-width: 0.8"/>
      </g>
     </g>
     <g id="text_7">
      <!-- 7 -->
      <g transform="translate(354.234479 305.632625) scale(0.11 -0.11)">
       <defs>
        <path id="DejaVuSerif-37" d="M 3609 4347 
L 1784 0 
L 1319 0 
L 3059 4153 
L 903 4153 
L 903 3578 
L 538 3578 
L 538 4666 
L 3609 4666 
L 3609 4347 
z
" transform="scale(0.015625)"/>
       </defs>
       <use xlink:href="#DejaVuSerif-37"/>
      </g>
     </g>
    </g>
    <g id="xtick_8">
     <g id="line2d_15">
      <path d="M 409.471632 290.274344 
L 409.471632 36.034344 
" clip-path="url(#p845f3a509c)" style="fill: none; stroke: #b0b0b0; stroke-opacity: 0.25; stroke-width: 0.8; stroke-linecap: square"/>
     </g>
     <g id="line2d_16">
      <g>
       <use xlink:href="#m165bad4d84" x="409.471632" y="290.274344" style="stroke: #000000; stroke-width: 0.8"/>
      </g>
     </g>
     <g id="text_8">
      <!-- 8 -->
      <g transform="translate(405.972257 305.632625) scale(0.11 -0.11)">
       <defs>
        <path id="DejaVuSerif-38" d="M 2981 1275 
Q 2981 1775 2732 2051 
Q 2484 2328 2034 2328 
Q 1584 2328 1336 2051 
Q 1088 1775 1088 1275 
Q 1088 772 1336 495 
Q 1584 219 2034 219 
Q 2484 219 2732 495 
Q 2981 772 2981 1275 
z
M 2853 3541 
Q 2853 3966 2637 4203 
Q 2422 4441 2034 4441 
Q 1650 4441 1433 4203 
Q 1216 3966 1216 3541 
Q 1216 3113 1433 2875 
Q 1650 2638 2034 2638 
Q 2422 2638 2637 2875 
Q 2853 3113 2853 3541 
z
M 2516 2484 
Q 3047 2413 3344 2092 
Q 3641 1772 3641 1275 
Q 3641 619 3225 264 
Q 2809 -91 2034 -91 
Q 1263 -91 845 264 
Q 428 619 428 1275 
Q 428 1772 725 2092 
Q 1022 2413 1556 2484 
Q 1084 2569 832 2842 
Q 581 3116 581 3541 
Q 581 4103 968 4426 
Q 1356 4750 2034 4750 
Q 2713 4750 3100 4426 
Q 3488 4103 3488 3541 
Q 3488 3116 3236 2842 
Q 2984 2569 2516 2484 
z
" transform="scale(0.015625)"/>
       </defs>
       <use xlink:href="#DejaVuSerif-38"/>
      </g>
     </g>
    </g>
    <g id="xtick_9">
     <g id="line2d_17">
      <path d="M 461.20941 290.274344 
L 461.20941 36.034344 
" clip-path="url(#p845f3a509c)" style="fill: none; stroke: #b0b0b0; stroke-opacity: 0.25; stroke-width: 0.8; stroke-linecap: square"/>
     </g>
     <g id="line2d_18">
      <g>
       <use xlink:href="#m165bad4d84" x="461.20941" y="290.274344" style="stroke: #000000; stroke-width: 0.8"/>
      </g>
     </g>
     <g id="text_9">
      <!-- 9 -->
      <g transform="translate(457.710035 305.632625) scale(0.11 -0.11)">
       <defs>
        <path id="DejaVuSerif-39" d="M 2994 2091 
Q 2784 1856 2512 1740 
Q 2241 1625 1900 1625 
Q 1206 1625 804 2044 
Q 403 2463 403 3188 
Q 403 3897 839 4323 
Q 1275 4750 2003 4750 
Q 2794 4750 3217 4161 
Q 3641 3572 3641 2478 
Q 3641 1253 3137 581 
Q 2634 -91 1722 -91 
Q 1475 -91 1203 -44 
Q 931 3 647 97 
L 647 872 
L 997 872 
Q 1038 556 1241 387 
Q 1444 219 1784 219 
Q 2391 219 2687 676 
Q 2984 1134 2994 2091 
z
M 1978 4441 
Q 1534 4441 1298 4117 
Q 1063 3794 1063 3188 
Q 1063 2581 1298 2256 
Q 1534 1931 1978 1931 
Q 2422 1931 2658 2245 
Q 2894 2559 2894 3150 
Q 2894 3772 2656 4106 
Q 2419 4441 1978 4441 
z
" transform="scale(0.015625)"/>
       </defs>
       <use xlink:href="#DejaVuSerif-39"/>
      </g>
     </g>
    </g>
    <g id="xtick_10">
     <g id="line2d_19">
      <path d="M 512.947188 290.274344 
L 512.947188 36.034344 
" clip-path="url(#p845f3a509c)" style="fill: none; stroke: #b0b0b0; stroke-opacity: 0.25; stroke-width: 0.8; stroke-linecap: square"/>
     </g>
     <g id="line2d_20">
      <g>
       <use xlink:href="#m165bad4d84" x="512.947188" y="290.274344" style="stroke: #000000; stroke-width: 0.8"/>
      </g>
     </g>
     <g id="text_10">
      <!-- 10 -->
      <g transform="translate(505.948438 305.632625) scale(0.11 -0.11)">
       <defs>
        <path id="DejaVuSerif-31" d="M 909 0 
L 909 331 
L 1722 331 
L 1722 4213 
L 781 3603 
L 781 4013 
L 1919 4750 
L 2350 4750 
L 2350 331 
L 3163 331 
L 3163 0 
L 909 0 
z
" transform="scale(0.015625)"/>
        <path id="DejaVuSerif-30" d="M 2034 219 
Q 2513 219 2750 744 
Q 2988 1269 2988 2328 
Q 2988 3391 2750 3916 
Q 2513 4441 2034 4441 
Q 1556 4441 1318 3916 
Q 1081 3391 1081 2328 
Q 1081 1269 1318 744 
Q 1556 219 2034 219 
z
M 2034 -91 
Q 1275 -91 848 546 
Q 422 1184 422 2328 
Q 422 3475 848 4112 
Q 1275 4750 2034 4750 
Q 2797 4750 3222 4112 
Q 3647 3475 3647 2328 
Q 3647 1184 3222 546 
Q 2797 -91 2034 -91 
z
" transform="scale(0.015625)"/>
       </defs>
       <use xlink:href="#DejaVuSerif-31"/>
       <use xlink:href="#DejaVuSerif-30" transform="translate(63.623047 0)"/>
      </g>
     </g>
    </g>
    <g id="text_11">
     <!-- Radial distance  $r / r_s$ -->
     <g transform="translate(220.127188 321.038406) scale(0.12 -0.12)">
      <defs>
       <path id="DejaVuSerif-52" d="M 3066 2316 
Q 3284 2256 3442 2114 
Q 3600 1972 3725 1716 
L 4403 331 
L 4972 331 
L 4972 0 
L 3872 0 
L 3144 1484 
Q 2934 1916 2759 2042 
Q 2584 2169 2278 2169 
L 1581 2169 
L 1581 331 
L 2241 331 
L 2241 0 
L 353 0 
L 353 331 
L 947 331 
L 947 4331 
L 353 4331 
L 353 4666 
L 2719 4666 
Q 3400 4666 3770 4341 
Q 4141 4016 4141 3419 
Q 4141 2938 3870 2661 
Q 3600 2384 3066 2316 
z
M 1581 2503 
L 2503 2503 
Q 2975 2503 3200 2726 
Q 3425 2950 3425 3419 
Q 3425 3888 3200 4109 
Q 2975 4331 2503 4331 
L 1581 4331 
L 1581 2503 
z
" transform="scale(0.015625)"/>
       <path id="DejaVuSerif-61" d="M 2547 1044 
L 2547 1747 
L 1806 1747 
Q 1378 1747 1168 1562 
Q 959 1378 959 997 
Q 959 650 1171 447 
Q 1384 244 1747 244 
Q 2106 244 2326 466 
Q 2547 688 2547 1044 
z
M 3122 2075 
L 3122 331 
L 3634 331 
L 3634 0 
L 2547 0 
L 2547 359 
Q 2356 128 2106 18 
Q 1856 -91 1522 -91 
Q 969 -91 644 203 
Q 319 497 319 997 
Q 319 1513 691 1797 
Q 1063 2081 1741 2081 
L 2547 2081 
L 2547 2309 
Q 2547 2688 2317 2895 
Q 2088 3103 1672 3103 
Q 1328 3103 1125 2947 
Q 922 2791 872 2484 
L 575 2484 
L 575 3156 
Q 875 3284 1158 3348 
Q 1441 3413 1709 3413 
Q 2400 3413 2761 3070 
Q 3122 2728 3122 2075 
z
" transform="scale(0.015625)"/>
       <path id="DejaVuSerif-64" d="M 3359 331 
L 3909 331 
L 3909 0 
L 2784 0 
L 2784 519 
Q 2616 206 2355 57 
Q 2094 -91 1709 -91 
Q 1097 -91 708 395 
Q 319 881 319 1663 
Q 319 2444 706 2928 
Q 1094 3413 1709 3413 
Q 2094 3413 2355 3264 
Q 2616 3116 2784 2803 
L 2784 4531 
L 2241 4531 
L 2241 4863 
L 3359 4863 
L 3359 331 
z
M 2784 1497 
L 2784 1825 
Q 2784 2422 2554 2737 
Q 2325 3053 1888 3053 
Q 1444 3053 1217 2703 
Q 991 2353 991 1663 
Q 991 975 1217 622 
Q 1444 269 1888 269 
Q 2325 269 2554 583 
Q 2784 897 2784 1497 
z
" transform="scale(0.015625)"/>
       <path id="DejaVuSerif-69" d="M 622 4353 
Q 622 4497 726 4603 
Q 831 4709 978 4709 
Q 1122 4709 1226 4603 
Q 1331 4497 1331 4353 
Q 1331 4206 1228 4103 
Q 1125 4000 978 4000 
Q 831 4000 726 4103 
Q 622 4206 622 4353 
z
M 1356 331 
L 1900 331 
L 1900 0 
L 231 0 
L 231 331 
L 781 331 
L 781 2988 
L 231 2988 
L 231 3322 
L 1356 3322 
L 1356 331 
z
" transform="scale(0.015625)"/>
       <path id="DejaVuSerif-6c" d="M 1313 331 
L 1856 331 
L 1856 0 
L 184 0 
L 184 331 
L 738 331 
L 738 4531 
L 184 4531 
L 184 4863 
L 1313 4863 
L 1313 331 
z
" transform="scale(0.015625)"/>
       <path id="DejaVuSerif-20" transform="scale(0.015625)"/>
       <path id="DejaVuSerif-73" d="M 359 184 
L 359 959 
L 691 959 
Q 703 588 923 403 
Q 1144 219 1575 219 
Q 1963 219 2166 364 
Q 2369 509 2369 788 
Q 2369 1006 2220 1140 
Q 2072 1275 1594 1428 
L 1178 1569 
Q 750 1706 558 1912 
Q 366 2119 366 2438 
Q 366 2894 700 3153 
Q 1034 3413 1625 3413 
Q 1888 3413 2178 3344 
Q 2469 3275 2778 3144 
L 2778 2419 
L 2447 2419 
Q 2434 2741 2221 2922 
Q 2009 3103 1644 3103 
Q 1281 3103 1095 2975 
Q 909 2847 909 2591 
Q 909 2381 1050 2254 
Q 1191 2128 1613 1997 
L 2069 1856 
Q 2541 1709 2748 1489 
Q 2956 1269 2956 922 
Q 2956 450 2595 179 
Q 2234 -91 1600 -91 
Q 1278 -91 972 -22 
Q 666 47 359 184 
z
" transform="scale(0.015625)"/>
       <path id="DejaVuSerif-74" d="M 691 2988 
L 184 2988 
L 184 3322 
L 691 3322 
L 691 4353 
L 1269 4353 
L 1269 3322 
L 2350 3322 
L 2350 2988 
L 1269 2988 
L 1269 878 
Q 1269 456 1350 337 
Q 1431 219 1650 219 
Q 1875 219 1978 351 
Q 2081 484 2088 781 
L 2522 781 
Q 2497 328 2275 118 
Q 2053 -91 1600 -91 
Q 1103 -91 897 129 
Q 691 350 691 878 
L 691 2988 
z
" transform="scale(0.015625)"/>
       <path id="DejaVuSerif-6e" d="M 263 0 
L 263 331 
L 781 331 
L 781 2988 
L 231 2988 
L 231 3322 
L 1356 3322 
L 1356 2731 
Q 1516 3069 1770 3241 
Q 2025 3413 2363 3413 
Q 2913 3413 3172 3097 
Q 3431 2781 3431 2113 
L 3431 331 
L 3944 331 
L 3944 0 
L 2356 0 
L 2356 331 
L 2853 331 
L 2853 1931 
Q 2853 2541 2703 2767 
Q 2553 2994 2175 2994 
Q 1775 2994 1565 2701 
Q 1356 2409 1356 1850 
L 1356 331 
L 1856 331 
L 1856 0 
L 263 0 
z
" transform="scale(0.015625)"/>
       <path id="DejaVuSerif-63" d="M 3291 997 
Q 3169 466 2822 187 
Q 2475 -91 1925 -91 
Q 1200 -91 759 389 
Q 319 869 319 1663 
Q 319 2459 759 2936 
Q 1200 3413 1925 3413 
Q 2241 3413 2553 3339 
Q 2866 3266 3181 3116 
L 3181 2266 
L 2847 2266 
Q 2781 2703 2561 2903 
Q 2341 3103 1931 3103 
Q 1466 3103 1228 2742 
Q 991 2381 991 1663 
Q 991 944 1227 581 
Q 1463 219 1931 219 
Q 2303 219 2525 412 
Q 2747 606 2828 997 
L 3291 997 
z
" transform="scale(0.015625)"/>
       <path id="DejaVuSerif-65" d="M 3469 1600 
L 991 1600 
L 991 1575 
Q 991 903 1244 561 
Q 1497 219 1991 219 
Q 2369 219 2611 417 
Q 2853 616 2950 1006 
L 3413 1006 
Q 3275 459 2904 184 
Q 2534 -91 1931 -91 
Q 1203 -91 761 389 
Q 319 869 319 1663 
Q 319 2450 753 2931 
Q 1188 3413 1894 3413 
Q 2647 3413 3050 2948 
Q 3453 2484 3469 1600 
z
M 2791 1931 
Q 2772 2513 2545 2808 
Q 2319 3103 1894 3103 
Q 1497 3103 1269 2806 
Q 1041 2509 991 1931 
L 2791 1931 
z
" transform="scale(0.015625)"/>
       <path id="DejaVuSans-2f" d="M 1625 4666 
L 2156 4666 
L 531 -594 
L 0 -594 
L 1625 4666 
z
" transform="scale(0.015625)"/>
      </defs>
      <use xlink:href="#DejaVuSerif-52" transform="translate(0 0.015625)"/>
      <use xlink:href="#DejaVuSerif-61" transform="translate(75.292969 0.015625)"/>
      <use xlink:href="#DejaVuSerif-64" transform="translate(134.912109 0.015625)"/>
      <use xlink:href="#DejaVuSerif-69" transform="translate(198.925781 0.015625)"/>
      <use xlink:href="#DejaVuSerif-61" transform="translate(230.908203 0.015625)"/>
      <use xlink:href="#DejaVuSerif-6c" transform="translate(290.527344 0.015625)"/>
      <use xlink:href="#DejaVuSerif-20" transform="translate(322.509766 0.015625)"/>
      <use xlink:href="#DejaVuSerif-64" transform="translate(354.296875 0.015625)"/>
      <use xlink:href="#DejaVuSerif-69" transform="translate(418.310547 0.015625)"/>
      <use xlink:href="#DejaVuSerif-73" transform="translate(450.292969 0.015625)"/>
      <use xlink:href="#DejaVuSerif-74" transform="translate(501.611328 0.015625)"/>
      <use xlink:href="#DejaVuSerif-61" transform="translate(541.796875 0.015625)"/>
      <use xlink:href="#DejaVuSerif-6e" transform="translate(601.416016 0.015625)"/>
      <use xlink:href="#DejaVuSerif-63" transform="translate(665.820312 0.015625)"/>
      <use xlink:href="#DejaVuSerif-65" transform="translate(721.826172 0.015625)"/>
      <use xlink:href="#DejaVuSerif-20" transform="translate(781.005859 0.015625)"/>
      <use xlink:href="#DejaVuSerif-20" transform="translate(812.792969 0.015625)"/>
      <use xlink:href="#DejaVuSans-Oblique-72" transform="translate(844.580078 0.015625)"/>
      <use xlink:href="#DejaVuSans-2f" transform="translate(885.693359 0.015625)"/>
      <use xlink:href="#DejaVuSans-Oblique-72" transform="translate(919.384766 0.015625)"/>
      <use xlink:href="#DejaVuSans-Oblique-73" transform="translate(960.498047 -16.390625) scale(0.7)"/>
     </g>
    </g>
   </g>
   <g id="matplotlib.axis_2">
    <g id="ytick_1">
     <g id="line2d_21">
      <path d="M 47.307187 279.939384 
L 512.947188 279.939384 
" clip-path="url(#p845f3a509c)" style="fill: none; stroke: #b0b0b0; stroke-opacity: 0.25; stroke-width: 0.8; stroke-linecap: square"/>
     </g>
     <g id="line2d_22">
      <defs>
       <path id="md9353cfa0a" d="M 0 0 
L -3.5 0 
" style="stroke: #000000; stroke-width: 0.8"/>
      </defs>
      <g>
       <use xlink:href="#md9353cfa0a" x="47.307187" y="279.939384" style="stroke: #000000; stroke-width: 0.8"/>
      </g>
     </g>
     <g id="text_12">
      <!-- 0.0 -->
      <g transform="translate(22.81375 284.118525) scale(0.11 -0.11)">
       <defs>
        <path id="DejaVuSerif-2e" d="M 603 325 
Q 603 500 722 622 
Q 841 744 1019 744 
Q 1191 744 1312 622 
Q 1434 500 1434 325 
Q 1434 153 1312 31 
Q 1191 -91 1019 -91 
Q 841 -91 722 29 
Q 603 150 603 325 
z
" transform="scale(0.015625)"/>
       </defs>
       <use xlink:href="#DejaVuSerif-30"/>
       <use xlink:href="#DejaVuSerif-2e" transform="translate(63.623047 0)"/>
       <use xlink:href="#DejaVuSerif-30" transform="translate(95.410156 0)"/>
      </g>
     </g>
    </g>
    <g id="ytick_2">
     <g id="line2d_23">
      <path d="M 47.307187 238.599547 
L 512.947188 238.599547 
" clip-path="url(#p845f3a509c)" style="fill: none; stroke: #b0b0b0; stroke-opacity: 0.25; stroke-width: 0.8; stroke-linecap: square"/>
     </g>
     <g id="line2d_24">
      <g>
       <use xlink:href="#md9353cfa0a" x="47.307187" y="238.599547" style="stroke: #000000; stroke-width: 0.8"/>
      </g>
     </g>
     <g id="text_13">
      <!-- 0.2 -->
      <g transform="translate(22.81375 242.778688) scale(0.11 -0.11)">
       <use xlink:href="#DejaVuSerif-30"/>
       <use xlink:href="#DejaVuSerif-2e" transform="translate(63.623047 0)"/>
       <use xlink:href="#DejaVuSerif-32" transform="translate(95.410156 0)"/>
      </g>
     </g>
    </g>
    <g id="ytick_3">
     <g id="line2d_25">
      <path d="M 47.307187 197.25971 
L 512.947188 197.25971 
" clip-path="url(#p845f3a509c)" style="fill: none; stroke: #b0b0b0; stroke-opacity: 0.25; stroke-width: 0.8; stroke-linecap: square"/>
     </g>
     <g id="line2d_26">
      <g>
       <use xlink:href="#md9353cfa0a" x="47.307187" y="197.25971" style="stroke: #000000; stroke-width: 0.8"/>
      </g>
     </g>
     <g id="text_14">
      <!-- 0.4 -->
      <g transform="translate(22.81375 201.43885) scale(0.11 -0.11)">
       <use xlink:href="#DejaVuSerif-30"/>
       <use xlink:href="#DejaVuSerif-2e" transform="translate(63.623047 0)"/>
       <use xlink:href="#DejaVuSerif-34" transform="translate(95.410156 0)"/>
      </g>
     </g>
    </g>
    <g id="ytick_4">
     <g id="line2d_27">
      <path d="M 47.307187 155.919872 
L 512.947188 155.919872 
" clip-path="url(#p845f3a509c)" style="fill: none; stroke: #b0b0b0; stroke-opacity: 0.25; stroke-width: 0.8; stroke-linecap: square"/>
     </g>
     <g id="line2d_28">
      <g>
       <use xlink:href="#md9353cfa0a" x="47.307187" y="155.919872" style="stroke: #000000; stroke-width: 0.8"/>
      </g>
     </g>
     <g id="text_15">
      <!-- 0.6 -->
      <g transform="translate(22.81375 160.099013) scale(0.11 -0.11)">
       <use xlink:href="#DejaVuSerif-30"/>
       <use xlink:href="#DejaVuSerif-2e" transform="translate(63.623047 0)"/>
       <use xlink:href="#DejaVuSerif-36" transform="translate(95.410156 0)"/>
      </g>
     </g>
    </g>
    <g id="ytick_5">
     <g id="line2d_29">
      <path d="M 47.307187 114.580035 
L 512.947188 114.580035 
" clip-path="url(#p845f3a509c)" style="fill: none; stroke: #b0b0b0; stroke-opacity: 0.25; stroke-width: 0.8; stroke-linecap: square"/>
     </g>
     <g id="line2d_30">
      <g>
       <use xlink:href="#md9353cfa0a" x="47.307187" y="114.580035" style="stroke: #000000; stroke-width: 0.8"/>
      </g>
     </g>
     <g id="text_16">
      <!-- 0.8 -->
      <g transform="translate(22.81375 118.759175) scale(0.11 -0.11)">
       <use xlink:href="#DejaVuSerif-30"/>
       <use xlink:href="#DejaVuSerif-2e" transform="translate(63.623047 0)"/>
       <use xlink:href="#DejaVuSerif-38" transform="translate(95.410156 0)"/>
      </g>
     </g>
    </g>
    <g id="ytick_6">
     <g id="line2d_31">
      <path d="M 47.307187 73.240197 
L 512.947188 73.240197 
" clip-path="url(#p845f3a509c)" style="fill: none; stroke: #b0b0b0; stroke-opacity: 0.25; stroke-width: 0.8; stroke-linecap: square"/>
     </g>
     <g id="line2d_32">
      <g>
       <use xlink:href="#md9353cfa0a" x="47.307187" y="73.240197" style="stroke: #000000; stroke-width: 0.8"/>
      </g>
     </g>
     <g id="text_17">
      <!-- 1.0 -->
      <g transform="translate(22.81375 77.419338) scale(0.11 -0.11)">
       <use xlink:href="#DejaVuSerif-31"/>
       <use xlink:href="#DejaVuSerif-2e" transform="translate(63.623047 0)"/>
       <use xlink:href="#DejaVuSerif-30" transform="translate(95.410156 0)"/>
      </g>
     </g>
    </g>
    <g id="text_18">
     <!-- $\mathrm{PSR}_{\rm eff} / l_P$ -->
     <g transform="translate(16.318125 186.914344) rotate(-90) scale(0.12 -0.12)">
      <defs>
       <path id="DejaVuSans-50" d="M 1259 4147 
L 1259 2394 
L 2053 2394 
Q 2494 2394 2734 2622 
Q 2975 2850 2975 3272 
Q 2975 3691 2734 3919 
Q 2494 4147 2053 4147 
L 1259 4147 
z
M 628 4666 
L 2053 4666 
Q 2838 4666 3239 4311 
Q 3641 3956 3641 3272 
Q 3641 2581 3239 2228 
Q 2838 1875 2053 1875 
L 1259 1875 
L 1259 0 
L 628 0 
L 628 4666 
z
" transform="scale(0.015625)"/>
       <path id="DejaVuSans-53" d="M 3425 4513 
L 3425 3897 
Q 3066 4069 2747 4153 
Q 2428 4238 2131 4238 
Q 1616 4238 1336 4038 
Q 1056 3838 1056 3469 
Q 1056 3159 1242 3001 
Q 1428 2844 1947 2747 
L 2328 2669 
Q 3034 2534 3370 2195 
Q 3706 1856 3706 1288 
Q 3706 609 3251 259 
Q 2797 -91 1919 -91 
Q 1588 -91 1214 -16 
Q 841 59 441 206 
L 441 856 
Q 825 641 1194 531 
Q 1563 422 1919 422 
Q 2459 422 2753 634 
Q 3047 847 3047 1241 
Q 3047 1584 2836 1778 
Q 2625 1972 2144 2069 
L 1759 2144 
Q 1053 2284 737 2584 
Q 422 2884 422 3419 
Q 422 4038 858 4394 
Q 1294 4750 2059 4750 
Q 2388 4750 2728 4690 
Q 3069 4631 3425 4513 
z
" transform="scale(0.015625)"/>
       <path id="DejaVuSans-52" d="M 2841 2188 
Q 3044 2119 3236 1894 
Q 3428 1669 3622 1275 
L 4263 0 
L 3584 0 
L 2988 1197 
Q 2756 1666 2539 1819 
Q 2322 1972 1947 1972 
L 1259 1972 
L 1259 0 
L 628 0 
L 628 4666 
L 2053 4666 
Q 2853 4666 3247 4331 
Q 3641 3997 3641 3322 
Q 3641 2881 3436 2590 
Q 3231 2300 2841 2188 
z
M 1259 4147 
L 1259 2491 
L 2053 2491 
Q 2509 2491 2742 2702 
Q 2975 2913 2975 3322 
Q 2975 3731 2742 3939 
Q 2509 4147 2053 4147 
L 1259 4147 
z
" transform="scale(0.015625)"/>
       <path id="DejaVuSans-65" d="M 3597 1894 
L 3597 1613 
L 953 1613 
Q 991 1019 1311 708 
Q 1631 397 2203 397 
Q 2534 397 2845 478 
Q 3156 559 3463 722 
L 3463 178 
Q 3153 47 2828 -22 
Q 2503 -91 2169 -91 
Q 1331 -91 842 396 
Q 353 884 353 1716 
Q 353 2575 817 3079 
Q 1281 3584 2069 3584 
Q 2775 3584 3186 3129 
Q 3597 2675 3597 1894 
z
M 3022 2063 
Q 3016 2534 2758 2815 
Q 2500 3097 2075 3097 
Q 1594 3097 1305 2825 
Q 1016 2553 972 2059 
L 3022 2063 
z
" transform="scale(0.015625)"/>
       <path id="DejaVuSans-66" d="M 2375 4863 
L 2375 4384 
L 1825 4384 
Q 1516 4384 1395 4259 
Q 1275 4134 1275 3809 
L 1275 3500 
L 2222 3500 
L 2222 3053 
L 1275 3053 
L 1275 0 
L 697 0 
L 697 3053 
L 147 3053 
L 147 3500 
L 697 3500 
L 697 3744 
Q 697 4328 969 4595 
Q 1241 4863 1831 4863 
L 2375 4863 
z
" transform="scale(0.015625)"/>
       <path id="DejaVuSans-Oblique-6c" d="M 1172 4863 
L 1747 4863 
L 800 0 
L 225 0 
L 1172 4863 
z
" transform="scale(0.015625)"/>
       <path id="DejaVuSans-Oblique-50" d="M 1081 4666 
L 2541 4666 
Q 3178 4666 3512 4369 
Q 3847 4072 3847 3500 
Q 3847 2731 3353 2303 
Q 2859 1875 1966 1875 
L 1172 1875 
L 806 0 
L 172 0 
L 1081 4666 
z
M 1613 4147 
L 1275 2394 
L 2069 2394 
Q 2606 2394 2893 2669 
Q 3181 2944 3181 3456 
Q 3181 3784 2986 3965 
Q 2791 4147 2438 4147 
L 1613 4147 
z
" transform="scale(0.015625)"/>
      </defs>
      <use xlink:href="#DejaVuSans-50" transform="translate(0 0.015625)"/>
      <use xlink:href="#DejaVuSans-53" transform="translate(60.302734 0.015625)"/>
      <use xlink:href="#DejaVuSans-52" transform="translate(123.779297 0.015625)"/>
      <use xlink:href="#DejaVuSans-65" transform="translate(194.21875 -16.390625) scale(0.7)"/>
      <use xlink:href="#DejaVuSans-66" transform="translate(237.285156 -16.390625) scale(0.7)"/>
      <use xlink:href="#DejaVuSans-66" transform="translate(261.928711 -16.390625) scale(0.7)"/>
      <use xlink:href="#DejaVuSans-2f" transform="translate(289.306641 0.015625)"/>
      <use xlink:href="#DejaVuSans-Oblique-6c" transform="translate(322.998047 0.015625)"/>
      <use xlink:href="#DejaVuSans-Oblique-50" transform="translate(350.78125 -16.390625) scale(0.7)"/>
     </g>
    </g>
   </g>
   <g id="line2d_33">
    <path d="M 47.824565 141.683637 
L 51.549271 138.568969 
L 55.273977 135.725442 
L 59.464271 132.808546 
L 63.654564 130.151833 
L 68.310447 127.464742 
L 73.431917 124.787545 
L 78.553387 122.362269 
L 84.140446 119.964086 
L 90.193092 117.617027 
L 96.711327 115.339594 
L 103.695151 113.145366 
L 111.144562 111.043687 
L 119.059561 109.040362 
L 127.905737 107.038566 
L 137.217502 105.159817 
L 147.460442 103.320534 
L 158.634559 101.541494 
L 170.739853 99.837372 
L 184.241911 98.163492 
L 199.140734 96.545085 
L 215.436321 94.999657 
L 233.594261 93.502437 
L 254.080142 92.042805 
L 276.893965 90.646423 
L 302.501316 89.307101 
L 331.367785 88.024721 
L 363.95896 86.802566 
L 401.206017 85.631878 
L 444.040132 84.512877 
L 493.392483 83.450548 
L 512.947188 83.083016 
L 512.947188 83.083016 
" clip-path="url(#p845f3a509c)" style="fill: none; stroke: #2980b9; stroke-width: 2.5; stroke-linecap: square"/>
   </g>
   <g id="line2d_34">
    <path d="M 47.824565 259.372047 
L 48.755742 245.827468 
L 49.686918 236.594907 
L 50.618095 229.247459 
L 52.014859 220.245838 
L 53.411624 212.790454 
L 54.808388 206.386385 
L 56.670741 199.0235 
L 58.533094 192.661459 
L 60.395447 187.063069 
L 62.2578 182.070837 
L 64.585741 176.516529 
L 66.913682 171.581832 
L 69.241623 167.154697 
L 71.569564 163.15139 
L 74.363093 158.817085 
L 77.156623 154.914697 
L 79.950152 151.3776 
L 83.209269 147.643069 
L 86.468387 144.268311 
L 89.727504 141.200917 
L 93.45221 138.017945 
L 97.176916 135.130778 
L 101.367209 132.185618 
L 105.557503 129.516098 
L 110.213385 126.827159 
L 114.869268 124.389278 
L 119.990738 121.956726 
L 125.577796 119.558561 
L 131.630443 117.217648 
L 138.148678 114.951253 
L 145.132501 112.771758 
L 152.581913 110.687424 
L 160.496912 108.703126 
L 169.343088 106.722359 
L 178.654852 104.864826 
L 188.897793 103.04739 
L 200.07191 101.290218 
L 212.642792 99.546802 
L 226.14485 97.901518 
L 241.043673 96.310289 
L 257.804848 94.749733 
L 276.428377 93.246722 
L 296.914258 91.819231 
L 320.193668 90.426259 
L 346.266608 89.095283 
L 375.598665 87.824923 
L 409.121017 86.601709 
L 447.29925 85.436939 
L 491.064542 84.329024 
L 512.947188 83.847318 
L 512.947188 83.847318 
" clip-path="url(#p845f3a509c)" style="fill: none; stroke-dasharray: 6.66,2.88; stroke-dashoffset: 0; stroke: #e74c3c; stroke-width: 1.8"/>
   </g>
   <g id="line2d_35">
    <path d="M 47.307187 290.274344 
L 47.307187 36.034344 
" clip-path="url(#p845f3a509c)" style="fill: none; stroke-dasharray: 1.5,2.475; stroke-dashoffset: 0; stroke: #c0392b; stroke-opacity: 0.7; stroke-width: 1.5"/>
   </g>
   <g id="line2d_36">
    <path d="M 47.307187 176.589791 
L 512.947188 176.589791 
" clip-path="url(#p845f3a509c)" style="fill: none; stroke-dasharray: 1.2,1.98; stroke-dashoffset: 0; stroke: #2980b9; stroke-opacity: 0.6; stroke-width: 1.2"/>
   </g>
   <g id="line2d_37">
    <path d="M 47.307187 279.939384 
L 512.947188 279.939384 
" clip-path="url(#p845f3a509c)" style="fill: none; stroke-dasharray: 1.2,1.98; stroke-dashoffset: 0; stroke: #e74c3c; stroke-opacity: 0.6; stroke-width: 1.2"/>
   </g>
   <g id="line2d_38">
    <path d="M 47.307187 73.240197 
L 512.947188 73.240197 
" clip-path="url(#p845f3a509c)" style="fill: none; stroke-dasharray: 3.7,1.6; stroke-dashoffset: 0; stroke: #27ae60; stroke-opacity: 0.5"/>
   </g>
   <g id="patch_3">
    <path d="M 47.307187 290.274344 
L 47.307187 36.034344 
" style="fill: none; stroke: #000000; stroke-width: 0.8; stroke-linejoin: miter; stroke-linecap: square"/>
   </g>
   <g id="patch_4">
    <path d="M 512.947188 290.274344 
L 512.947188 36.034344 
" style="fill: none; stroke: #000000; stroke-width: 0.8; stroke-linejoin: miter; stroke-linecap: square"/>
   </g>
   <g id="patch_5">
    <path d="M 47.307187 290.274344 
L 512.947188 290.274344 
" style="fill: none; stroke: #000000; stroke-width: 0.8; stroke-linejoin: miter; stroke-linecap: square"/>
   </g>
   <g id="patch_6">
    <path d="M 47.307187 36.034344 
L 512.947188 36.034344 
" style="fill: none; stroke: #000000; stroke-width: 0.8; stroke-linejoin: miter; stroke-linecap: square"/>
   </g>
   <g id="text_19">
    <!-- $\mathrm{PSR}_{\rm eff} = l_P/2$  at  $r = r_s$ -->
    <g style="fill: #2980b9" transform="translate(228.38941 79.532462) scale(0.095 -0.095)">
     <defs>
      <path id="DejaVuSans-3d" d="M 678 2906 
L 4684 2906 
L 4684 2381 
L 678 2381 
L 678 2906 
z
M 678 1631 
L 4684 1631 
L 4684 1100 
L 678 1100 
L 678 1631 
z
" transform="scale(0.015625)"/>
      <path id="DejaVuSans-32" d="M 1228 531 
L 3431 531 
L 3431 0 
L 469 0 
L 469 531 
Q 828 903 1448 1529 
Q 2069 2156 2228 2338 
Q 2531 2678 2651 2914 
Q 2772 3150 2772 3378 
Q 2772 3750 2511 3984 
Q 2250 4219 1831 4219 
Q 1534 4219 1204 4116 
Q 875 4013 500 3803 
L 500 4441 
Q 881 4594 1212 4672 
Q 1544 4750 1819 4750 
Q 2544 4750 2975 4387 
Q 3406 4025 3406 3419 
Q 3406 3131 3298 2873 
Q 3191 2616 2906 2266 
Q 2828 2175 2409 1742 
Q 1991 1309 1228 531 
z
" transform="scale(0.015625)"/>
     </defs>
     <use xlink:href="#DejaVuSans-50" transform="translate(0 0.015625)"/>
     <use xlink:href="#DejaVuSans-53" transform="translate(60.302734 0.015625)"/>
     <use xlink:href="#DejaVuSans-52" transform="translate(123.779297 0.015625)"/>
     <use xlink:href="#DejaVuSans-65" transform="translate(194.21875 -16.390625) scale(0.7)"/>
     <use xlink:href="#DejaVuSans-66" transform="translate(237.285156 -16.390625) scale(0.7)"/>
     <use xlink:href="#DejaVuSans-66" transform="translate(261.928711 -16.390625) scale(0.7)"/>
     <use xlink:href="#DejaVuSans-3d" transform="translate(308.789062 0.015625)"/>
     <use xlink:href="#DejaVuSans-Oblique-6c" transform="translate(412.060547 0.015625)"/>
     <use xlink:href="#DejaVuSans-Oblique-50" transform="translate(439.84375 -16.390625) scale(0.7)"/>
     <use xlink:href="#DejaVuSans-2f" transform="translate(484.790039 0.015625)"/>
     <use xlink:href="#DejaVuSans-32" transform="translate(514.856445 0.015625)"/>
     <use xlink:href="#DejaVuSerif-20" transform="translate(578.479492 0.015625)"/>
     <use xlink:href="#DejaVuSerif-20" transform="translate(610.266602 0.015625)"/>
     <use xlink:href="#DejaVuSerif-61" transform="translate(642.053711 0.015625)"/>
     <use xlink:href="#DejaVuSerif-74" transform="translate(701.672852 0.015625)"/>
     <use xlink:href="#DejaVuSerif-20" transform="translate(741.858398 0.015625)"/>
     <use xlink:href="#DejaVuSerif-20" transform="translate(773.645508 0.015625)"/>
     <use xlink:href="#DejaVuSans-Oblique-72" transform="translate(805.432617 0.015625)"/>
     <use xlink:href="#DejaVuSans-3d" transform="translate(866.02832 0.015625)"/>
     <use xlink:href="#DejaVuSans-Oblique-72" transform="translate(969.299805 0.015625)"/>
     <use xlink:href="#DejaVuSans-Oblique-73" transform="translate(1010.413086 -16.390625) scale(0.7)"/>
    </g>
   </g>
   <g id="text_20">
    <!-- $\sqrt{g_{tt}} \to 0$  at  $r = r_s$  (GR) -->
    <g style="fill: #e74c3c" transform="translate(114.566299 149.790888) scale(0.095 -0.095)">
     <defs>
      <path id="STIXSizeOneSym-Regular-221a" d="M 6970 9933 
L 3373 -1888 
L 3104 -1888 
L 1626 2918 
Q 1555 3149 1465 3251 
Q 1376 3354 1229 3354 
Q 1011 3354 794 3181 
L 717 3309 
L 1766 4115 
L 1926 4115 
L 3379 -602 
L 3405 -602 
L 6605 9933 
L 6970 9933 
z
" transform="scale(0.015625)"/>
      <path id="DejaVuSans-Oblique-67" d="M 3816 3500 
L 3219 434 
Q 3047 -456 2561 -893 
Q 2075 -1331 1253 -1331 
Q 950 -1331 690 -1286 
Q 431 -1241 206 -1147 
L 313 -588 
Q 525 -725 762 -790 
Q 1000 -856 1269 -856 
Q 1816 -856 2167 -557 
Q 2519 -259 2631 300 
L 2681 563 
Q 2441 288 2122 144 
Q 1803 0 1434 0 
Q 903 0 598 351 
Q 294 703 294 1319 
Q 294 1803 478 2267 
Q 663 2731 997 3091 
Q 1219 3328 1514 3456 
Q 1809 3584 2131 3584 
Q 2484 3584 2746 3420 
Q 3009 3256 3138 2956 
L 3238 3500 
L 3816 3500 
z
M 2950 2216 
Q 2950 2641 2750 2872 
Q 2550 3103 2181 3103 
Q 1953 3103 1747 3012 
Q 1541 2922 1394 2759 
Q 1156 2491 1023 2127 
Q 891 1763 891 1375 
Q 891 944 1092 712 
Q 1294 481 1672 481 
Q 2219 481 2584 976 
Q 2950 1472 2950 2216 
z
" transform="scale(0.015625)"/>
      <path id="DejaVuSans-Oblique-74" d="M 2706 3500 
L 2619 3053 
L 1472 3053 
L 1100 1153 
Q 1081 1047 1072 975 
Q 1063 903 1063 863 
Q 1063 663 1183 572 
Q 1303 481 1569 481 
L 2150 481 
L 2053 0 
L 1503 0 
Q 991 0 739 200 
Q 488 400 488 806 
Q 488 878 497 964 
Q 506 1050 525 1153 
L 897 3053 
L 409 3053 
L 500 3500 
L 978 3500 
L 1172 4494 
L 1747 4494 
L 1556 3500 
L 2706 3500 
z
" transform="scale(0.015625)"/>
      <path id="DejaVuSans-2192" d="M 5050 2147 
L 5050 1866 
L 3822 638 
L 3447 1013 
L 4175 1741 
L 366 1741 
L 366 2272 
L 4175 2272 
L 3447 3000 
L 3822 3375 
L 5050 2147 
z
" transform="scale(0.015625)"/>
      <path id="DejaVuSans-30" d="M 2034 4250 
Q 1547 4250 1301 3770 
Q 1056 3291 1056 2328 
Q 1056 1369 1301 889 
Q 1547 409 2034 409 
Q 2525 409 2770 889 
Q 3016 1369 3016 2328 
Q 3016 3291 2770 3770 
Q 2525 4250 2034 4250 
z
M 2034 4750 
Q 2819 4750 3233 4129 
Q 3647 3509 3647 2328 
Q 3647 1150 3233 529 
Q 2819 -91 2034 -91 
Q 1250 -91 836 529 
Q 422 1150 422 2328 
Q 422 3509 836 4129 
Q 1250 4750 2034 4750 
z
" transform="scale(0.015625)"/>
      <path id="DejaVuSerif-28" d="M 2041 -997 
Q 1281 -656 893 83 
Q 506 822 506 1931 
Q 506 3044 893 3783 
Q 1281 4522 2041 4863 
L 2041 4556 
Q 1559 4225 1350 3623 
Q 1141 3022 1141 1931 
Q 1141 844 1350 242 
Q 1559 -359 2041 -691 
L 2041 -997 
z
" transform="scale(0.015625)"/>
      <path id="DejaVuSerif-47" d="M 4097 3272 
Q 3988 3856 3641 4136 
Q 3294 4416 2675 4416 
Q 1869 4416 1472 3897 
Q 1075 3378 1075 2328 
Q 1075 1300 1484 772 
Q 1894 244 2688 244 
Q 3041 244 3362 331 
Q 3684 419 3975 594 
L 3975 1797 
L 3097 1797 
L 3097 2131 
L 4609 2131 
L 4609 391 
Q 4194 150 3714 29 
Q 3234 -91 2688 -91 
Q 1631 -91 995 570 
Q 359 1231 359 2328 
Q 359 3434 996 4092 
Q 1634 4750 2713 4750 
Q 3113 4750 3539 4658 
Q 3966 4566 4447 4378 
L 4447 3272 
L 4097 3272 
z
" transform="scale(0.015625)"/>
      <path id="DejaVuSerif-29" d="M 453 -997 
L 453 -691 
Q 934 -359 1145 242 
Q 1356 844 1356 1931 
Q 1356 3022 1145 3623 
Q 934 4225 453 4556 
L 453 4863 
Q 1216 4522 1603 3783 
Q 1991 3044 1991 1931 
Q 1991 822 1603 83 
Q 1216 -656 453 -997 
z
" transform="scale(0.015625)"/>
     </defs>
     <use xlink:href="#STIXSizeOneSym-Regular-221a" transform="translate(0 -3.015625) scale(0.584976)"/>
     <use xlink:href="#DejaVuSans-Oblique-67" transform="translate(74.334488 0.75)"/>
     <use xlink:href="#DejaVuSans-Oblique-74" transform="translate(137.81105 -15.65625) scale(0.7)"/>
     <use xlink:href="#DejaVuSans-Oblique-74" transform="translate(165.257339 -15.65625) scale(0.7)"/>
     <use xlink:href="#DejaVuSans-2192" transform="translate(227.420425 0.671875)"/>
     <use xlink:href="#DejaVuSans-30" transform="translate(330.69191 0.671875)"/>
     <use xlink:href="#DejaVuSerif-20" transform="translate(394.314957 0.671875)"/>
     <use xlink:href="#DejaVuSerif-20" transform="translate(426.102066 0.671875)"/>
     <use xlink:href="#DejaVuSerif-61" transform="translate(457.889175 0.671875)"/>
     <use xlink:href="#DejaVuSerif-74" transform="translate(517.508316 0.671875)"/>
     <use xlink:href="#DejaVuSerif-20" transform="translate(557.693863 0.671875)"/>
     <use xlink:href="#DejaVuSerif-20" transform="translate(589.480972 0.671875)"/>
     <use xlink:href="#DejaVuSans-Oblique-72" transform="translate(621.268082 0.671875)"/>
     <use xlink:href="#DejaVuSans-3d" transform="translate(681.863785 0.671875)"/>
     <use xlink:href="#DejaVuSans-Oblique-72" transform="translate(785.135269 0.671875)"/>
     <use xlink:href="#DejaVuSans-Oblique-73" transform="translate(826.24855 -15.734375) scale(0.7)"/>
     <use xlink:href="#DejaVuSerif-20" transform="translate(865.452652 0.671875)"/>
     <use xlink:href="#DejaVuSerif-20" transform="translate(897.239761 0.671875)"/>
     <use xlink:href="#DejaVuSerif-28" transform="translate(929.026871 0.671875)"/>
     <use xlink:href="#DejaVuSerif-47" transform="translate(968.040543 0.671875)"/>
     <use xlink:href="#DejaVuSerif-52" transform="translate(1047.923355 0.671875)"/>
     <use xlink:href="#DejaVuSerif-29" transform="translate(1123.216324 0.671875)"/>
     <path d="M 61.834488 80.5 
L 61.834488 86.75 
L 207.938004 86.75 
L 207.938004 80.5 
L 61.834488 80.5 
z
"/>
    </g>
   </g>
   <g id="text_21">
    <!-- Region where -->
    <g style="fill: #2980b9; opacity: 0.8" transform="translate(51.44621 83.020943) scale(0.085 -0.085)">
     <defs>
      <path id="DejaVuSerif-Italic-52" d="M 3066 2316 
Q 3272 2256 3403 2114 
Q 3534 1972 3609 1716 
L 4016 331 
L 4584 331 
L 4522 0 
L 3422 0 
L 2981 1484 
Q 2856 1916 2706 2042 
Q 2556 2169 2250 2169 
L 1553 2169 
L 1194 331 
L 1853 331 
L 1791 0 
L -97 0 
L -34 331 
L 559 331 
L 1338 4331 
L 744 4331 
L 809 4666 
L 3175 4666 
Q 3856 4666 4164 4341 
Q 4472 4016 4356 3419 
Q 4263 2938 3938 2661 
Q 3613 2384 3066 2316 
z
M 1619 2503 
L 2541 2503 
Q 3013 2503 3280 2726 
Q 3547 2950 3639 3419 
Q 3731 3888 3548 4109 
Q 3366 4331 2894 4331 
L 1972 4331 
L 1619 2503 
z
" transform="scale(0.015625)"/>
      <path id="DejaVuSerif-Italic-65" d="M 938 1275 
Q 925 1156 925 1050 
Q 925 756 1031 563 
Q 1216 219 1709 219 
Q 2072 219 2250 328 
Q 2569 525 2644 778 
L 3066 778 
Q 2941 381 2475 103 
Q 2150 -91 1506 -91 
Q 863 -91 516 388 
Q 272 722 272 1206 
Q 272 1419 319 1659 
Q 472 2450 1000 2931 
Q 1528 3413 2278 3413 
Q 3500 3413 3500 2547 
Q 3500 1913 2859 1603 
Q 2206 1288 938 1275 
z
M 2541 1975 
Q 2891 2181 2891 2569 
Q 2891 3103 2181 3103 
Q 1763 3103 1472 2784 
Q 1181 2466 1003 1606 
Q 2006 1653 2541 1975 
z
" transform="scale(0.015625)"/>
      <path id="DejaVuSerif-Italic-67" d="M 3822 3322 
L 3188 72 
Q 3044 -672 2581 -1031 
Q 2078 -1422 1381 -1422 
Q 1053 -1422 765 -1362 
Q 478 -1303 225 -1184 
L 363 -488 
L 663 -488 
Q 653 -813 834 -963 
Q 1016 -1113 1406 -1113 
Q 1913 -1113 2203 -825 
Q 2494 -544 2613 72 
L 2700 519 
Q 2472 206 2181 57 
Q 1891 -91 1525 -91 
Q 975 -91 697 281 
Q 522 516 503 841 
Q 491 1031 534 1256 
Q 750 2359 1516 2928 
Q 2169 3409 2931 3413 
Q 3631 3416 3822 3322 
z
M 3184 2988 
Q 3181 3094 2844 3094 
Q 2234 3094 1775 2625 
Q 1316 2153 1147 1297 
Q 1100 1044 1113 853 
Q 1125 659 1203 528 
Q 1356 269 1756 269 
Q 2194 269 2484 583 
Q 2775 897 2891 1497 
L 2953 1825 
L 3184 2988 
z
" transform="scale(0.015625)"/>
      <path id="DejaVuSerif-Italic-69" d="M 1009 4353 
Q 1038 4497 1163 4603 
Q 1288 4709 1434 4709 
Q 1578 4709 1663 4603 
Q 1728 4522 1728 4422 
Q 1728 4388 1719 4353 
Q 1691 4206 1567 4103 
Q 1444 4000 1297 4000 
Q 1150 4000 1066 4103 
Q 1003 4181 1003 4281 
Q 1003 4316 1009 4353 
z
M 963 331 
L 1506 331 
L 1444 0 
L 325 0 
L 903 2988 
L 353 2988 
L 419 3322 
L 1544 3322 
L 963 331 
z
" transform="scale(0.015625)"/>
      <path id="DejaVuSerif-Italic-6f" d="M 1644 219 
Q 2106 219 2414 584 
Q 2722 950 2859 1663 
Q 2922 1988 2922 2241 
Q 2922 2541 2834 2738 
Q 2669 3103 2206 3103 
Q 1744 3103 1436 2739 
Q 1128 2375 991 1663 
Q 928 1338 928 1088 
Q 928 784 1019 584 
Q 1184 219 1644 219 
z
M 1584 -91 
Q 859 -91 513 388 
Q 272 722 272 1203 
Q 272 1419 319 1663 
Q 472 2456 1005 2934 
Q 1538 3413 2266 3413 
Q 2994 3413 3341 2934 
Q 3578 2603 3578 2122 
Q 3578 1906 3531 1663 
Q 3378 869 2845 389 
Q 2313 -91 1584 -91 
z
" transform="scale(0.015625)"/>
      <path id="DejaVuSerif-Italic-6e" d="M 450 0 
L 1031 2988 
L 481 2988 
L 544 3322 
L 1669 3322 
L 1556 2731 
Q 1781 3069 2068 3241 
Q 2356 3413 2694 3413 
Q 3244 3413 3444 3097 
Q 3563 2906 3563 2588 
Q 3563 2378 3509 2113 
L 3163 331 
L 3675 331 
L 3613 0 
L 2522 0 
L 2897 1931 
Q 2959 2253 2959 2469 
Q 2959 2659 2909 2769 
Q 2803 2994 2425 2994 
Q 2025 2994 1759 2701 
Q 1494 2409 1384 1850 
L 1025 0 
L 450 0 
z
" transform="scale(0.015625)"/>
      <path id="DejaVuSerif-Italic-20" transform="scale(0.015625)"/>
      <path id="DejaVuSerif-Italic-77" d="M 3741 728 
Q 4156 1178 4250 1344 
Q 4594 1969 4931 2988 
L 4447 2984 
L 4513 3322 
L 5347 3322 
L 5281 2984 
L 5278 2984 
Q 4959 1825 4656 1266 
Q 4209 469 3719 0 
L 3241 0 
L 2900 2484 
L 1597 0 
L 1138 0 
L 734 2988 
L 359 2981 
L 425 3322 
L 1281 3322 
L 1631 728 
L 2991 3322 
L 3394 3322 
L 3741 728 
z
" transform="scale(0.015625)"/>
      <path id="DejaVuSerif-Italic-68" d="M 309 0 
L 1191 4531 
L 641 4531 
L 703 4863 
L 1828 4863 
L 1416 2731 
Q 1641 3069 1928 3241 
Q 2216 3413 2553 3413 
Q 3103 3413 3300 3097 
Q 3422 2906 3422 2588 
Q 3422 2378 3369 2113 
L 3022 331 
L 3534 331 
L 3472 0 
L 2381 0 
L 2756 1931 
Q 2819 2253 2819 2469 
Q 2819 2659 2769 2763 
Q 2666 2988 2284 2988 
Q 1884 2988 1617 2697 
Q 1350 2406 1244 1850 
L 884 0 
L 309 0 
z
" transform="scale(0.015625)"/>
      <path id="DejaVuSerif-Italic-72" d="M 3375 3328 
L 3213 2497 
L 2881 2497 
Q 2891 2559 2891 2613 
Q 2891 2775 2816 2866 
Q 2719 2988 2484 2988 
Q 2059 2988 1775 2694 
Q 1491 2400 1384 1850 
L 1025 0 
L 450 0 
L 1031 2994 
L 481 2994 
L 544 3322 
L 1669 3322 
L 1556 2731 
Q 1791 3078 2089 3245 
Q 2388 3413 2769 3413 
Q 2909 3413 3059 3391 
Q 3209 3369 3375 3328 
z
" transform="scale(0.015625)"/>
     </defs>
     <use xlink:href="#DejaVuSerif-Italic-52"/>
     <use xlink:href="#DejaVuSerif-Italic-65" transform="translate(75.292969 0)"/>
     <use xlink:href="#DejaVuSerif-Italic-67" transform="translate(134.472656 0)"/>
     <use xlink:href="#DejaVuSerif-Italic-69" transform="translate(198.486328 0)"/>
     <use xlink:href="#DejaVuSerif-Italic-6f" transform="translate(230.46875 0)"/>
     <use xlink:href="#DejaVuSerif-Italic-6e" transform="translate(290.673828 0)"/>
     <use xlink:href="#DejaVuSerif-Italic-20" transform="translate(355.078125 0)"/>
     <use xlink:href="#DejaVuSerif-Italic-77" transform="translate(386.865234 0)"/>
     <use xlink:href="#DejaVuSerif-Italic-68" transform="translate(472.460938 0)"/>
     <use xlink:href="#DejaVuSerif-Italic-65" transform="translate(536.865234 0)"/>
     <use xlink:href="#DejaVuSerif-Italic-72" transform="translate(596.044922 0)"/>
     <use xlink:href="#DejaVuSerif-Italic-65" transform="translate(643.847656 0)"/>
    </g>
    <!-- PSR $\leq l_P/2$ -->
    <g style="fill: #2980b9; opacity: 0.8" transform="translate(51.44621 92.659943) scale(0.085 -0.085)">
     <defs>
      <path id="DejaVuSerif-Italic-50" d="M 1594 2375 
L 2419 2375 
Q 2884 2375 3176 2626 
Q 3469 2878 3559 3353 
Q 3653 3831 3458 4081 
Q 3263 4331 2797 4331 
L 1972 4331 
L 1594 2375 
z
M -97 0 
L -34 331 
L 559 331 
L 1338 4331 
L 744 4331 
L 809 4666 
L 3016 4666 
Q 3716 4666 4056 4311 
Q 4397 3956 4278 3353 
Q 4163 2753 3684 2397 
Q 3206 2041 2506 2041 
L 1528 2041 
L 1194 331 
L 1916 331 
L 1853 0 
L -97 0 
z
" transform="scale(0.015625)"/>
      <path id="DejaVuSerif-Italic-53" d="M 184 225 
L 391 1288 
L 750 1284 
Q 663 753 905 498 
Q 1147 244 1744 244 
Q 2300 244 2636 464 
Q 2972 684 3053 1106 
Q 3119 1444 2976 1625 
Q 2834 1806 2300 1978 
L 1722 2163 
Q 1091 2366 877 2669 
Q 663 2972 766 3500 
Q 881 4094 1367 4422 
Q 1853 4750 2616 4750 
Q 2941 4750 3314 4679 
Q 3688 4609 4097 4475 
L 3906 3481 
L 3553 3481 
Q 3594 3975 3361 4195 
Q 3128 4416 2563 4416 
Q 2069 4416 1772 4214 
Q 1475 4013 1400 3628 
Q 1334 3294 1490 3103 
Q 1647 2913 2241 2725 
L 2784 2553 
Q 3381 2363 3593 2067 
Q 3806 1772 3709 1275 
Q 3578 597 3076 253 
Q 2575 -91 1716 -91 
Q 1331 -91 948 -12 
Q 566 66 184 225 
z
" transform="scale(0.015625)"/>
      <path id="DejaVuSans-2264" d="M 4684 3175 
L 1684 2309 
L 4684 1453 
L 4684 897 
L 678 2047 
L 678 2578 
L 4684 3725 
L 4684 3175 
z
M 678 531 
L 4684 531 
L 4684 0 
L 678 0 
L 678 531 
z
" transform="scale(0.015625)"/>
     </defs>
     <use xlink:href="#DejaVuSerif-Italic-50" transform="translate(0 0.015625)"/>
     <use xlink:href="#DejaVuSerif-Italic-53" transform="translate(67.285156 0.015625)"/>
     <use xlink:href="#DejaVuSerif-Italic-52" transform="translate(135.791016 0.015625)"/>
     <use xlink:href="#DejaVuSerif-Italic-20" transform="translate(211.083984 0.015625)"/>
     <use xlink:href="#DejaVuSans-2264" transform="translate(262.353516 0.015625)"/>
     <use xlink:href="#DejaVuSans-Oblique-6c" transform="translate(365.625 0.015625)"/>
     <use xlink:href="#DejaVuSans-Oblique-50" transform="translate(393.408203 -16.390625) scale(0.7)"/>
     <use xlink:href="#DejaVuSans-2f" transform="translate(438.354492 0.015625)"/>
     <use xlink:href="#DejaVuSans-32" transform="translate(468.420898 0.015625)"/>
    </g>
    <!-- (inside horizon) -->
    <g style="fill: #2980b9; opacity: 0.8" transform="translate(51.44621 102.178084) scale(0.085 -0.085)">
     <defs>
      <path id="DejaVuSerif-Italic-28" d="M 1472 -997 
Q 778 -656 534 83 
Q 291 822 506 1931 
Q 722 3044 1253 3783 
Q 1784 4522 2609 4863 
L 2550 4556 
Q 2006 4225 1679 3623 
Q 1353 3022 1141 1931 
Q 928 844 1020 242 
Q 1113 -359 1531 -691 
L 1472 -997 
z
" transform="scale(0.015625)"/>
      <path id="DejaVuSerif-Italic-73" d="M 222 959 
L 553 959 
Q 541 869 541 788 
Q 541 219 1313 219 
Q 2088 219 2200 788 
Q 2209 844 2209 944 
Q 2209 1041 2103 1158 
Q 1997 1275 1550 1428 
L 1159 1569 
Q 759 1706 629 1882 
Q 500 2059 500 2263 
Q 500 2344 516 2438 
Q 606 2894 990 3153 
Q 1375 3413 1931 3413 
Q 2484 3413 3066 3144 
L 2925 2419 
L 2594 2419 
Q 2606 2491 2606 2553 
Q 2606 2781 2448 2942 
Q 2291 3103 1925 3103 
Q 1191 3103 1091 2591 
Q 1078 2538 1078 2444 
Q 1078 2347 1179 2237 
Q 1281 2128 1678 1997 
L 2106 1856 
Q 2550 1709 2716 1488 
Q 2831 1331 2831 1178 
Q 2831 522 2306 181 
Q 1894 -91 1262 -91 
Q 631 -91 72 184 
L 222 959 
z
" transform="scale(0.015625)"/>
      <path id="DejaVuSerif-Italic-64" d="M 3841 4863 
L 2897 0 
L 2322 0 
L 2422 519 
Q 2191 206 1902 57 
Q 1613 -91 1228 -91 
Q 616 -91 322 394 
Q 125 716 125 1166 
Q 125 1397 178 1663 
Q 331 2444 812 2928 
Q 1294 3413 1909 3413 
Q 2294 3413 2525 3264 
Q 2756 3116 2866 2803 
L 3200 4531 
L 2656 4531 
L 2722 4863 
L 3841 4863 
z
M 2613 1497 
L 2675 1825 
Q 2722 2069 2722 2266 
Q 2722 2550 2622 2738 
Q 2456 3053 2019 3053 
Q 1575 3053 1279 2703 
Q 984 2353 850 1663 
Q 788 1347 788 1103 
Q 788 813 875 622 
Q 1031 269 1475 269 
Q 1913 269 2203 583 
Q 2494 897 2613 1497 
z
" transform="scale(0.015625)"/>
      <path id="DejaVuSerif-Italic-7a" d="M 2550 3047 
Q 2888 3047 3216 3322 
L 3403 3322 
L 3353 3053 
L 1081 684 
Q 1113 675 1203 647 
Q 1309 613 1416 544 
L 1569 450 
Q 1863 272 2075 272 
Q 2484 272 2966 741 
L 2891 363 
Q 2356 -163 1950 -163 
Q 1703 -156 1356 59 
Q 1009 275 791 275 
Q 453 275 125 0 
L -63 0 
L -13 269 
L 2263 2634 
Q 2228 2647 2138 2675 
Q 2031 2709 1925 2778 
L 1772 2872 
Q 1478 3050 1266 3050 
Q 856 3050 375 2581 
L 450 2959 
Q 984 3484 1391 3484 
Q 1638 3478 1984 3262 
Q 2331 3047 2550 3047 
z
" transform="scale(0.015625)"/>
      <path id="DejaVuSerif-Italic-29" d="M -113 -997 
L -53 -691 
Q 491 -359 819 242 
Q 1147 844 1359 1931 
Q 1572 3022 1478 3623 
Q 1384 4225 966 4556 
L 1025 4863 
Q 1722 4522 1965 3783 
Q 2209 3044 1994 1931 
Q 1778 822 1247 83 
Q 716 -656 -113 -997 
z
" transform="scale(0.015625)"/>
     </defs>
     <use xlink:href="#DejaVuSerif-Italic-28"/>
     <use xlink:href="#DejaVuSerif-Italic-69" transform="translate(39.013672 0)"/>
     <use xlink:href="#DejaVuSerif-Italic-6e" transform="translate(70.996094 0)"/>
     <use xlink:href="#DejaVuSerif-Italic-73" transform="translate(135.400391 0)"/>
     <use xlink:href="#DejaVuSerif-Italic-69" transform="translate(186.71875 0)"/>
     <use xlink:href="#DejaVuSerif-Italic-64" transform="translate(218.701172 0)"/>
     <use xlink:href="#DejaVuSerif-Italic-65" transform="translate(282.714844 0)"/>
     <use xlink:href="#DejaVuSerif-Italic-20" transform="translate(341.894531 0)"/>
     <use xlink:href="#DejaVuSerif-Italic-68" transform="translate(373.681641 0)"/>
     <use xlink:href="#DejaVuSerif-Italic-6f" transform="translate(438.085938 0)"/>
     <use xlink:href="#DejaVuSerif-Italic-72" transform="translate(498.291016 0)"/>
     <use xlink:href="#DejaVuSerif-Italic-69" transform="translate(546.09375 0)"/>
     <use xlink:href="#DejaVuSerif-Italic-7a" transform="translate(578.076172 0)"/>
     <use xlink:href="#DejaVuSerif-Italic-6f" transform="translate(630.761719 0)"/>
     <use xlink:href="#DejaVuSerif-Italic-6e" transform="translate(690.966797 0)"/>
     <use xlink:href="#DejaVuSerif-Italic-29" transform="translate(755.371094 0)"/>
    </g>
   </g>
   <g id="text_22">
    <!-- $l_P$ (flat space) -->
    <g style="fill: #27ae60; opacity: 0.8" transform="translate(435.340521 69.106214) scale(0.09 -0.09)">
     <defs>
      <path id="DejaVuSerif-66" d="M 2753 4078 
L 2450 4078 
Q 2447 4313 2317 4434 
Q 2188 4556 1941 4556 
Q 1619 4556 1487 4379 
Q 1356 4203 1356 3750 
L 1356 3322 
L 2284 3322 
L 2284 2988 
L 1356 2988 
L 1356 331 
L 2094 331 
L 2094 0 
L 231 0 
L 231 331 
L 781 331 
L 781 2988 
L 231 2988 
L 231 3322 
L 781 3322 
L 781 3738 
Q 781 4294 1070 4578 
Q 1359 4863 1919 4863 
Q 2128 4863 2337 4825 
Q 2547 4788 2753 4709 
L 2753 4078 
z
" transform="scale(0.015625)"/>
      <path id="DejaVuSerif-70" d="M 1313 1825 
L 1313 1497 
Q 1313 897 1542 583 
Q 1772 269 2209 269 
Q 2650 269 2876 622 
Q 3103 975 3103 1663 
Q 3103 2353 2876 2703 
Q 2650 3053 2209 3053 
Q 1772 3053 1542 2737 
Q 1313 2422 1313 1825 
z
M 738 2988 
L 184 2988 
L 184 3322 
L 1313 3322 
L 1313 2803 
Q 1481 3116 1742 3264 
Q 2003 3413 2388 3413 
Q 3000 3413 3387 2928 
Q 3775 2444 3775 1663 
Q 3775 881 3387 395 
Q 3000 -91 2388 -91 
Q 2003 -91 1742 57 
Q 1481 206 1313 519 
L 1313 -997 
L 1856 -997 
L 1856 -1331 
L 184 -1331 
L 184 -997 
L 738 -997 
L 738 2988 
z
" transform="scale(0.015625)"/>
     </defs>
     <use xlink:href="#DejaVuSans-Oblique-6c" transform="translate(0 0.015625)"/>
     <use xlink:href="#DejaVuSans-Oblique-50" transform="translate(27.783203 -16.390625) scale(0.7)"/>
     <use xlink:href="#DejaVuSerif-20" transform="translate(72.729492 0.015625)"/>
     <use xlink:href="#DejaVuSerif-28" transform="translate(104.516602 0.015625)"/>
     <use xlink:href="#DejaVuSerif-66" transform="translate(143.530273 0.015625)"/>
     <use xlink:href="#DejaVuSerif-6c" transform="translate(180.541992 0.015625)"/>
     <use xlink:href="#DejaVuSerif-61" transform="translate(212.524414 0.015625)"/>
     <use xlink:href="#DejaVuSerif-74" transform="translate(272.143555 0.015625)"/>
     <use xlink:href="#DejaVuSerif-20" transform="translate(312.329102 0.015625)"/>
     <use xlink:href="#DejaVuSerif-73" transform="translate(344.116211 0.015625)"/>
     <use xlink:href="#DejaVuSerif-70" transform="translate(395.43457 0.015625)"/>
     <use xlink:href="#DejaVuSerif-61" transform="translate(459.448242 0.015625)"/>
     <use xlink:href="#DejaVuSerif-63" transform="translate(519.067383 0.015625)"/>
     <use xlink:href="#DejaVuSerif-65" transform="translate(575.073242 0.015625)"/>
     <use xlink:href="#DejaVuSerif-29" transform="translate(634.25293 0.015625)"/>
    </g>
   </g>
   <g id="text_23">
    <!-- Figure 3. PSR contraction approaching the Schwarzschild horizon. -->
    <g transform="translate(93.435703 15.558281) scale(0.11 -0.11)">
     <defs>
      <path id="DejaVuSerif-46" d="M 353 0 
L 353 331 
L 947 331 
L 947 4331 
L 353 4331 
L 353 4666 
L 4172 4666 
L 4172 3628 
L 3788 3628 
L 3788 4281 
L 1581 4281 
L 1581 2719 
L 3175 2719 
L 3175 3303 
L 3559 3303 
L 3559 1753 
L 3175 1753 
L 3175 2338 
L 1581 2338 
L 1581 331 
L 2328 331 
L 2328 0 
L 353 0 
z
" transform="scale(0.015625)"/>
      <path id="DejaVuSerif-67" d="M 3359 2988 
L 3359 72 
Q 3359 -644 2965 -1033 
Q 2572 -1422 1844 -1422 
Q 1516 -1422 1216 -1362 
Q 916 -1303 641 -1184 
L 641 -488 
L 941 -488 
Q 997 -813 1206 -963 
Q 1416 -1113 1806 -1113 
Q 2313 -1113 2548 -827 
Q 2784 -541 2784 72 
L 2784 519 
Q 2616 206 2355 57 
Q 2094 -91 1709 -91 
Q 1097 -91 708 395 
Q 319 881 319 1663 
Q 319 2444 706 2928 
Q 1094 3413 1709 3413 
Q 2094 3413 2355 3264 
Q 2616 3116 2784 2803 
L 2784 3322 
L 3909 3322 
L 3909 2988 
L 3359 2988 
z
M 2784 1825 
Q 2784 2422 2554 2737 
Q 2325 3053 1888 3053 
Q 1444 3053 1217 2703 
Q 991 2353 991 1663 
Q 991 975 1217 622 
Q 1444 269 1888 269 
Q 2325 269 2554 583 
Q 2784 897 2784 1497 
L 2784 1825 
z
" transform="scale(0.015625)"/>
      <path id="DejaVuSerif-75" d="M 2266 3322 
L 3341 3322 
L 3341 331 
L 3884 331 
L 3884 0 
L 2766 0 
L 2766 588 
Q 2606 256 2353 82 
Q 2100 -91 1766 -91 
Q 1213 -91 952 223 
Q 691 538 691 1209 
L 691 2988 
L 172 2988 
L 172 3322 
L 1269 3322 
L 1269 1388 
Q 1269 781 1417 556 
Q 1566 331 1947 331 
Q 2347 331 2556 625 
Q 2766 919 2766 1478 
L 2766 2988 
L 2266 2988 
L 2266 3322 
z
" transform="scale(0.015625)"/>
      <path id="DejaVuSerif-72" d="M 3059 3328 
L 3059 2497 
L 2728 2497 
Q 2713 2744 2591 2866 
Q 2469 2988 2234 2988 
Q 1809 2988 1582 2694 
Q 1356 2400 1356 1850 
L 1356 331 
L 2022 331 
L 2022 0 
L 263 0 
L 263 331 
L 781 331 
L 781 2994 
L 231 2994 
L 231 3322 
L 1356 3322 
L 1356 2731 
Q 1525 3078 1790 3245 
Q 2056 3413 2438 3413 
Q 2578 3413 2733 3391 
Q 2888 3369 3059 3328 
z
" transform="scale(0.015625)"/>
      <path id="DejaVuSerif-50" d="M 1581 2375 
L 2406 2375 
Q 2872 2375 3115 2626 
Q 3359 2878 3359 3353 
Q 3359 3831 3115 4081 
Q 2872 4331 2406 4331 
L 1581 4331 
L 1581 2375 
z
M 353 0 
L 353 331 
L 947 331 
L 947 4331 
L 353 4331 
L 353 4666 
L 2559 4666 
Q 3259 4666 3668 4311 
Q 4078 3956 4078 3353 
Q 4078 2753 3668 2397 
Q 3259 2041 2559 2041 
L 1581 2041 
L 1581 331 
L 2303 331 
L 2303 0 
L 353 0 
z
" transform="scale(0.015625)"/>
      <path id="DejaVuSerif-53" d="M 594 225 
L 594 1288 
L 953 1284 
Q 969 753 1261 498 
Q 1553 244 2150 244 
Q 2706 244 2998 464 
Q 3291 684 3291 1106 
Q 3291 1444 3114 1625 
Q 2938 1806 2369 1978 
L 1753 2163 
Q 1084 2366 811 2669 
Q 538 2972 538 3500 
Q 538 4094 959 4422 
Q 1381 4750 2144 4750 
Q 2469 4750 2856 4679 
Q 3244 4609 3681 4475 
L 3681 3481 
L 3328 3481 
Q 3275 3975 2998 4195 
Q 2722 4416 2156 4416 
Q 1663 4416 1405 4214 
Q 1147 4013 1147 3628 
Q 1147 3294 1340 3103 
Q 1534 2913 2163 2725 
L 2741 2553 
Q 3375 2363 3645 2067 
Q 3916 1772 3916 1275 
Q 3916 597 3481 253 
Q 3047 -91 2188 -91 
Q 1803 -91 1404 -12 
Q 1006 66 594 225 
z
" transform="scale(0.015625)"/>
      <path id="DejaVuSerif-6f" d="M 1925 219 
Q 2388 219 2623 584 
Q 2859 950 2859 1663 
Q 2859 2375 2623 2739 
Q 2388 3103 1925 3103 
Q 1463 3103 1227 2739 
Q 991 2375 991 1663 
Q 991 950 1228 584 
Q 1466 219 1925 219 
z
M 1925 -91 
Q 1200 -91 759 389 
Q 319 869 319 1663 
Q 319 2456 758 2934 
Q 1197 3413 1925 3413 
Q 2653 3413 3092 2934 
Q 3531 2456 3531 1663 
Q 3531 869 3092 389 
Q 2653 -91 1925 -91 
z
" transform="scale(0.015625)"/>
      <path id="DejaVuSerif-68" d="M 263 0 
L 263 331 
L 781 331 
L 781 4531 
L 231 4531 
L 231 4863 
L 1356 4863 
L 1356 2731 
Q 1516 3069 1770 3241 
Q 2025 3413 2363 3413 
Q 2913 3413 3172 3097 
Q 3431 2781 3431 2113 
L 3431 331 
L 3944 331 
L 3944 0 
L 2356 0 
L 2356 331 
L 2853 331 
L 2853 1931 
Q 2853 2541 2704 2764 
Q 2556 2988 2175 2988 
Q 1775 2988 1565 2697 
Q 1356 2406 1356 1850 
L 1356 331 
L 1856 331 
L 1856 0 
L 263 0 
z
" transform="scale(0.015625)"/>
      <path id="DejaVuSerif-77" d="M 3072 3322 
L 3922 728 
L 4672 2988 
L 4191 2988 
L 4191 3322 
L 5394 3322 
L 5394 2988 
L 5025 2988 
L 4038 0 
L 3559 0 
L 2741 2484 
L 1919 0 
L 1459 0 
L 475 2988 
L 103 2988 
L 103 3322 
L 1606 3322 
L 1606 2988 
L 1069 2988 
L 1813 728 
L 2669 3322 
L 3072 3322 
z
" transform="scale(0.015625)"/>
      <path id="DejaVuSerif-7a" d="M 256 0 
L 256 269 
L 2338 2988 
L 691 2988 
L 691 2413 
L 359 2413 
L 359 3322 
L 3078 3322 
L 3078 3053 
L 997 331 
L 2803 331 
L 2803 934 
L 3138 934 
L 3138 0 
L 256 0 
z
" transform="scale(0.015625)"/>
     </defs>
     <use xlink:href="#DejaVuSerif-46"/>
     <use xlink:href="#DejaVuSerif-69" transform="translate(69.384766 0)"/>
     <use xlink:href="#DejaVuSerif-67" transform="translate(101.367188 0)"/>
     <use xlink:href="#DejaVuSerif-75" transform="translate(165.380859 0)"/>
     <use xlink:href="#DejaVuSerif-72" transform="translate(229.785156 0)"/>
     <use xlink:href="#DejaVuSerif-65" transform="translate(277.587891 0)"/>
     <use xlink:href="#DejaVuSerif-20" transform="translate(336.767578 0)"/>
     <use xlink:href="#DejaVuSerif-33" transform="translate(368.554688 0)"/>
     <use xlink:href="#DejaVuSerif-2e" transform="translate(432.177734 0)"/>
     <use xlink:href="#DejaVuSerif-20" transform="translate(463.964844 0)"/>
     <use xlink:href="#DejaVuSerif-50" transform="translate(495.751953 0)"/>
     <use xlink:href="#DejaVuSerif-53" transform="translate(563.037109 0)"/>
     <use xlink:href="#DejaVuSerif-52" transform="translate(631.542969 0)"/>
     <use xlink:href="#DejaVuSerif-20" transform="translate(706.835938 0)"/>
     <use xlink:href="#DejaVuSerif-63" transform="translate(738.623047 0)"/>
     <use xlink:href="#DejaVuSerif-6f" transform="translate(794.628906 0)"/>
     <use xlink:href="#DejaVuSerif-6e" transform="translate(854.833984 0)"/>
     <use xlink:href="#DejaVuSerif-74" transform="translate(919.238281 0)"/>
     <use xlink:href="#DejaVuSerif-72" transform="translate(959.423828 0)"/>
     <use xlink:href="#DejaVuSerif-61" transform="translate(1007.226562 0)"/>
     <use xlink:href="#DejaVuSerif-63" transform="translate(1066.845703 0)"/>
     <use xlink:href="#DejaVuSerif-74" transform="translate(1122.851562 0)"/>
     <use xlink:href="#DejaVuSerif-69" transform="translate(1163.037109 0)"/>
     <use xlink:href="#DejaVuSerif-6f" transform="translate(1195.019531 0)"/>
     <use xlink:href="#DejaVuSerif-6e" transform="translate(1255.224609 0)"/>
     <use xlink:href="#DejaVuSerif-20" transform="translate(1319.628906 0)"/>
     <use xlink:href="#DejaVuSerif-61" transform="translate(1351.416016 0)"/>
     <use xlink:href="#DejaVuSerif-70" transform="translate(1411.035156 0)"/>
     <use xlink:href="#DejaVuSerif-70" transform="translate(1475.048828 0)"/>
     <use xlink:href="#DejaVuSerif-72" transform="translate(1539.0625 0)"/>
     <use xlink:href="#DejaVuSerif-6f" transform="translate(1586.865234 0)"/>
     <use xlink:href="#DejaVuSerif-61" transform="translate(1647.070312 0)"/>
     <use xlink:href="#DejaVuSerif-63" transform="translate(1706.689453 0)"/>
     <use xlink:href="#DejaVuSerif-68" transform="translate(1762.695312 0)"/>
     <use xlink:href="#DejaVuSerif-69" transform="translate(1827.099609 0)"/>
     <use xlink:href="#DejaVuSerif-6e" transform="translate(1859.082031 0)"/>
     <use xlink:href="#DejaVuSerif-67" transform="translate(1923.486328 0)"/>
     <use xlink:href="#DejaVuSerif-20" transform="translate(1987.5 0)"/>
     <use xlink:href="#DejaVuSerif-74" transform="translate(2019.287109 0)"/>
     <use xlink:href="#DejaVuSerif-68" transform="translate(2059.472656 0)"/>
     <use xlink:href="#DejaVuSerif-65" transform="translate(2123.876953 0)"/>
     <use xlink:href="#DejaVuSerif-20" transform="translate(2183.056641 0)"/>
     <use xlink:href="#DejaVuSerif-53" transform="translate(2214.84375 0)"/>
     <use xlink:href="#DejaVuSerif-63" transform="translate(2283.349609 0)"/>
     <use xlink:href="#DejaVuSerif-68" transform="translate(2339.355469 0)"/>
     <use xlink:href="#DejaVuSerif-77" transform="translate(2403.759766 0)"/>
     <use xlink:href="#DejaVuSerif-61" transform="translate(2489.355469 0)"/>
     <use xlink:href="#DejaVuSerif-72" transform="translate(2548.974609 0)"/>
     <use xlink:href="#DejaVuSerif-7a" transform="translate(2596.777344 0)"/>
     <use xlink:href="#DejaVuSerif-73" transform="translate(2649.462891 0)"/>
     <use xlink:href="#DejaVuSerif-63" transform="translate(2700.78125 0)"/>
     <use xlink:href="#DejaVuSerif-68" transform="translate(2756.787109 0)"/>
     <use xlink:href="#DejaVuSerif-69" transform="translate(2821.191406 0)"/>
     <use xlink:href="#DejaVuSerif-6c" transform="translate(2853.173828 0)"/>
     <use xlink:href="#DejaVuSerif-64" transform="translate(2885.15625 0)"/>
     <use xlink:href="#DejaVuSerif-20" transform="translate(2949.169922 0)"/>
     <use xlink:href="#DejaVuSerif-68" transform="translate(2980.957031 0)"/>
     <use xlink:href="#DejaVuSerif-6f" transform="translate(3045.361328 0)"/>
     <use xlink:href="#DejaVuSerif-72" transform="translate(3105.566406 0)"/>
     <use xlink:href="#DejaVuSerif-69" transform="translate(3153.369141 0)"/>
     <use xlink:href="#DejaVuSerif-7a" transform="translate(3185.351562 0)"/>
     <use xlink:href="#DejaVuSerif-6f" transform="translate(3238.037109 0)"/>
     <use xlink:href="#DejaVuSerif-6e" transform="translate(3298.242188 0)"/>
     <use xlink:href="#DejaVuSerif-2e" transform="translate(3362.646484 0)"/>
    </g>
    <!-- The CPP Planck cutoff at $\mathrm{PSR}_{\rm eff} = l_P/2$ prevents the GR singularity. -->
    <g transform="translate(96.537188 28.034344) scale(0.11 -0.11)">
     <defs>
      <path id="DejaVuSerif-54" d="M 1222 0 
L 1222 331 
L 1819 331 
L 1819 4294 
L 447 4294 
L 447 3566 
L 63 3566 
L 63 4666 
L 4206 4666 
L 4206 3566 
L 3822 3566 
L 3822 4294 
L 2450 4294 
L 2450 331 
L 3047 331 
L 3047 0 
L 1222 0 
z
" transform="scale(0.015625)"/>
      <path id="DejaVuSerif-43" d="M 4513 1234 
Q 4306 581 3820 245 
Q 3334 -91 2591 -91 
Q 2134 -91 1743 65 
Q 1353 222 1050 525 
Q 700 875 529 1320 
Q 359 1766 359 2328 
Q 359 3416 987 4083 
Q 1616 4750 2644 4750 
Q 3025 4750 3456 4650 
Q 3888 4550 4384 4347 
L 4384 3272 
L 4031 3272 
Q 3916 3859 3567 4137 
Q 3219 4416 2591 4416 
Q 1844 4416 1459 3886 
Q 1075 3356 1075 2328 
Q 1075 1303 1459 773 
Q 1844 244 2591 244 
Q 3113 244 3450 492 
Q 3788 741 3938 1234 
L 4513 1234 
z
" transform="scale(0.015625)"/>
      <path id="DejaVuSerif-6b" d="M 1831 0 
L 219 0 
L 219 331 
L 738 331 
L 738 4531 
L 184 4531 
L 184 4863 
L 1313 4863 
L 1313 1697 
L 2713 2988 
L 2234 2988 
L 2234 3322 
L 3738 3322 
L 3738 2988 
L 3169 2988 
L 2181 2075 
L 3444 331 
L 3922 331 
L 3922 0 
L 2284 0 
L 2284 331 
L 2759 331 
L 1766 1697 
L 1313 1275 
L 1313 331 
L 1831 331 
L 1831 0 
z
" transform="scale(0.015625)"/>
      <path id="DejaVuSerif-76" d="M 1581 0 
L 359 2988 
L -19 2988 
L -19 3322 
L 1509 3322 
L 1509 2988 
L 978 2988 
L 1913 703 
L 2847 2988 
L 2350 2988 
L 2350 3322 
L 3597 3322 
L 3597 2988 
L 3225 2988 
L 2003 0 
L 1581 0 
z
" transform="scale(0.015625)"/>
      <path id="DejaVuSerif-79" d="M 1381 -609 
L 1600 -56 
L 359 2988 
L -19 2988 
L -19 3322 
L 1509 3322 
L 1509 2988 
L 978 2988 
L 1913 703 
L 2847 2988 
L 2350 2988 
L 2350 3322 
L 3597 3322 
L 3597 2988 
L 3225 2988 
L 1703 -750 
Q 1547 -1138 1356 -1280 
Q 1166 -1422 819 -1422 
Q 672 -1422 517 -1397 
Q 363 -1372 206 -1325 
L 206 -691 
L 500 -691 
Q 519 -903 608 -995 
Q 697 -1088 884 -1088 
Q 1056 -1088 1161 -992 
Q 1266 -897 1381 -609 
z
" transform="scale(0.015625)"/>
     </defs>
     <use xlink:href="#DejaVuSerif-54" transform="translate(0 0.015625)"/>
     <use xlink:href="#DejaVuSerif-68" transform="translate(66.699219 0.015625)"/>
     <use xlink:href="#DejaVuSerif-65" transform="translate(131.103516 0.015625)"/>
     <use xlink:href="#DejaVuSerif-20" transform="translate(190.283203 0.015625)"/>
     <use xlink:href="#DejaVuSerif-43" transform="translate(222.070312 0.015625)"/>
     <use xlink:href="#DejaVuSerif-50" transform="translate(298.583984 0.015625)"/>
     <use xlink:href="#DejaVuSerif-50" transform="translate(365.869141 0.015625)"/>
     <use xlink:href="#DejaVuSerif-20" transform="translate(433.154297 0.015625)"/>
     <use xlink:href="#DejaVuSerif-50" transform="translate(464.941406 0.015625)"/>
     <use xlink:href="#DejaVuSerif-6c" transform="translate(532.226562 0.015625)"/>
     <use xlink:href="#DejaVuSerif-61" transform="translate(564.208984 0.015625)"/>
     <use xlink:href="#DejaVuSerif-6e" transform="translate(623.828125 0.015625)"/>
     <use xlink:href="#DejaVuSerif-63" transform="translate(688.232422 0.015625)"/>
     <use xlink:href="#DejaVuSerif-6b" transform="translate(744.238281 0.015625)"/>
     <use xlink:href="#DejaVuSerif-20" transform="translate(804.833984 0.015625)"/>
     <use xlink:href="#DejaVuSerif-63" transform="translate(836.621094 0.015625)"/>
     <use xlink:href="#DejaVuSerif-75" transform="translate(892.626953 0.015625)"/>
     <use xlink:href="#DejaVuSerif-74" transform="translate(957.03125 0.015625)"/>
     <use xlink:href="#DejaVuSerif-6f" transform="translate(997.216797 0.015625)"/>
     <use xlink:href="#DejaVuSerif-66" transform="translate(1057.421875 0.015625)"/>
     <use xlink:href="#DejaVuSerif-66" transform="translate(1094.433594 0.015625)"/>
     <use xlink:href="#DejaVuSerif-20" transform="translate(1131.445312 0.015625)"/>
     <use xlink:href="#DejaVuSerif-61" transform="translate(1163.232422 0.015625)"/>
     <use xlink:href="#DejaVuSerif-74" transform="translate(1222.851562 0.015625)"/>
     <use xlink:href="#DejaVuSerif-20" transform="translate(1263.037109 0.015625)"/>
     <use xlink:href="#DejaVuSans-50" transform="translate(1294.824219 0.015625)"/>
     <use xlink:href="#DejaVuSans-53" transform="translate(1355.126953 0.015625)"/>
     <use xlink:href="#DejaVuSans-52" transform="translate(1418.603516 0.015625)"/>
     <use xlink:href="#DejaVuSans-65" transform="translate(1489.042969 -16.390625) scale(0.7)"/>
     <use xlink:href="#DejaVuSans-66" transform="translate(1532.109375 -16.390625) scale(0.7)"/>
     <use xlink:href="#DejaVuSans-66" transform="translate(1556.75293 -16.390625) scale(0.7)"/>
     <use xlink:href="#DejaVuSans-3d" transform="translate(1603.613281 0.015625)"/>
     <use xlink:href="#DejaVuSans-Oblique-6c" transform="translate(1706.884766 0.015625)"/>
     <use xlink:href="#DejaVuSans-Oblique-50" transform="translate(1734.667969 -16.390625) scale(0.7)"/>
     <use xlink:href="#DejaVuSans-2f" transform="translate(1779.614258 0.015625)"/>
     <use xlink:href="#DejaVuSans-32" transform="translate(1809.680664 0.015625)"/>
     <use xlink:href="#DejaVuSerif-20" transform="translate(1873.303711 0.015625)"/>
     <use xlink:href="#DejaVuSerif-70" transform="translate(1905.09082 0.015625)"/>
     <use xlink:href="#DejaVuSerif-72" transform="translate(1969.104492 0.015625)"/>
     <use xlink:href="#DejaVuSerif-65" transform="translate(2016.907227 0.015625)"/>
     <use xlink:href="#DejaVuSerif-76" transform="translate(2076.086914 0.015625)"/>
     <use xlink:href="#DejaVuSerif-65" transform="translate(2132.581055 0.015625)"/>
     <use xlink:href="#DejaVuSerif-6e" transform="translate(2191.760742 0.015625)"/>
     <use xlink:href="#DejaVuSerif-74" transform="translate(2256.165039 0.015625)"/>
     <use xlink:href="#DejaVuSerif-73" transform="translate(2296.350586 0.015625)"/>
     <use xlink:href="#DejaVuSerif-20" transform="translate(2347.668945 0.015625)"/>
     <use xlink:href="#DejaVuSerif-74" transform="translate(2379.456055 0.015625)"/>
     <use xlink:href="#DejaVuSerif-68" transform="translate(2419.641602 0.015625)"/>
     <use xlink:href="#DejaVuSerif-65" transform="translate(2484.045898 0.015625)"/>
     <use xlink:href="#DejaVuSerif-20" transform="translate(2543.225586 0.015625)"/>
     <use xlink:href="#DejaVuSerif-47" transform="translate(2575.012695 0.015625)"/>
     <use xlink:href="#DejaVuSerif-52" transform="translate(2654.895508 0.015625)"/>
     <use xlink:href="#DejaVuSerif-20" transform="translate(2730.188477 0.015625)"/>
     <use xlink:href="#DejaVuSerif-73" transform="translate(2761.975586 0.015625)"/>
     <use xlink:href="#DejaVuSerif-69" transform="translate(2813.293945 0.015625)"/>
     <use xlink:href="#DejaVuSerif-6e" transform="translate(2845.276367 0.015625)"/>
     <use xlink:href="#DejaVuSerif-67" transform="translate(2909.680664 0.015625)"/>
     <use xlink:href="#DejaVuSerif-75" transform="translate(2973.694336 0.015625)"/>
     <use xlink:href="#DejaVuSerif-6c" transform="translate(3038.098633 0.015625)"/>
     <use xlink:href="#DejaVuSerif-61" transform="translate(3070.081055 0.015625)"/>
     <use xlink:href="#DejaVuSerif-72" transform="translate(3129.700195 0.015625)"/>
     <use xlink:href="#DejaVuSerif-69" transform="translate(3177.50293 0.015625)"/>
     <use xlink:href="#DejaVuSerif-74" transform="translate(3209.485352 0.015625)"/>
     <use xlink:href="#DejaVuSerif-79" transform="translate(3249.670898 0.015625)"/>
     <use xlink:href="#DejaVuSerif-2e" transform="translate(3306.165039 0.015625)"/>
    </g>
   </g>
   <g id="PathCollection_1">
    <defs>
     <path id="ma7b8c9a272" d="M 0 4.472136 
C 1.186024 4.472136 2.323632 4.000923 3.162278 3.162278 
C 4.000923 2.323632 4.472136 1.186024 4.472136 0 
C 4.472136 -1.186024 4.000923 -2.323632 3.162278 -3.162278 
C 2.323632 -4.000923 1.186024 -4.472136 0 -4.472136 
C -1.186024 -4.472136 -2.323632 -4.000923 -3.162278 -3.162278 
C -4.000923 -2.323632 -4.472136 -1.186024 -4.472136 0 
C -4.472136 1.186024 -4.000923 2.323632 -3.162278 3.162278 
C -2.323632 4.000923 -1.186024 4.472136 0 4.472136 
z
" style="stroke: #2980b9"/>
    </defs>
    <g clip-path="url(#p845f3a509c)">
     <use xlink:href="#ma7b8c9a272" x="47.307187" y="176.589791" style="fill: #2980b9; stroke: #2980b9"/>
    </g>
   </g>
   <g id="PathCollection_2">
    <defs>
     <path id="m810091a68a" d="M 0 4.472136 
C 1.186024 4.472136 2.323632 4.000923 3.162278 3.162278 
C 4.000923 2.323632 4.472136 1.186024 4.472136 0 
C 4.472136 -1.186024 4.000923 -2.323632 3.162278 -3.162278 
C 2.323632 -4.000923 1.186024 -4.472136 0 -4.472136 
C -1.186024 -4.472136 -2.323632 -4.000923 -3.162278 -3.162278 
C -4.000923 -2.323632 -4.472136 -1.186024 -4.472136 0 
C -4.472136 1.186024 -4.000923 2.323632 -3.162278 3.162278 
C -2.323632 4.000923 -1.186024 4.472136 0 4.472136 
z
" style="stroke: #e74c3c"/>
    </defs>
    <g clip-path="url(#p845f3a509c)">
     <use xlink:href="#m810091a68a" x="47.307187" y="279.939384" style="fill: #e74c3c; stroke: #e74c3c"/>
    </g>
   </g>
   <g id="legend_1">
    <g id="patch_7">
     <path d="M 317.247188 267.477544 
L 505.947188 267.477544 
Q 507.947188 267.477544 507.947188 265.477544 
L 507.947188 233.599419 
Q 507.947188 231.599419 505.947188 231.599419 
L 317.247188 231.599419 
Q 315.247188 231.599419 315.247188 233.599419 
L 315.247188 265.477544 
Q 315.247188 267.477544 317.247188 267.477544 
z
" style="fill: #ffffff; opacity: 0.9; stroke: #cccccc; stroke-linejoin: miter"/>
    </g>
    <g id="line2d_39">
     <path d="M 319.247188 239.697856 
L 329.247188 239.697856 
L 339.247188 239.697856 
" style="fill: none; stroke: #2980b9; stroke-width: 2.5; stroke-linecap: square"/>
    </g>
    <g id="text_24">
     <!-- $\mathrm{PSR}_{\rm eff}/l_P = 1/(1 + k\,\Delta\mathrm{SSV})$ -->
     <g transform="translate(347.247188 243.197856) scale(0.1 -0.1)">
      <defs>
       <path id="DejaVuSans-31" d="M 794 531 
L 1825 531 
L 1825 4091 
L 703 3866 
L 703 4441 
L 1819 4666 
L 2450 4666 
L 2450 531 
L 3481 531 
L 3481 0 
L 794 0 
L 794 531 
z
" transform="scale(0.015625)"/>
       <path id="DejaVuSans-28" d="M 1984 4856 
Q 1566 4138 1362 3434 
Q 1159 2731 1159 2009 
Q 1159 1288 1364 580 
Q 1569 -128 1984 -844 
L 1484 -844 
Q 1016 -109 783 600 
Q 550 1309 550 2009 
Q 550 2706 781 3412 
Q 1013 4119 1484 4856 
L 1984 4856 
z
" transform="scale(0.015625)"/>
       <path id="DejaVuSans-2b" d="M 2944 4013 
L 2944 2272 
L 4684 2272 
L 4684 1741 
L 2944 1741 
L 2944 0 
L 2419 0 
L 2419 1741 
L 678 1741 
L 678 2272 
L 2419 2272 
L 2419 4013 
L 2944 4013 
z
" transform="scale(0.015625)"/>
       <path id="DejaVuSans-Oblique-6b" d="M 1172 4863 
L 1747 4863 
L 1197 2028 
L 3169 3500 
L 3916 3500 
L 1716 1825 
L 3322 0 
L 2625 0 
L 1131 1709 
L 800 0 
L 225 0 
L 1172 4863 
z
" transform="scale(0.015625)"/>
       <path id="DejaVuSans-394" d="M 2188 4044 
L 906 525 
L 3472 525 
L 2188 4044 
z
M 50 0 
L 1831 4666 
L 2547 4666 
L 4325 0 
L 50 0 
z
" transform="scale(0.015625)"/>
       <path id="DejaVuSans-56" d="M 1831 0 
L 50 4666 
L 709 4666 
L 2188 738 
L 3669 4666 
L 4325 4666 
L 2547 0 
L 1831 0 
z
" transform="scale(0.015625)"/>
       <path id="DejaVuSans-29" d="M 513 4856 
L 1013 4856 
Q 1481 4119 1714 3412 
Q 1947 2706 1947 2009 
Q 1947 1309 1714 600 
Q 1481 -109 1013 -844 
L 513 -844 
Q 928 -128 1133 580 
Q 1338 1288 1338 2009 
Q 1338 2731 1133 3434 
Q 928 4138 513 4856 
z
" transform="scale(0.015625)"/>
      </defs>
      <use xlink:href="#DejaVuSans-50" transform="translate(0 0.015625)"/>
      <use xlink:href="#DejaVuSans-53" transform="translate(60.302734 0.015625)"/>
      <use xlink:href="#DejaVuSans-52" transform="translate(123.779297 0.015625)"/>
      <use xlink:href="#DejaVuSans-65" transform="translate(194.21875 -16.390625) scale(0.7)"/>
      <use xlink:href="#DejaVuSans-66" transform="translate(237.285156 -16.390625) scale(0.7)"/>
      <use xlink:href="#DejaVuSans-66" transform="translate(261.928711 -16.390625) scale(0.7)"/>
      <use xlink:href="#DejaVuSans-2f" transform="translate(289.306641 0.015625)"/>
      <use xlink:href="#DejaVuSans-Oblique-6c" transform="translate(322.998047 0.015625)"/>
      <use xlink:href="#DejaVuSans-Oblique-50" transform="translate(350.78125 -16.390625) scale(0.7)"/>
      <use xlink:href="#DejaVuSans-3d" transform="translate(415.209961 0.015625)"/>
      <use xlink:href="#DejaVuSans-31" transform="translate(518.481445 0.015625)"/>
      <use xlink:href="#DejaVuSans-2f" transform="translate(582.104492 0.015625)"/>
      <use xlink:href="#DejaVuSans-28" transform="translate(615.795898 0.015625)"/>
      <use xlink:href="#DejaVuSans-31" transform="translate(654.80957 0.015625)"/>
      <use xlink:href="#DejaVuSans-2b" transform="translate(737.915039 0.015625)"/>
      <use xlink:href="#DejaVuSans-Oblique-6b" transform="translate(841.186523 0.015625)"/>
      <use xlink:href="#DejaVuSans-394" transform="translate(915.332356 0.015625)"/>
      <use xlink:href="#DejaVuSans-53" transform="translate(983.740559 0.015625)"/>
      <use xlink:href="#DejaVuSans-53" transform="translate(1047.217122 0.015625)"/>
      <use xlink:href="#DejaVuSans-56" transform="translate(1110.693684 0.015625)"/>
      <use xlink:href="#DejaVuSans-29" transform="translate(1179.101887 0.015625)"/>
     </g>
    </g>
    <g id="line2d_40">
     <path d="M 319.247188 257.877544 
L 329.247188 257.877544 
L 339.247188 257.877544 
" style="fill: none; stroke-dasharray: 6.66,2.88; stroke-dashoffset: 0; stroke: #e74c3c; stroke-width: 1.8"/>
    </g>
    <g id="text_25">
     <!-- $\sqrt{g_{tt}} = \sqrt{1 - r_s/r}$ (GR clock rate) -->
     <g transform="translate(347.247188 261.377544) scale(0.1 -0.1)">
      <defs>
       <path id="DejaVuSans-2212" d="M 678 2272 
L 4684 2272 
L 4684 1741 
L 678 1741 
L 678 2272 
z
" transform="scale(0.015625)"/>
      </defs>
      <use xlink:href="#STIXSizeOneSym-Regular-221a" transform="translate(0 -3.192188) scale(0.584976)"/>
      <use xlink:href="#DejaVuSans-Oblique-67" transform="translate(74.334488 0.573437)"/>
      <use xlink:href="#DejaVuSans-Oblique-74" transform="translate(137.81105 -15.832813) scale(0.7)"/>
      <use xlink:href="#DejaVuSans-Oblique-74" transform="translate(165.257339 -15.832813) scale(0.7)"/>
      <use xlink:href="#DejaVuSans-3d" transform="translate(227.420425 0.495312)"/>
      <use xlink:href="#STIXSizeOneSym-Regular-221a" transform="translate(330.69191 2.5625) scale(0.658125)"/>
      <use xlink:href="#DejaVuSans-31" transform="translate(412.821777 0.84375)"/>
      <use xlink:href="#DejaVuSans-2212" transform="translate(495.927246 0.84375)"/>
      <use xlink:href="#DejaVuSans-Oblique-72" transform="translate(599.19873 0.84375)"/>
      <use xlink:href="#DejaVuSans-Oblique-73" transform="translate(640.312012 -15.5625) scale(0.7)"/>
      <use xlink:href="#DejaVuSans-2f" transform="translate(679.516113 0.84375)"/>
      <use xlink:href="#DejaVuSans-Oblique-72" transform="translate(713.20752 0.84375)"/>
      <use xlink:href="#DejaVuSerif-20" transform="translate(766.820801 0.495312)"/>
      <use xlink:href="#DejaVuSerif-28" transform="translate(798.60791 0.495312)"/>
      <use xlink:href="#DejaVuSerif-47" transform="translate(837.621582 0.495312)"/>
      <use xlink:href="#DejaVuSerif-52" transform="translate(917.504395 0.495312)"/>
      <use xlink:href="#DejaVuSerif-20" transform="translate(992.797363 0.495312)"/>
      <use xlink:href="#DejaVuSerif-63" transform="translate(1024.584473 0.495312)"/>
      <use xlink:href="#DejaVuSerif-6c" transform="translate(1080.590332 0.495312)"/>
      <use xlink:href="#DejaVuSerif-6f" transform="translate(1112.572754 0.495312)"/>
      <use xlink:href="#DejaVuSerif-63" transform="translate(1172.777832 0.495312)"/>
      <use xlink:href="#DejaVuSerif-6b" transform="translate(1228.783691 0.495312)"/>
      <use xlink:href="#DejaVuSerif-20" transform="translate(1289.379395 0.495312)"/>
      <use xlink:href="#DejaVuSerif-72" transform="translate(1321.166504 0.495312)"/>
      <use xlink:href="#DejaVuSerif-61" transform="translate(1368.969238 0.495312)"/>
      <use xlink:href="#DejaVuSerif-74" transform="translate(1428.588379 0.495312)"/>
      <use xlink:href="#DejaVuSerif-65" transform="translate(1468.773926 0.495312)"/>
      <use xlink:href="#DejaVuSerif-29" transform="translate(1527.953613 0.495312)"/>
      <path d="M 61.834488 80.323437 
L 61.834488 86.573437 
L 207.938004 86.573437 
L 207.938004 80.323437 
L 61.834488 80.323437 
z
"/>
      <path d="M 400.321777 98.5 
L 400.321777 104.75 
L 766.820801 104.75 
L 766.820801 98.5 
L 400.321777 98.5 
z
"/>
     </g>
    </g>
   </g>
  </g>
 </g>
 <defs>
  <clipPath id="p845f3a509c">
   <rect x="47.307187" y="36.034344" width="465.64" height="254.24"/>
  </clipPath>
 </defs>
</svg>
