<svg width="100%" viewBox="0 0 680 370" xmlns="http://www.w3.org/2000/svg">
<style>.ts{font-family:"Helvetica Neue",Arial,sans-serif;font-size:12px;fill:#555}.th{font-family:"Helvetica Neue",Arial,sans-serif;font-size:14px;font-weight:600;fill:#1a1a1a}</style>
<defs><marker id="arrow" viewBox="0 0 10 10" refX="8" refY="5" markerWidth="6" markerHeight="6" orient="auto-start-reverse"><path d="M2 1L8 5L2 9" fill="none" stroke="context-stroke" stroke-width="1.5" stroke-linecap="round" stroke-linejoin="round"/></marker></defs>
<circle cx="58" cy="185" r="16" fill="#EF9F27" stroke="#633806" stroke-width="0.8"/>
<text class="th" x="58" y="185" text-anchor="middle" dominant-baseline="central" fill="#412402">S</text>
<text class="ts" x="58" y="210" text-anchor="middle">source CP</text>
<circle cx="622" cy="185" r="16" fill="#1D9E75" stroke="#085041" stroke-width="0.8"/>
<text class="th" x="622" y="185" text-anchor="middle" dominant-baseline="central" fill="white">D</text>
<text class="ts" x="622" y="210" text-anchor="middle">detector</text>
<rect x="310" y="30"  width="8" height="110" rx="2" fill="#888" opacity="0.6"/>
<rect x="310" y="168" width="8" height="34"  rx="2" fill="#888" opacity="0.6"/>
<rect x="310" y="230" width="8" height="110" rx="2" fill="#888" opacity="0.6"/>
<text class="ts" x="304" y="158" text-anchor="end" fill="#185FA5">Slit 1 ←</text>
<text class="ts" x="304" y="220" text-anchor="end" fill="#534AB7">Slit 2 ←</text>
<path d="M 74,180 Q 190,128 306,154" fill="none" stroke="#185FA5" stroke-width="2"   opacity="0.9"/>
<path d="M 74,183 Q 200,145 306,154" fill="none" stroke="#378ADD" stroke-width="1.2" opacity="0.6"/>
<path d="M 74,186 Q 210,160 306,154" fill="none" stroke="#85B7EB" stroke-width="0.8" opacity="0.35"/>
<path d="M 322,154 Q 460,150 606,182" fill="none" stroke="#185FA5" stroke-width="2"   opacity="0.9"/>
<path d="M 322,154 Q 440,160 606,184" fill="none" stroke="#378ADD" stroke-width="1.2" opacity="0.6"/>
<path d="M 322,154 Q 420,168 606,186" fill="none" stroke="#85B7EB" stroke-width="0.8" opacity="0.35"/>
<path d="M 74,188 Q 190,235 306,216" fill="none" stroke="#534AB7" stroke-width="2"   opacity="0.9"/>
<path d="M 74,191 Q 185,252 306,216" fill="none" stroke="#7F77DD" stroke-width="1.2" opacity="0.6"/>
<path d="M 74,189 Q 195,262 306,216" fill="none" stroke="#AFA9EC" stroke-width="0.8" opacity="0.35"/>
<path d="M 322,216 Q 460,212 606,188" fill="none" stroke="#534AB7" stroke-width="2"   opacity="0.9"/>
<path d="M 322,216 Q 440,210 606,186" fill="none" stroke="#7F77DD" stroke-width="1.2" opacity="0.6"/>
<path d="M 322,216 Q 420,202 606,186" fill="none" stroke="#AFA9EC" stroke-width="0.8" opacity="0.35"/>
<text class="ts" x="188" y="108" fill="#185FA5">φ₁ — path family 1</text>
<text class="ts" x="180" y="275" fill="#534AB7">φ₂ — path family 2</text>
<text class="ts" x="596" y="155" text-anchor="end" fill="#888">Δφ = φ₁ − φ₂</text>
<rect x="220" y="308" width="240" height="44" rx="6" fill="#f8f8f5" stroke="#ccc" stroke-width="0.5"/>
<text class="th" x="340" y="326" text-anchor="middle">ψ(D) = Σ_k A₀ e^(iφ_k)</text>
<text class="ts" x="340" y="344" text-anchor="middle" fill="#888">coherent sum over all paths</text>
</svg>